Interstate_Pi-Two.ufo
<glyph name="exclam" format="1">
  <advance width="1000"/>
  <unicode hex="0021"/>
  <outline>
    <contour>
      <point x="893" y="64" type="line" smooth="yes"/>
      <point x="893" y="33"/>
      <point x="874" y="13"/>
      <point x="841" y="13" type="curve" smooth="yes"/>
      <point x="159" y="13" type="line" smooth="yes"/>
      <point x="126" y="13"/>
      <point x="107" y="33"/>
      <point x="107" y="64" type="curve" smooth="yes"/>
      <point x="107" y="936" type="line" smooth="yes"/>
      <point x="107" y="967"/>
      <point x="126" y="987"/>
      <point x="159" y="987" type="curve" smooth="yes"/>
      <point x="841" y="987" type="line" smooth="yes"/>
      <point x="874" y="987"/>
      <point x="893" y="967"/>
      <point x="893" y="936" type="curve" smooth="yes"/>
    </contour>
    <contour>
      <point x="890" y="64" type="curve" smooth="yes"/>
      <point x="890" y="936" type="line" smooth="yes"/>
      <point x="890" y="966"/>
      <point x="872" y="984"/>
      <point x="841" y="984" type="curve" smooth="yes"/>
      <point x="159" y="984" type="line" smooth="yes"/>
      <point x="128" y="984"/>
      <point x="110" y="966"/>
      <point x="110" y="936" type="curve" smooth="yes"/>
      <point x="110" y="64" type="line" smooth="yes"/>
      <point x="110" y="34"/>
      <point x="128" y="16"/>
      <point x="159" y="16" type="curve" smooth="yes"/>
      <point x="841" y="16" type="line" smooth="yes"/>
      <point x="872" y="16"/>
      <point x="890" y="34"/>
    </contour>
    <contour>
      <point x="871" y="64" type="line" smooth="yes"/>
      <point x="871" y="46"/>
      <point x="859" y="35"/>
      <point x="841" y="35" type="curve" smooth="yes"/>
      <point x="159" y="35" type="line" smooth="yes"/>
      <point x="141" y="35"/>
      <point x="129" y="46"/>
      <point x="129" y="64" type="curve" smooth="yes"/>
      <point x="129" y="936" type="line" smooth="yes"/>
      <point x="129" y="954"/>
      <point x="141" y="965"/>
      <point x="159" y="965" type="curve" smooth="yes"/>
      <point x="841" y="965" type="line" smooth="yes"/>
      <point x="859" y="965"/>
      <point x="871" y="954"/>
      <point x="871" y="936" type="curve" smooth="yes"/>
    </contour>
    <contour>
      <point x="851" y="64" type="curve" smooth="yes"/>
      <point x="851" y="936" type="line" smooth="yes"/>
      <point x="851" y="942"/>
      <point x="847" y="945"/>
      <point x="841" y="945" type="curve" smooth="yes"/>
      <point x="159" y="945" type="line" smooth="yes"/>
      <point x="153" y="945"/>
      <point x="149" y="942"/>
      <point x="149" y="936" type="curve" smooth="yes"/>
      <point x="149" y="64" type="line" smooth="yes"/>
      <point x="149" y="58"/>
      <point x="153" y="55"/>
      <point x="159" y="55" type="curve" smooth="yes"/>
      <point x="841" y="55" type="line" smooth="yes"/>
      <point x="847" y="55"/>
      <point x="851" y="58"/>
    </contour>
    <contour>
      <point x="794" y="786" type="curve" smooth="yes"/>
      <point x="794" y="742"/>
      <point x="766" y="723"/>
      <point x="733" y="723" type="curve" smooth="yes"/>
      <point x="698" y="723" type="line"/>
      <point x="698" y="849" type="line"/>
      <point x="733" y="849" type="line" smooth="yes"/>
      <point x="766" y="849"/>
      <point x="794" y="830"/>
    </contour>
    <contour>
      <point x="661" y="723" type="line"/>
      <point x="577" y="723" type="line"/>
      <point x="577" y="849" type="line"/>
      <point x="658" y="849" type="line"/>
      <point x="658" y="830" type="line"/>
      <point x="596" y="830" type="line"/>
      <point x="596" y="799" type="line"/>
      <point x="632" y="799" type="line"/>
      <point x="632" y="781" type="line"/>
      <point x="596" y="781" type="line"/>
      <point x="596" y="741" type="line"/>
      <point x="661" y="741" type="line"/>
    </contour>
    <contour>
      <point x="538" y="723" type="line"/>
      <point x="454" y="723" type="line"/>
      <point x="454" y="849" type="line"/>
      <point x="535" y="849" type="line"/>
      <point x="535" y="830" type="line"/>
      <point x="473" y="830" type="line"/>
      <point x="473" y="799" type="line"/>
      <point x="509" y="799" type="line"/>
      <point x="509" y="781" type="line"/>
      <point x="473" y="781" type="line"/>
      <point x="473" y="741" type="line"/>
      <point x="538" y="741" type="line"/>
    </contour>
    <contour>
      <point x="423" y="810" type="curve" smooth="yes"/>
      <point x="423" y="784"/>
      <point x="405" y="770"/>
      <point x="381" y="770" type="curve" smooth="yes"/>
      <point x="348" y="770" type="line"/>
      <point x="348" y="723" type="line"/>
      <point x="329" y="723" type="line"/>
      <point x="329" y="849" type="line"/>
      <point x="382" y="849" type="line" smooth="yes"/>
      <point x="404" y="849"/>
      <point x="423" y="835"/>
    </contour>
    <contour>
      <point x="294" y="759" type="curve" smooth="yes"/>
      <point x="294" y="736"/>
      <point x="279" y="721"/>
      <point x="247" y="721" type="curve" smooth="yes"/>
      <point x="229" y="721"/>
      <point x="213" y="729"/>
      <point x="202" y="741" type="curve"/>
      <point x="216" y="754" type="line"/>
      <point x="224" y="745"/>
      <point x="236" y="739"/>
      <point x="248" y="739" type="curve" smooth="yes"/>
      <point x="266" y="739"/>
      <point x="274" y="746"/>
      <point x="274" y="758" type="curve" smooth="yes"/>
      <point x="274" y="768"/>
      <point x="267" y="772"/>
      <point x="246" y="779" type="curve" smooth="yes"/>
      <point x="219" y="787"/>
      <point x="207" y="793"/>
      <point x="207" y="816" type="curve" smooth="yes"/>
      <point x="207" y="838"/>
      <point x="225" y="851"/>
      <point x="248" y="851" type="curve" smooth="yes"/>
      <point x="265" y="851"/>
      <point x="278" y="845"/>
      <point x="289" y="834" type="curve"/>
      <point x="276" y="820" type="line"/>
      <point x="268" y="828"/>
      <point x="259" y="832"/>
      <point x="247" y="832" type="curve" smooth="yes"/>
      <point x="232" y="832"/>
      <point x="226" y="825"/>
      <point x="226" y="817" type="curve" smooth="yes"/>
      <point x="226" y="808"/>
      <point x="231" y="804"/>
      <point x="253" y="797" type="curve" smooth="yes"/>
      <point x="278" y="790"/>
      <point x="294" y="782"/>
    </contour>
    <contour>
      <point x="733" y="637" type="line"/>
      <point x="697" y="637" type="line"/>
      <point x="697" y="530" type="line"/>
      <point x="678" y="530" type="line"/>
      <point x="678" y="637" type="line"/>
      <point x="641" y="637" type="line"/>
      <point x="641" y="656" type="line"/>
      <point x="733" y="656" type="line"/>
    </contour>
    <contour>
      <point x="611" y="530" type="line"/>
      <point x="592" y="530" type="line"/>
      <point x="592" y="656" type="line"/>
      <point x="611" y="656" type="line"/>
    </contour>
    <contour>
      <point x="404" y="530" type="line"/>
      <point x="385" y="530" type="line"/>
      <point x="385" y="656" type="line"/>
      <point x="404" y="656" type="line"/>
    </contour>
    <contour>
      <point x="354" y="530" type="line"/>
      <point x="273" y="530" type="line"/>
      <point x="273" y="656" type="line"/>
      <point x="291" y="656" type="line"/>
      <point x="291" y="548" type="line"/>
      <point x="354" y="548" type="line"/>
    </contour>
    <contour>
      <point x="555" y="530" type="line"/>
      <point x="537" y="530" type="line"/>
      <point x="537" y="619" type="line"/>
      <point x="499" y="528" type="line"/>
      <point x="461" y="619" type="line"/>
      <point x="461" y="530" type="line"/>
      <point x="443" y="530" type="line"/>
      <point x="443" y="656" type="line"/>
      <point x="462" y="656" type="line"/>
      <point x="499" y="570" type="line"/>
      <point x="536" y="656" type="line"/>
      <point x="555" y="656" type="line"/>
    </contour>
    <contour>
      <point x="380" y="145" type="line"/>
      <point x="316" y="145" type="line"/>
      <point x="316" y="377" type="line"/>
      <point x="261" y="377" type="line"/>
      <point x="261" y="425" type="line"/>
      <point x="297" y="427"/>
      <point x="320" y="440"/>
      <point x="327" y="467" type="curve"/>
      <point x="380" y="467" type="line"/>
    </contour>
    <contour>
      <point x="750" y="254" type="curve" smooth="yes"/>
      <point x="750" y="178"/>
      <point x="695" y="137"/>
      <point x="615" y="137" type="curve" smooth="yes"/>
      <point x="569" y="137"/>
      <point x="530" y="146"/>
      <point x="490" y="172" type="curve"/>
      <point x="521" y="226" type="line"/>
      <point x="551" y="209"/>
      <point x="583" y="199"/>
      <point x="615" y="199" type="curve" smooth="yes"/>
      <point x="660" y="199"/>
      <point x="685" y="214"/>
      <point x="685" y="252" type="curve" smooth="yes"/>
      <point x="685" y="284"/>
      <point x="660" y="299"/>
      <point x="630" y="299" type="curve" smooth="yes"/>
      <point x="599" y="299"/>
      <point x="581" y="291"/>
      <point x="566" y="281" type="curve"/>
      <point x="505" y="303" type="line"/>
      <point x="516" y="464" type="line"/>
      <point x="730" y="464" type="line"/>
      <point x="730" y="402" type="line"/>
      <point x="575" y="402" type="line"/>
      <point x="572" y="347" type="line"/>
      <point x="587" y="357"/>
      <point x="612" y="361"/>
      <point x="637" y="361" type="curve" smooth="yes"/>
      <point x="714" y="361"/>
      <point x="750" y="312"/>
    </contour>
    <contour>
      <point x="403" y="810" type="curve" smooth="yes"/>
      <point x="403" y="823"/>
      <point x="395" y="831"/>
      <point x="382" y="831" type="curve" smooth="yes"/>
      <point x="348" y="831" type="line"/>
      <point x="348" y="788" type="line"/>
      <point x="382" y="788" type="line" smooth="yes"/>
      <point x="396" y="788"/>
      <point x="403" y="796"/>
    </contour>
    <contour>
      <point x="775" y="786" type="curve" smooth="yes"/>
      <point x="775" y="812"/>
      <point x="763" y="830"/>
      <point x="733" y="830" type="curve" smooth="yes"/>
      <point x="717" y="830" type="line"/>
      <point x="717" y="742" type="line"/>
      <point x="733" y="742" type="line" smooth="yes"/>
      <point x="763" y="742"/>
      <point x="775" y="760"/>
    </contour>
  </outline>
</glyph>
<glyph name="quotedbl" format="1">
  <advance width="1000"/>
  <unicode hex="0022"/>
  <outline>
    <contour>
      <point x="987" y="192" type="line" smooth="yes"/>
      <point x="987" y="99"/>
      <point x="924" y="36"/>
      <point x="831" y="36" type="curve" smooth="yes"/>
      <point x="169" y="36" type="line" smooth="yes"/>
      <point x="76" y="36"/>
      <point x="13" y="99"/>
      <point x="13" y="192" type="curve" smooth="yes"/>
      <point x="13" y="808" type="line" smooth="yes"/>
      <point x="13" y="901"/>
      <point x="76" y="964"/>
      <point x="169" y="964" type="curve" smooth="yes"/>
      <point x="831" y="964" type="line" smooth="yes"/>
      <point x="924" y="964"/>
      <point x="987" y="901"/>
      <point x="987" y="808" type="curve" smooth="yes"/>
    </contour>
    <contour>
      <point x="975" y="192" type="curve" smooth="yes"/>
      <point x="975" y="808" type="line" smooth="yes"/>
      <point x="975" y="894"/>
      <point x="917" y="952"/>
      <point x="831" y="952" type="curve" smooth="yes"/>
      <point x="169" y="952" type="line" smooth="yes"/>
      <point x="83" y="952"/>
      <point x="25" y="894"/>
      <point x="25" y="808" type="curve" smooth="yes"/>
      <point x="25" y="192" type="line" smooth="yes"/>
      <point x="25" y="106"/>
      <point x="83" y="48"/>
      <point x="169" y="48" type="curve" smooth="yes"/>
      <point x="831" y="48" type="line" smooth="yes"/>
      <point x="917" y="48"/>
      <point x="975" y="106"/>
    </contour>
    <contour>
      <point x="953" y="297" type="line"/>
      <point x="920" y="297" type="line"/>
      <point x="920" y="224" type="line" smooth="yes"/>
      <point x="920" y="177"/>
      <point x="889" y="146"/>
      <point x="842" y="146" type="curve" smooth="yes"/>
      <point x="158" y="146" type="line" smooth="yes"/>
      <point x="111" y="146"/>
      <point x="80" y="177"/>
      <point x="80" y="224" type="curve" smooth="yes"/>
      <point x="80" y="297" type="line"/>
      <point x="47" y="297" type="line"/>
      <point x="47" y="777" type="line" smooth="yes"/>
      <point x="47" y="843"/>
      <point x="91" y="887"/>
      <point x="157" y="887" type="curve" smooth="yes"/>
      <point x="843" y="887" type="line" smooth="yes"/>
      <point x="909" y="887"/>
      <point x="953" y="843"/>
      <point x="953" y="777" type="curve" smooth="yes"/>
    </contour>
    <contour>
      <point x="941" y="309" type="line"/>
      <point x="941" y="777" type="line" smooth="yes"/>
      <point x="941" y="836"/>
      <point x="902" y="875"/>
      <point x="843" y="875" type="curve" smooth="yes"/>
      <point x="157" y="875" type="line" smooth="yes"/>
      <point x="98" y="875"/>
      <point x="59" y="836"/>
      <point x="59" y="777" type="curve" smooth="yes"/>
      <point x="59" y="309" type="line"/>
      <point x="80" y="309" type="line"/>
      <point x="80" y="777" type="line" smooth="yes"/>
      <point x="80" y="824"/>
      <point x="111" y="855"/>
      <point x="158" y="855" type="curve" smooth="yes"/>
      <point x="842" y="855" type="line" smooth="yes"/>
      <point x="889" y="855"/>
      <point x="920" y="824"/>
      <point x="920" y="777" type="curve" smooth="yes"/>
      <point x="920" y="309" type="line"/>
    </contour>
    <contour>
      <point x="908" y="224" type="curve" smooth="yes"/>
      <point x="908" y="777" type="line" smooth="yes"/>
      <point x="908" y="817"/>
      <point x="882" y="843"/>
      <point x="842" y="843" type="curve" smooth="yes"/>
      <point x="158" y="843" type="line" smooth="yes"/>
      <point x="118" y="843"/>
      <point x="92" y="817"/>
      <point x="92" y="777" type="curve" smooth="yes"/>
      <point x="92" y="224" type="line" smooth="yes"/>
      <point x="92" y="184"/>
      <point x="118" y="158"/>
      <point x="158" y="158" type="curve" smooth="yes"/>
      <point x="842" y="158" type="line" smooth="yes"/>
      <point x="882" y="158"/>
      <point x="908" y="184"/>
    </contour>
    <contour>
      <point x="892" y="224" type="line" smooth="yes"/>
      <point x="892" y="194"/>
      <point x="872" y="174"/>
      <point x="842" y="174" type="curve" smooth="yes"/>
      <point x="158" y="174" type="line" smooth="yes"/>
      <point x="128" y="174"/>
      <point x="108" y="194"/>
      <point x="108" y="224" type="curve" smooth="yes"/>
      <point x="108" y="777" type="line" smooth="yes"/>
      <point x="108" y="807"/>
      <point x="128" y="827"/>
      <point x="158" y="827" type="curve" smooth="yes"/>
      <point x="842" y="827" type="line" smooth="yes"/>
      <point x="872" y="827"/>
      <point x="892" y="807"/>
      <point x="892" y="777" type="curve" smooth="yes"/>
    </contour>
    <contour>
      <point x="810" y="243" type="line"/>
      <point x="758" y="386" type="line"/>
      <point x="805" y="464" type="line"/>
      <point x="770" y="464" type="line"/>
      <point x="717" y="373" type="line"/>
      <point x="717" y="464" type="line"/>
      <point x="687" y="464" type="line"/>
      <point x="687" y="243" type="line"/>
      <point x="717" y="243" type="line"/>
      <point x="717" y="324" type="line"/>
      <point x="735" y="354" type="line"/>
      <point x="777" y="243" type="line"/>
    </contour>
    <contour>
      <point x="660" y="243" type="line"/>
      <point x="660" y="274" type="line"/>
      <point x="589" y="274" type="line"/>
      <point x="589" y="464" type="line"/>
      <point x="559" y="464" type="line"/>
      <point x="559" y="243" type="line"/>
    </contour>
    <contour>
      <point x="522" y="243" type="line"/>
      <point x="469" y="464" type="line"/>
      <point x="436" y="464" type="line"/>
      <point x="382" y="243" type="line"/>
      <point x="415" y="243" type="line"/>
      <point x="427" y="303" type="line"/>
      <point x="476" y="303" type="line"/>
      <point x="489" y="243" type="line"/>
    </contour>
    <contour>
      <point x="367" y="464" type="line"/>
      <point x="337" y="464" type="line"/>
      <point x="315" y="317" type="line"/>
      <point x="291" y="464" type="line"/>
      <point x="267" y="464" type="line"/>
      <point x="245" y="317" type="line"/>
      <point x="221" y="464" type="line"/>
      <point x="191" y="464" type="line"/>
      <point x="229" y="243" type="line"/>
      <point x="253" y="243" type="line"/>
      <point x="278" y="382" type="line"/>
      <point x="304" y="243" type="line"/>
      <point x="327" y="243" type="line"/>
    </contour>
    <contour>
      <point x="470" y="332" type="line"/>
      <point x="434" y="332" type="line"/>
      <point x="452" y="418" type="line"/>
    </contour>
  </outline>
</glyph>
<glyph name="numbersign" format="1">
  <advance width="1000"/>
  <unicode hex="0023"/>
  <outline>
    <contour>
      <point x="893" y="64" type="line" smooth="yes"/>
      <point x="893" y="33"/>
      <point x="874" y="13"/>
      <point x="841" y="13" type="curve" smooth="yes"/>
      <point x="159" y="13" type="line" smooth="yes"/>
      <point x="126" y="13"/>
      <point x="107" y="33"/>
      <point x="107" y="64" type="curve" smooth="yes"/>
      <point x="107" y="936" type="line" smooth="yes"/>
      <point x="107" y="967"/>
      <point x="126" y="987"/>
      <point x="159" y="987" type="curve" smooth="yes"/>
      <point x="841" y="987" type="line" smooth="yes"/>
      <point x="874" y="987"/>
      <point x="893" y="967"/>
      <point x="893" y="936" type="curve" smooth="yes"/>
    </contour>
    <contour>
      <point x="890" y="64" type="curve" smooth="yes"/>
      <point x="890" y="936" type="line" smooth="yes"/>
      <point x="890" y="966"/>
      <point x="872" y="984"/>
      <point x="841" y="984" type="curve" smooth="yes"/>
      <point x="159" y="984" type="line" smooth="yes"/>
      <point x="128" y="984"/>
      <point x="110" y="966"/>
      <point x="110" y="936" type="curve" smooth="yes"/>
      <point x="110" y="64" type="line" smooth="yes"/>
      <point x="110" y="34"/>
      <point x="128" y="16"/>
      <point x="159" y="16" type="curve" smooth="yes"/>
      <point x="841" y="16" type="line" smooth="yes"/>
      <point x="872" y="16"/>
      <point x="890" y="34"/>
    </contour>
    <contour>
      <point x="871" y="64" type="line" smooth="yes"/>
      <point x="871" y="46"/>
      <point x="859" y="35"/>
      <point x="841" y="35" type="curve" smooth="yes"/>
      <point x="159" y="35" type="line" smooth="yes"/>
      <point x="141" y="35"/>
      <point x="129" y="46"/>
      <point x="129" y="64" type="curve" smooth="yes"/>
      <point x="129" y="936" type="line" smooth="yes"/>
      <point x="129" y="954"/>
      <point x="141" y="965"/>
      <point x="159" y="965" type="curve" smooth="yes"/>
      <point x="841" y="965" type="line" smooth="yes"/>
      <point x="859" y="965"/>
      <point x="871" y="954"/>
      <point x="871" y="936" type="curve" smooth="yes"/>
    </contour>
    <contour>
      <point x="851" y="64" type="curve" smooth="yes"/>
      <point x="851" y="936" type="line" smooth="yes"/>
      <point x="851" y="942"/>
      <point x="847" y="945"/>
      <point x="841" y="945" type="curve" smooth="yes"/>
      <point x="159" y="945" type="line" smooth="yes"/>
      <point x="153" y="945"/>
      <point x="149" y="942"/>
      <point x="149" y="936" type="curve" smooth="yes"/>
      <point x="149" y="64" type="line" smooth="yes"/>
      <point x="149" y="58"/>
      <point x="153" y="55"/>
      <point x="159" y="55" type="curve" smooth="yes"/>
      <point x="841" y="55" type="line" smooth="yes"/>
      <point x="847" y="55"/>
      <point x="851" y="58"/>
    </contour>
    <contour>
      <point x="794" y="786" type="curve" smooth="yes"/>
      <point x="794" y="742"/>
      <point x="766" y="723"/>
      <point x="733" y="723" type="curve" smooth="yes"/>
      <point x="698" y="723" type="line"/>
      <point x="698" y="849" type="line"/>
      <point x="733" y="849" type="line" smooth="yes"/>
      <point x="766" y="849"/>
      <point x="794" y="830"/>
    </contour>
    <contour>
      <point x="661" y="723" type="line"/>
      <point x="577" y="723" type="line"/>
      <point x="577" y="849" type="line"/>
      <point x="658" y="849" type="line"/>
      <point x="658" y="830" type="line"/>
      <point x="596" y="830" type="line"/>
      <point x="596" y="799" type="line"/>
      <point x="632" y="799" type="line"/>
      <point x="632" y="781" type="line"/>
      <point x="596" y="781" type="line"/>
      <point x="596" y="741" type="line"/>
      <point x="661" y="741" type="line"/>
    </contour>
    <contour>
      <point x="538" y="723" type="line"/>
      <point x="454" y="723" type="line"/>
      <point x="454" y="849" type="line"/>
      <point x="535" y="849" type="line"/>
      <point x="535" y="830" type="line"/>
      <point x="473" y="830" type="line"/>
      <point x="473" y="799" type="line"/>
      <point x="509" y="799" type="line"/>
      <point x="509" y="781" type="line"/>
      <point x="473" y="781" type="line"/>
      <point x="473" y="741" type="line"/>
      <point x="538" y="741" type="line"/>
    </contour>
    <contour>
      <point x="423" y="810" type="curve" smooth="yes"/>
      <point x="423" y="784"/>
      <point x="405" y="770"/>
      <point x="381" y="770" type="curve" smooth="yes"/>
      <point x="348" y="770" type="line"/>
      <point x="348" y="723" type="line"/>
      <point x="329" y="723" type="line"/>
      <point x="329" y="849" type="line"/>
      <point x="382" y="849" type="line" smooth="yes"/>
      <point x="404" y="849"/>
      <point x="423" y="835"/>
    </contour>
    <contour>
      <point x="294" y="759" type="curve" smooth="yes"/>
      <point x="294" y="736"/>
      <point x="279" y="721"/>
      <point x="247" y="721" type="curve" smooth="yes"/>
      <point x="229" y="721"/>
      <point x="213" y="729"/>
      <point x="202" y="741" type="curve"/>
      <point x="216" y="754" type="line"/>
      <point x="224" y="745"/>
      <point x="236" y="739"/>
      <point x="248" y="739" type="curve" smooth="yes"/>
      <point x="266" y="739"/>
      <point x="274" y="746"/>
      <point x="274" y="758" type="curve" smooth="yes"/>
      <point x="274" y="768"/>
      <point x="267" y="772"/>
      <point x="246" y="779" type="curve" smooth="yes"/>
      <point x="219" y="787"/>
      <point x="207" y="793"/>
      <point x="207" y="816" type="curve" smooth="yes"/>
      <point x="207" y="838"/>
      <point x="225" y="851"/>
      <point x="248" y="851" type="curve" smooth="yes"/>
      <point x="265" y="851"/>
      <point x="278" y="845"/>
      <point x="289" y="834" type="curve"/>
      <point x="276" y="820" type="line"/>
      <point x="268" y="828"/>
      <point x="259" y="832"/>
      <point x="247" y="832" type="curve" smooth="yes"/>
      <point x="232" y="832"/>
      <point x="226" y="825"/>
      <point x="226" y="817" type="curve" smooth="yes"/>
      <point x="226" y="808"/>
      <point x="231" y="804"/>
      <point x="253" y="797" type="curve" smooth="yes"/>
      <point x="278" y="790"/>
      <point x="294" y="782"/>
    </contour>
    <contour>
      <point x="733" y="637" type="line"/>
      <point x="697" y="637" type="line"/>
      <point x="697" y="530" type="line"/>
      <point x="678" y="530" type="line"/>
      <point x="678" y="637" type="line"/>
      <point x="641" y="637" type="line"/>
      <point x="641" y="656" type="line"/>
      <point x="733" y="656" type="line"/>
    </contour>
    <contour>
      <point x="611" y="530" type="line"/>
      <point x="592" y="530" type="line"/>
      <point x="592" y="656" type="line"/>
      <point x="611" y="656" type="line"/>
    </contour>
    <contour>
      <point x="404" y="530" type="line"/>
      <point x="385" y="530" type="line"/>
      <point x="385" y="656" type="line"/>
      <point x="404" y="656" type="line"/>
    </contour>
    <contour>
      <point x="354" y="530" type="line"/>
      <point x="273" y="530" type="line"/>
      <point x="273" y="656" type="line"/>
      <point x="291" y="656" type="line"/>
      <point x="291" y="548" type="line"/>
      <point x="354" y="548" type="line"/>
    </contour>
    <contour>
      <point x="555" y="530" type="line"/>
      <point x="537" y="530" type="line"/>
      <point x="537" y="619" type="line"/>
      <point x="499" y="528" type="line"/>
      <point x="461" y="619" type="line"/>
      <point x="461" y="530" type="line"/>
      <point x="443" y="530" type="line"/>
      <point x="443" y="656" type="line"/>
      <point x="462" y="656" type="line"/>
      <point x="499" y="570" type="line"/>
      <point x="536" y="656" type="line"/>
      <point x="555" y="656" type="line"/>
    </contour>
    <contour>
      <point x="472" y="242" type="curve" smooth="yes"/>
      <point x="472" y="173"/>
      <point x="419" y="137"/>
      <point x="339" y="137" type="curve" smooth="yes"/>
      <point x="291" y="137"/>
      <point x="247" y="156"/>
      <point x="212" y="199" type="curve"/>
      <point x="260" y="239" type="line"/>
      <point x="287" y="210"/>
      <point x="312" y="200"/>
      <point x="345" y="200" type="curve" smooth="yes"/>
      <point x="387" y="200"/>
      <point x="407" y="216"/>
      <point x="407" y="241" type="curve" smooth="yes"/>
      <point x="407" y="266"/>
      <point x="390" y="278"/>
      <point x="360" y="278" type="curve" smooth="yes"/>
      <point x="321" y="278" type="line"/>
      <point x="321" y="341" type="line"/>
      <point x="356" y="341" type="line" smooth="yes"/>
      <point x="383" y="341"/>
      <point x="394" y="353"/>
      <point x="394" y="374" type="curve" smooth="yes"/>
      <point x="394" y="390"/>
      <point x="380" y="406"/>
      <point x="340" y="406" type="curve" smooth="yes"/>
      <point x="315" y="406"/>
      <point x="295" y="398"/>
      <point x="277" y="379" type="curve"/>
      <point x="230" y="422" type="line"/>
      <point x="261" y="454"/>
      <point x="293" y="469"/>
      <point x="341" y="469" type="curve" smooth="yes"/>
      <point x="407" y="469"/>
      <point x="459" y="439"/>
      <point x="459" y="378" type="curve" smooth="yes"/>
      <point x="459" y="343"/>
      <point x="441" y="322"/>
      <point x="422" y="313" type="curve"/>
      <point x="442" y="305"/>
      <point x="472" y="285"/>
    </contour>
    <contour>
      <point x="791" y="254" type="curve" smooth="yes"/>
      <point x="791" y="178"/>
      <point x="736" y="137"/>
      <point x="656" y="137" type="curve" smooth="yes"/>
      <point x="610" y="137"/>
      <point x="571" y="146"/>
      <point x="531" y="172" type="curve"/>
      <point x="562" y="226" type="line"/>
      <point x="592" y="209"/>
      <point x="624" y="199"/>
      <point x="656" y="199" type="curve" smooth="yes"/>
      <point x="701" y="199"/>
      <point x="726" y="214"/>
      <point x="726" y="252" type="curve" smooth="yes"/>
      <point x="726" y="284"/>
      <point x="701" y="299"/>
      <point x="671" y="299" type="curve" smooth="yes"/>
      <point x="640" y="299"/>
      <point x="622" y="291"/>
      <point x="607" y="281" type="curve"/>
      <point x="546" y="303" type="line"/>
      <point x="557" y="464" type="line"/>
      <point x="771" y="464" type="line"/>
      <point x="771" y="402" type="line"/>
      <point x="616" y="402" type="line"/>
      <point x="613" y="347" type="line"/>
      <point x="628" y="357"/>
      <point x="653" y="361"/>
      <point x="678" y="361" type="curve" smooth="yes"/>
      <point x="755" y="361"/>
      <point x="791" y="312"/>
    </contour>
    <contour>
      <point x="403" y="810" type="curve" smooth="yes"/>
      <point x="403" y="823"/>
      <point x="395" y="831"/>
      <point x="382" y="831" type="curve" smooth="yes"/>
      <point x="348" y="831" type="line"/>
      <point x="348" y="788" type="line"/>
      <point x="382" y="788" type="line" smooth="yes"/>
      <point x="396" y="788"/>
      <point x="403" y="796"/>
    </contour>
    <contour>
      <point x="775" y="786" type="curve" smooth="yes"/>
      <point x="775" y="812"/>
      <point x="763" y="830"/>
      <point x="733" y="830" type="curve" smooth="yes"/>
      <point x="717" y="830" type="line"/>
      <point x="717" y="742" type="line"/>
      <point x="733" y="742" type="line" smooth="yes"/>
      <point x="763" y="742"/>
      <point x="775" y="760"/>
    </contour>
  </outline>
</glyph>
<glyph name="comma" format="1">
  <advance width="1000"/>
  <unicode hex="002C"/>
  <outline>
    <contour>
      <point x="986" y="277" type="line" smooth="yes"/>
      <point x="986" y="211"/>
      <point x="963" y="188"/>
      <point x="897" y="188" type="curve" smooth="yes"/>
      <point x="103" y="188" type="line" smooth="yes"/>
      <point x="37" y="188"/>
      <point x="14" y="211"/>
      <point x="14" y="277" type="curve" smooth="yes"/>
      <point x="14" y="723" type="line" smooth="yes"/>
      <point x="14" y="789"/>
      <point x="37" y="812"/>
      <point x="103" y="812" type="curve" smooth="yes"/>
      <point x="897" y="812" type="line" smooth="yes"/>
      <point x="963" y="812"/>
      <point x="986" y="789"/>
      <point x="986" y="723" type="curve" smooth="yes"/>
    </contour>
  </outline>
</glyph>
<glyph name="hyphen" format="1">
  <advance width="1000"/>
  <unicode hex="002D"/>
  <unicode hex="2010"/>
  <unicode hex="2011"/>
  <outline>
    <contour>
      <point x="893" y="64" type="line" smooth="yes"/>
      <point x="893" y="33"/>
      <point x="874" y="13"/>
      <point x="841" y="13" type="curve" smooth="yes"/>
      <point x="159" y="13" type="line" smooth="yes"/>
      <point x="126" y="13"/>
      <point x="107" y="33"/>
      <point x="107" y="64" type="curve" smooth="yes"/>
      <point x="107" y="936" type="line" smooth="yes"/>
      <point x="107" y="967"/>
      <point x="126" y="987"/>
      <point x="159" y="987" type="curve" smooth="yes"/>
      <point x="841" y="987" type="line" smooth="yes"/>
      <point x="874" y="987"/>
      <point x="893" y="967"/>
      <point x="893" y="936" type="curve" smooth="yes"/>
    </contour>
    <contour>
      <point x="890" y="64" type="curve" smooth="yes"/>
      <point x="890" y="936" type="line" smooth="yes"/>
      <point x="890" y="966"/>
      <point x="872" y="984"/>
      <point x="841" y="984" type="curve" smooth="yes"/>
      <point x="159" y="984" type="line" smooth="yes"/>
      <point x="128" y="984"/>
      <point x="110" y="966"/>
      <point x="110" y="936" type="curve" smooth="yes"/>
      <point x="110" y="64" type="line" smooth="yes"/>
      <point x="110" y="34"/>
      <point x="128" y="16"/>
      <point x="159" y="16" type="curve" smooth="yes"/>
      <point x="841" y="16" type="line" smooth="yes"/>
      <point x="872" y="16"/>
      <point x="890" y="34"/>
    </contour>
    <contour>
      <point x="871" y="64" type="line" smooth="yes"/>
      <point x="871" y="46"/>
      <point x="859" y="35"/>
      <point x="841" y="35" type="curve" smooth="yes"/>
      <point x="159" y="35" type="line" smooth="yes"/>
      <point x="141" y="35"/>
      <point x="129" y="46"/>
      <point x="129" y="64" type="curve" smooth="yes"/>
      <point x="129" y="936" type="line" smooth="yes"/>
      <point x="129" y="954"/>
      <point x="141" y="965"/>
      <point x="159" y="965" type="curve" smooth="yes"/>
      <point x="841" y="965" type="line" smooth="yes"/>
      <point x="859" y="965"/>
      <point x="871" y="954"/>
      <point x="871" y="936" type="curve" smooth="yes"/>
    </contour>
    <contour>
      <point x="851" y="64" type="curve" smooth="yes"/>
      <point x="851" y="936" type="line" smooth="yes"/>
      <point x="851" y="942"/>
      <point x="847" y="945"/>
      <point x="841" y="945" type="curve" smooth="yes"/>
      <point x="159" y="945" type="line" smooth="yes"/>
      <point x="153" y="945"/>
      <point x="149" y="942"/>
      <point x="149" y="936" type="curve" smooth="yes"/>
      <point x="149" y="64" type="line" smooth="yes"/>
      <point x="149" y="58"/>
      <point x="153" y="55"/>
      <point x="159" y="55" type="curve" smooth="yes"/>
      <point x="841" y="55" type="line" smooth="yes"/>
      <point x="847" y="55"/>
      <point x="851" y="58"/>
    </contour>
    <contour>
      <point x="673" y="773" type="curve" smooth="yes"/>
      <point x="673" y="715"/>
      <point x="648" y="672"/>
      <point x="602" y="672" type="curve" smooth="yes"/>
      <point x="556" y="672"/>
      <point x="531" y="715"/>
      <point x="531" y="773" type="curve" smooth="yes"/>
      <point x="531" y="831"/>
      <point x="556" y="874"/>
      <point x="602" y="874" type="curve" smooth="yes"/>
      <point x="648" y="874"/>
      <point x="673" y="831"/>
    </contour>
    <contour>
      <point x="484" y="774" type="curve" smooth="yes"/>
      <point x="484" y="710"/>
      <point x="451" y="675"/>
      <point x="405" y="675" type="curve" smooth="yes"/>
      <point x="354" y="675" type="line"/>
      <point x="354" y="871" type="line"/>
      <point x="405" y="871" type="line" smooth="yes"/>
      <point x="453" y="871"/>
      <point x="484" y="836"/>
    </contour>
    <contour>
      <point x="731" y="570" type="line"/>
      <point x="684" y="570" type="line"/>
      <point x="684" y="402" type="line"/>
      <point x="656" y="402" type="line"/>
      <point x="656" y="570" type="line"/>
      <point x="609" y="570" type="line"/>
      <point x="609" y="598" type="line"/>
      <point x="731" y="598" type="line"/>
    </contour>
    <contour>
      <point x="582" y="500" type="curve" smooth="yes"/>
      <point x="582" y="442"/>
      <point x="557" y="399"/>
      <point x="511" y="399" type="curve" smooth="yes"/>
      <point x="465" y="399"/>
      <point x="440" y="442"/>
      <point x="440" y="500" type="curve" smooth="yes"/>
      <point x="440" y="558"/>
      <point x="465" y="601"/>
      <point x="511" y="601" type="curve" smooth="yes"/>
      <point x="557" y="601"/>
      <point x="582" y="558"/>
    </contour>
    <contour>
      <point x="398" y="402" type="line"/>
      <point x="372" y="402" type="line"/>
      <point x="297" y="542" type="line"/>
      <point x="297" y="402" type="line"/>
      <point x="268" y="402" type="line"/>
      <point x="268" y="598" type="line"/>
      <point x="297" y="598" type="line"/>
      <point x="370" y="463" type="line"/>
      <point x="370" y="598" type="line"/>
      <point x="398" y="598" type="line"/>
    </contour>
    <contour>
      <point x="805" y="184" type="curve" smooth="yes"/>
      <point x="805" y="150"/>
      <point x="784" y="127"/>
      <point x="742" y="127" type="curve" smooth="yes"/>
      <point x="715" y="127"/>
      <point x="695" y="140"/>
      <point x="681" y="159" type="curve"/>
      <point x="702" y="178" type="line"/>
      <point x="714" y="162"/>
      <point x="728" y="155"/>
      <point x="744" y="155" type="curve" smooth="yes"/>
      <point x="765" y="155"/>
      <point x="776" y="164"/>
      <point x="776" y="182" type="curve" smooth="yes"/>
      <point x="776" y="197"/>
      <point x="767" y="205"/>
      <point x="737" y="219" type="curve" smooth="yes"/>
      <point x="705" y="233"/>
      <point x="687" y="245"/>
      <point x="687" y="278" type="curve" smooth="yes"/>
      <point x="687" y="309"/>
      <point x="711" y="329"/>
      <point x="744" y="329" type="curve" smooth="yes"/>
      <point x="768" y="329"/>
      <point x="785" y="320"/>
      <point x="800" y="303" type="curve"/>
      <point x="779" y="283" type="line"/>
      <point x="768" y="296"/>
      <point x="758" y="301"/>
      <point x="742" y="301" type="curve" smooth="yes"/>
      <point x="724" y="301"/>
      <point x="716" y="292"/>
      <point x="716" y="279" type="curve" smooth="yes"/>
      <point x="716" y="265"/>
      <point x="724" y="257"/>
      <point x="751" y="245" type="curve" smooth="yes"/>
      <point x="783" y="231"/>
      <point x="805" y="218"/>
    </contour>
    <contour>
      <point x="651" y="184" type="curve" smooth="yes"/>
      <point x="651" y="150"/>
      <point x="630" y="127"/>
      <point x="588" y="127" type="curve" smooth="yes"/>
      <point x="561" y="127"/>
      <point x="541" y="140"/>
      <point x="527" y="159" type="curve"/>
      <point x="548" y="178" type="line"/>
      <point x="560" y="162"/>
      <point x="574" y="155"/>
      <point x="590" y="155" type="curve" smooth="yes"/>
      <point x="611" y="155"/>
      <point x="622" y="164"/>
      <point x="622" y="182" type="curve" smooth="yes"/>
      <point x="622" y="197"/>
      <point x="613" y="205"/>
      <point x="583" y="219" type="curve" smooth="yes"/>
      <point x="551" y="233"/>
      <point x="533" y="245"/>
      <point x="533" y="278" type="curve" smooth="yes"/>
      <point x="533" y="309"/>
      <point x="557" y="329"/>
      <point x="590" y="329" type="curve" smooth="yes"/>
      <point x="614" y="329"/>
      <point x="631" y="320"/>
      <point x="646" y="303" type="curve"/>
      <point x="625" y="283" type="line"/>
      <point x="614" y="296"/>
      <point x="604" y="301"/>
      <point x="588" y="301" type="curve" smooth="yes"/>
      <point x="570" y="301"/>
      <point x="562" y="292"/>
      <point x="562" y="279" type="curve" smooth="yes"/>
      <point x="562" y="265"/>
      <point x="570" y="257"/>
      <point x="597" y="245" type="curve" smooth="yes"/>
      <point x="629" y="231"/>
      <point x="651" y="218"/>
    </contour>
    <contour>
      <point x="497" y="130" type="line"/>
      <point x="466" y="130" type="line"/>
      <point x="452" y="179" type="line"/>
      <point x="392" y="179" type="line"/>
      <point x="378" y="130" type="line"/>
      <point x="348" y="130" type="line"/>
      <point x="407" y="326" type="line"/>
      <point x="437" y="326" type="line"/>
    </contour>
    <contour>
      <point x="337" y="267" type="curve" smooth="yes"/>
      <point x="337" y="226"/>
      <point x="310" y="206"/>
      <point x="276" y="206" type="curve" smooth="yes"/>
      <point x="238" y="206" type="line"/>
      <point x="238" y="130" type="line"/>
      <point x="209" y="130" type="line"/>
      <point x="209" y="326" type="line"/>
      <point x="278" y="326" type="line" smooth="yes"/>
      <point x="308" y="326"/>
      <point x="337" y="307"/>
    </contour>
    <contour>
      <point x="644" y="773" type="curve" smooth="yes"/>
      <point x="644" y="813"/>
      <point x="631" y="846"/>
      <point x="602" y="846" type="curve" smooth="yes"/>
      <point x="573" y="846"/>
      <point x="560" y="813"/>
      <point x="560" y="773" type="curve" smooth="yes"/>
      <point x="560" y="733"/>
      <point x="573" y="700"/>
      <point x="602" y="700" type="curve" smooth="yes"/>
      <point x="631" y="700"/>
      <point x="644" y="733"/>
    </contour>
    <contour>
      <point x="455" y="774" type="curve" smooth="yes"/>
      <point x="455" y="811"/>
      <point x="441" y="843"/>
      <point x="405" y="843" type="curve" smooth="yes"/>
      <point x="383" y="843" type="line"/>
      <point x="383" y="703" type="line"/>
      <point x="405" y="703" type="line" smooth="yes"/>
      <point x="441" y="703"/>
      <point x="455" y="736"/>
    </contour>
    <contour>
      <point x="553" y="500" type="curve" smooth="yes"/>
      <point x="553" y="540"/>
      <point x="540" y="573"/>
      <point x="511" y="573" type="curve" smooth="yes"/>
      <point x="482" y="573"/>
      <point x="469" y="540"/>
      <point x="469" y="500" type="curve" smooth="yes"/>
      <point x="469" y="460"/>
      <point x="482" y="427"/>
      <point x="511" y="427" type="curve" smooth="yes"/>
      <point x="540" y="427"/>
      <point x="553" y="460"/>
    </contour>
    <contour>
      <point x="308" y="266" type="curve" smooth="yes"/>
      <point x="308" y="288"/>
      <point x="294" y="298"/>
      <point x="277" y="298" type="curve" smooth="yes"/>
      <point x="238" y="298" type="line"/>
      <point x="238" y="233" type="line"/>
      <point x="277" y="233" type="line" smooth="yes"/>
      <point x="296" y="233"/>
      <point x="308" y="245"/>
    </contour>
    <contour>
      <point x="444" y="206" type="line"/>
      <point x="422" y="287" type="line"/>
      <point x="400" y="206" type="line"/>
    </contour>
  </outline>
</glyph>
<glyph name="period" format="1">
  <advance width="1000"/>
  <unicode hex="002E"/>
  <outline>
    <contour>
      <point x="986" y="333" type="line" smooth="yes"/>
      <point x="986" y="267"/>
      <point x="963" y="244"/>
      <point x="897" y="244" type="curve" smooth="yes"/>
      <point x="103" y="244" type="line" smooth="yes"/>
      <point x="37" y="244"/>
      <point x="14" y="267"/>
      <point x="14" y="333" type="curve" smooth="yes"/>
      <point x="14" y="667" type="line" smooth="yes"/>
      <point x="14" y="733"/>
      <point x="37" y="756"/>
      <point x="103" y="756" type="curve" smooth="yes"/>
      <point x="897" y="756" type="line" smooth="yes"/>
      <point x="963" y="756"/>
      <point x="986" y="733"/>
      <point x="986" y="667" type="curve" smooth="yes"/>
    </contour>
  </outline>
</glyph>
<glyph name="slash" format="1">
  <advance width="1000"/>
  <unicode hex="002F"/>
  <outline>
    <contour>
      <point x="986" y="500" type="curve" smooth="yes"/>
      <point x="986" y="485"/>
      <point x="976" y="478"/>
      <point x="963" y="473" type="curve" smooth="yes"/>
      <point x="75" y="108" type="line" smooth="yes"/>
      <point x="46" y="96"/>
      <point x="14" y="117"/>
      <point x="14" y="147" type="curve" smooth="yes"/>
      <point x="14" y="853" type="line" smooth="yes"/>
      <point x="14" y="883"/>
      <point x="46" y="904"/>
      <point x="75" y="892" type="curve" smooth="yes"/>
      <point x="962" y="528" type="line" smooth="yes"/>
      <point x="975" y="523"/>
      <point x="986" y="515"/>
    </contour>
  </outline>
</glyph>
<glyph name="zero" format="1">
  <advance width="1000"/>
  <unicode hex="0030"/>
  <outline>
    <contour>
      <point x="893" y="64" type="line" smooth="yes"/>
      <point x="893" y="33"/>
      <point x="874" y="13"/>
      <point x="841" y="13" type="curve" smooth="yes"/>
      <point x="159" y="13" type="line" smooth="yes"/>
      <point x="126" y="13"/>
      <point x="107" y="33"/>
      <point x="107" y="64" type="curve" smooth="yes"/>
      <point x="107" y="936" type="line" smooth="yes"/>
      <point x="107" y="967"/>
      <point x="126" y="987"/>
      <point x="159" y="987" type="curve" smooth="yes"/>
      <point x="841" y="987" type="line" smooth="yes"/>
      <point x="874" y="987"/>
      <point x="893" y="967"/>
      <point x="893" y="936" type="curve" smooth="yes"/>
    </contour>
    <contour>
      <point x="890" y="64" type="curve" smooth="yes"/>
      <point x="890" y="936" type="line" smooth="yes"/>
      <point x="890" y="966"/>
      <point x="872" y="984"/>
      <point x="841" y="984" type="curve" smooth="yes"/>
      <point x="159" y="984" type="line" smooth="yes"/>
      <point x="128" y="984"/>
      <point x="110" y="966"/>
      <point x="110" y="936" type="curve" smooth="yes"/>
      <point x="110" y="64" type="line" smooth="yes"/>
      <point x="110" y="34"/>
      <point x="128" y="16"/>
      <point x="159" y="16" type="curve" smooth="yes"/>
      <point x="841" y="16" type="line" smooth="yes"/>
      <point x="872" y="16"/>
      <point x="890" y="34"/>
    </contour>
    <contour>
      <point x="871" y="64" type="line" smooth="yes"/>
      <point x="871" y="46"/>
      <point x="859" y="35"/>
      <point x="841" y="35" type="curve" smooth="yes"/>
      <point x="159" y="35" type="line" smooth="yes"/>
      <point x="141" y="35"/>
      <point x="129" y="46"/>
      <point x="129" y="64" type="curve" smooth="yes"/>
      <point x="129" y="936" type="line" smooth="yes"/>
      <point x="129" y="954"/>
      <point x="141" y="965"/>
      <point x="159" y="965" type="curve" smooth="yes"/>
      <point x="841" y="965" type="line" smooth="yes"/>
      <point x="859" y="965"/>
      <point x="871" y="954"/>
      <point x="871" y="936" type="curve" smooth="yes"/>
    </contour>
    <contour>
      <point x="851" y="64" type="curve" smooth="yes"/>
      <point x="851" y="936" type="line" smooth="yes"/>
      <point x="851" y="942"/>
      <point x="847" y="945"/>
      <point x="841" y="945" type="curve" smooth="yes"/>
      <point x="159" y="945" type="line" smooth="yes"/>
      <point x="153" y="945"/>
      <point x="149" y="942"/>
      <point x="149" y="936" type="curve" smooth="yes"/>
      <point x="149" y="64" type="line" smooth="yes"/>
      <point x="149" y="58"/>
      <point x="153" y="55"/>
      <point x="159" y="55" type="curve" smooth="yes"/>
      <point x="841" y="55" type="line" smooth="yes"/>
      <point x="847" y="55"/>
      <point x="851" y="58"/>
    </contour>
    <contour>
      <point x="828" y="778" type="curve" smooth="yes"/>
      <point x="828" y="736"/>
      <point x="814" y="707"/>
      <point x="784" y="707" type="curve" smooth="yes"/>
      <point x="750" y="707" type="line"/>
      <point x="750" y="847" type="line"/>
      <point x="784" y="847" type="line" smooth="yes"/>
      <point x="815" y="847"/>
      <point x="828" y="818"/>
    </contour>
    <contour>
      <point x="730" y="707" type="line"/>
      <point x="662" y="707" type="line"/>
      <point x="662" y="847" type="line"/>
      <point x="728" y="847" type="line"/>
      <point x="728" y="827" type="line"/>
      <point x="681" y="827" type="line"/>
      <point x="681" y="790" type="line"/>
      <point x="712" y="790" type="line"/>
      <point x="712" y="771" type="line"/>
      <point x="681" y="771" type="line"/>
      <point x="681" y="726" type="line"/>
      <point x="730" y="726" type="line"/>
    </contour>
    <contour>
      <point x="645" y="740" type="line"/>
      <point x="641" y="719"/>
      <point x="631" y="705"/>
      <point x="608" y="705" type="curve" smooth="yes"/>
      <point x="578" y="705"/>
      <point x="567" y="737"/>
      <point x="567" y="777" type="curve" smooth="yes"/>
      <point x="567" y="817"/>
      <point x="579" y="849"/>
      <point x="609" y="849" type="curve" smooth="yes"/>
      <point x="632" y="849"/>
      <point x="642" y="835"/>
      <point x="645" y="815" type="curve"/>
      <point x="625" y="810" type="line"/>
      <point x="623" y="822"/>
      <point x="619" y="829"/>
      <point x="608" y="829" type="curve" smooth="yes"/>
      <point x="591" y="829"/>
      <point x="587" y="802"/>
      <point x="587" y="777" type="curve" smooth="yes"/>
      <point x="587" y="751"/>
      <point x="592" y="724"/>
      <point x="609" y="724" type="curve" smooth="yes"/>
      <point x="619" y="724"/>
      <point x="623" y="731"/>
      <point x="627" y="746" type="curve"/>
    </contour>
    <contour>
      <point x="451" y="778" type="curve" smooth="yes"/>
      <point x="451" y="736"/>
      <point x="437" y="707"/>
      <point x="407" y="707" type="curve" smooth="yes"/>
      <point x="373" y="707" type="line"/>
      <point x="373" y="847" type="line"/>
      <point x="407" y="847" type="line" smooth="yes"/>
      <point x="438" y="847"/>
      <point x="451" y="818"/>
    </contour>
    <contour>
      <point x="348" y="707" type="line"/>
      <point x="280" y="707" type="line"/>
      <point x="280" y="847" type="line"/>
      <point x="346" y="847" type="line"/>
      <point x="346" y="827" type="line"/>
      <point x="299" y="827" type="line"/>
      <point x="299" y="790" type="line"/>
      <point x="330" y="790" type="line"/>
      <point x="330" y="771" type="line"/>
      <point x="299" y="771" type="line"/>
      <point x="299" y="726" type="line"/>
      <point x="348" y="726" type="line"/>
    </contour>
    <contour>
      <point x="256" y="707" type="line"/>
      <point x="233" y="707" type="line"/>
      <point x="212" y="768" type="line"/>
      <point x="197" y="768" type="line"/>
      <point x="197" y="707" type="line"/>
      <point x="177" y="707" type="line"/>
      <point x="177" y="847" type="line"/>
      <point x="216" y="847" type="line" smooth="yes"/>
      <point x="237" y="847"/>
      <point x="255" y="836"/>
      <point x="255" y="808" type="curve" smooth="yes"/>
      <point x="255" y="788"/>
      <point x="247" y="776"/>
      <point x="233" y="771" type="curve"/>
    </contour>
    <contour>
      <point x="549" y="749" type="line" smooth="yes"/>
      <point x="549" y="722"/>
      <point x="534" y="705"/>
      <point x="510" y="705" type="curve" smooth="yes"/>
      <point x="487" y="705"/>
      <point x="471" y="722"/>
      <point x="471" y="748" type="curve" smooth="yes"/>
      <point x="471" y="847" type="line"/>
      <point x="490" y="847" type="line"/>
      <point x="490" y="748" type="line" smooth="yes"/>
      <point x="490" y="737"/>
      <point x="495" y="725"/>
      <point x="510" y="725" type="curve" smooth="yes"/>
      <point x="525" y="725"/>
      <point x="530" y="737"/>
      <point x="530" y="748" type="curve" smooth="yes"/>
      <point x="530" y="847" type="line"/>
      <point x="549" y="847" type="line"/>
    </contour>
    <contour>
      <point x="758" y="510" type="curve" smooth="yes"/>
      <point x="758" y="460"/>
      <point x="740" y="425"/>
      <point x="705" y="425" type="curve" smooth="yes"/>
      <point x="664" y="425" type="line"/>
      <point x="664" y="593" type="line"/>
      <point x="705" y="593" type="line" smooth="yes"/>
      <point x="742" y="593"/>
      <point x="758" y="558"/>
    </contour>
    <contour>
      <point x="431" y="544" type="curve" smooth="yes"/>
      <point x="431" y="510"/>
      <point x="408" y="493"/>
      <point x="383" y="493" type="curve" smooth="yes"/>
      <point x="361" y="493" type="line"/>
      <point x="361" y="425" type="line"/>
      <point x="337" y="425" type="line"/>
      <point x="337" y="593" type="line"/>
      <point x="384" y="593" type="line" smooth="yes"/>
      <point x="407" y="593"/>
      <point x="431" y="578"/>
    </contour>
    <contour>
      <point x="318" y="469" type="curve" smooth="yes"/>
      <point x="318" y="442"/>
      <point x="302" y="423"/>
      <point x="272" y="423" type="curve" smooth="yes"/>
      <point x="251" y="423"/>
      <point x="237" y="434"/>
      <point x="228" y="450" type="curve"/>
      <point x="246" y="465" type="line"/>
      <point x="255" y="451"/>
      <point x="263" y="446"/>
      <point x="273" y="446" type="curve" smooth="yes"/>
      <point x="286" y="446"/>
      <point x="294" y="454"/>
      <point x="294" y="468" type="curve" smooth="yes"/>
      <point x="294" y="481"/>
      <point x="288" y="488"/>
      <point x="266" y="503" type="curve" smooth="yes"/>
      <point x="247" y="515"/>
      <point x="232" y="528"/>
      <point x="232" y="554" type="curve" smooth="yes"/>
      <point x="232" y="578"/>
      <point x="248" y="596"/>
      <point x="274" y="596" type="curve" smooth="yes"/>
      <point x="294" y="596"/>
      <point x="305" y="588"/>
      <point x="315" y="573" type="curve"/>
      <point x="298" y="558" type="line"/>
      <point x="290" y="569"/>
      <point x="284" y="572"/>
      <point x="273" y="572" type="curve" smooth="yes"/>
      <point x="262" y="572"/>
      <point x="256" y="565"/>
      <point x="256" y="555" type="curve" smooth="yes"/>
      <point x="256" y="542"/>
      <point x="262" y="535"/>
      <point x="280" y="523" type="curve" smooth="yes"/>
      <point x="301" y="510"/>
      <point x="318" y="497"/>
    </contour>
    <contour>
      <point x="638" y="424" type="line"/>
      <point x="556" y="424" type="line"/>
      <point x="556" y="592" type="line"/>
      <point x="635" y="592" type="line"/>
      <point x="635" y="569" type="line"/>
      <point x="580" y="569" type="line"/>
      <point x="580" y="525" type="line"/>
      <point x="616" y="525" type="line"/>
      <point x="616" y="502" type="line"/>
      <point x="580" y="502" type="line"/>
      <point x="580" y="447" type="line"/>
      <point x="638" y="447" type="line"/>
    </contour>
    <contour>
      <point x="531" y="424" type="line"/>
      <point x="449" y="424" type="line"/>
      <point x="449" y="592" type="line"/>
      <point x="528" y="592" type="line"/>
      <point x="528" y="569" type="line"/>
      <point x="473" y="569" type="line"/>
      <point x="473" y="525" type="line"/>
      <point x="509" y="525" type="line"/>
      <point x="509" y="502" type="line"/>
      <point x="473" y="502" type="line"/>
      <point x="473" y="447" type="line"/>
      <point x="531" y="447" type="line"/>
    </contour>
    <contour>
      <point x="778" y="239" type="curve" smooth="yes"/>
      <point x="778" y="189"/>
      <point x="760" y="154"/>
      <point x="725" y="154" type="curve" smooth="yes"/>
      <point x="684" y="154" type="line"/>
      <point x="684" y="322" type="line"/>
      <point x="725" y="322" type="line" smooth="yes"/>
      <point x="762" y="322"/>
      <point x="778" y="287"/>
    </contour>
    <contour>
      <point x="664" y="154" type="line"/>
      <point x="638" y="154" type="line"/>
      <point x="628" y="199" type="line"/>
      <point x="592" y="199" type="line"/>
      <point x="582" y="154" type="line"/>
      <point x="557" y="154" type="line"/>
      <point x="598" y="322" type="line"/>
      <point x="623" y="322" type="line"/>
    </contour>
    <contour>
      <point x="539" y="153" type="line"/>
      <point x="457" y="153" type="line"/>
      <point x="457" y="321" type="line"/>
      <point x="536" y="321" type="line"/>
      <point x="536" y="298" type="line"/>
      <point x="481" y="298" type="line"/>
      <point x="481" y="254" type="line"/>
      <point x="517" y="254" type="line"/>
      <point x="517" y="231" type="line"/>
      <point x="481" y="231" type="line"/>
      <point x="481" y="176" type="line"/>
      <point x="539" y="176" type="line"/>
    </contour>
    <contour>
      <point x="430" y="153" type="line"/>
      <point x="407" y="153" type="line"/>
      <point x="407" y="231" type="line"/>
      <point x="359" y="231" type="line"/>
      <point x="359" y="153" type="line"/>
      <point x="336" y="153" type="line"/>
      <point x="336" y="321" type="line"/>
      <point x="359" y="321" type="line"/>
      <point x="359" y="254" type="line"/>
      <point x="407" y="254" type="line"/>
      <point x="407" y="321" type="line"/>
      <point x="430" y="321" type="line"/>
    </contour>
    <contour>
      <point x="315" y="153" type="line"/>
      <point x="289" y="153" type="line"/>
      <point x="279" y="198" type="line"/>
      <point x="243" y="198" type="line"/>
      <point x="233" y="153" type="line"/>
      <point x="208" y="153" type="line"/>
      <point x="249" y="321" type="line"/>
      <point x="274" y="321" type="line"/>
    </contour>
    <contour>
      <point x="235" y="807" type="curve" smooth="yes"/>
      <point x="235" y="822"/>
      <point x="227" y="828"/>
      <point x="215" y="828" type="curve" smooth="yes"/>
      <point x="197" y="828" type="line"/>
      <point x="197" y="787" type="line"/>
      <point x="215" y="787" type="line" smooth="yes"/>
      <point x="227" y="787"/>
      <point x="235" y="793"/>
    </contour>
    <contour>
      <point x="808" y="778" type="curve" smooth="yes"/>
      <point x="808" y="802"/>
      <point x="803" y="828"/>
      <point x="784" y="828" type="curve" smooth="yes"/>
      <point x="770" y="828" type="line"/>
      <point x="770" y="726" type="line"/>
      <point x="784" y="726" type="line" smooth="yes"/>
      <point x="803" y="726"/>
      <point x="808" y="753"/>
    </contour>
    <contour>
      <point x="431" y="778" type="curve" smooth="yes"/>
      <point x="431" y="802"/>
      <point x="426" y="828"/>
      <point x="407" y="828" type="curve" smooth="yes"/>
      <point x="393" y="828" type="line"/>
      <point x="393" y="726" type="line"/>
      <point x="407" y="726" type="line" smooth="yes"/>
      <point x="426" y="726"/>
      <point x="431" y="753"/>
    </contour>
    <contour>
      <point x="407" y="543" type="curve" smooth="yes"/>
      <point x="407" y="562"/>
      <point x="396" y="570"/>
      <point x="383" y="570" type="curve" smooth="yes"/>
      <point x="361" y="570" type="line"/>
      <point x="361" y="516" type="line"/>
      <point x="383" y="516" type="line" smooth="yes"/>
      <point x="397" y="516"/>
      <point x="407" y="525"/>
    </contour>
    <contour>
      <point x="734" y="510" type="curve" smooth="yes"/>
      <point x="734" y="539"/>
      <point x="727" y="570"/>
      <point x="705" y="570" type="curve" smooth="yes"/>
      <point x="687" y="570" type="line"/>
      <point x="687" y="448" type="line"/>
      <point x="705" y="448" type="line" smooth="yes"/>
      <point x="727" y="448"/>
      <point x="734" y="480"/>
    </contour>
    <contour>
      <point x="623" y="221" type="line"/>
      <point x="610" y="287" type="line"/>
      <point x="597" y="221" type="line"/>
    </contour>
    <contour>
      <point x="274" y="220" type="line"/>
      <point x="261" y="286" type="line"/>
      <point x="248" y="220" type="line"/>
    </contour>
    <contour>
      <point x="754" y="239" type="curve" smooth="yes"/>
      <point x="754" y="268"/>
      <point x="747" y="299"/>
      <point x="725" y="299" type="curve" smooth="yes"/>
      <point x="707" y="299" type="line"/>
      <point x="707" y="177" type="line"/>
      <point x="725" y="177" type="line" smooth="yes"/>
      <point x="747" y="177"/>
      <point x="754" y="209"/>
    </contour>
  </outline>
</glyph>
<glyph name="five" format="1">
  <advance width="1000"/>
  <unicode hex="0035"/>
  <outline>
    <contour>
      <point x="893" y="64" type="line" smooth="yes"/>
      <point x="893" y="33"/>
      <point x="874" y="13"/>
      <point x="841" y="13" type="curve" smooth="yes"/>
      <point x="159" y="13" type="line" smooth="yes"/>
      <point x="126" y="13"/>
      <point x="107" y="33"/>
      <point x="107" y="64" type="curve" smooth="yes"/>
      <point x="107" y="936" type="line" smooth="yes"/>
      <point x="107" y="967"/>
      <point x="126" y="987"/>
      <point x="159" y="987" type="curve" smooth="yes"/>
      <point x="841" y="987" type="line" smooth="yes"/>
      <point x="874" y="987"/>
      <point x="893" y="967"/>
      <point x="893" y="936" type="curve" smooth="yes"/>
    </contour>
    <contour>
      <point x="890" y="64" type="curve" smooth="yes"/>
      <point x="890" y="936" type="line" smooth="yes"/>
      <point x="890" y="966"/>
      <point x="872" y="984"/>
      <point x="841" y="984" type="curve" smooth="yes"/>
      <point x="159" y="984" type="line" smooth="yes"/>
      <point x="128" y="984"/>
      <point x="110" y="966"/>
      <point x="110" y="936" type="curve" smooth="yes"/>
      <point x="110" y="64" type="line" smooth="yes"/>
      <point x="110" y="34"/>
      <point x="128" y="16"/>
      <point x="159" y="16" type="curve" smooth="yes"/>
      <point x="841" y="16" type="line" smooth="yes"/>
      <point x="872" y="16"/>
      <point x="890" y="34"/>
    </contour>
    <contour>
      <point x="871" y="64" type="line" smooth="yes"/>
      <point x="871" y="46"/>
      <point x="859" y="35"/>
      <point x="841" y="35" type="curve" smooth="yes"/>
      <point x="159" y="35" type="line" smooth="yes"/>
      <point x="141" y="35"/>
      <point x="129" y="46"/>
      <point x="129" y="64" type="curve" smooth="yes"/>
      <point x="129" y="936" type="line" smooth="yes"/>
      <point x="129" y="954"/>
      <point x="141" y="965"/>
      <point x="159" y="965" type="curve" smooth="yes"/>
      <point x="841" y="965" type="line" smooth="yes"/>
      <point x="859" y="965"/>
      <point x="871" y="954"/>
      <point x="871" y="936" type="curve" smooth="yes"/>
    </contour>
    <contour>
      <point x="851" y="64" type="curve" smooth="yes"/>
      <point x="851" y="936" type="line" smooth="yes"/>
      <point x="851" y="942"/>
      <point x="847" y="945"/>
      <point x="841" y="945" type="curve" smooth="yes"/>
      <point x="159" y="945" type="line" smooth="yes"/>
      <point x="153" y="945"/>
      <point x="149" y="942"/>
      <point x="149" y="936" type="curve" smooth="yes"/>
      <point x="149" y="64" type="line" smooth="yes"/>
      <point x="149" y="58"/>
      <point x="153" y="55"/>
      <point x="159" y="55" type="curve" smooth="yes"/>
      <point x="841" y="55" type="line" smooth="yes"/>
      <point x="847" y="55"/>
      <point x="851" y="58"/>
    </contour>
    <contour>
      <point x="794" y="786" type="curve" smooth="yes"/>
      <point x="794" y="742"/>
      <point x="766" y="723"/>
      <point x="733" y="723" type="curve" smooth="yes"/>
      <point x="698" y="723" type="line"/>
      <point x="698" y="849" type="line"/>
      <point x="733" y="849" type="line" smooth="yes"/>
      <point x="766" y="849"/>
      <point x="794" y="830"/>
    </contour>
    <contour>
      <point x="661" y="723" type="line"/>
      <point x="577" y="723" type="line"/>
      <point x="577" y="849" type="line"/>
      <point x="658" y="849" type="line"/>
      <point x="658" y="830" type="line"/>
      <point x="596" y="830" type="line"/>
      <point x="596" y="799" type="line"/>
      <point x="632" y="799" type="line"/>
      <point x="632" y="781" type="line"/>
      <point x="596" y="781" type="line"/>
      <point x="596" y="741" type="line"/>
      <point x="661" y="741" type="line"/>
    </contour>
    <contour>
      <point x="538" y="723" type="line"/>
      <point x="454" y="723" type="line"/>
      <point x="454" y="849" type="line"/>
      <point x="535" y="849" type="line"/>
      <point x="535" y="830" type="line"/>
      <point x="473" y="830" type="line"/>
      <point x="473" y="799" type="line"/>
      <point x="509" y="799" type="line"/>
      <point x="509" y="781" type="line"/>
      <point x="473" y="781" type="line"/>
      <point x="473" y="741" type="line"/>
      <point x="538" y="741" type="line"/>
    </contour>
    <contour>
      <point x="423" y="810" type="curve" smooth="yes"/>
      <point x="423" y="784"/>
      <point x="405" y="770"/>
      <point x="381" y="770" type="curve" smooth="yes"/>
      <point x="348" y="770" type="line"/>
      <point x="348" y="723" type="line"/>
      <point x="329" y="723" type="line"/>
      <point x="329" y="849" type="line"/>
      <point x="382" y="849" type="line" smooth="yes"/>
      <point x="404" y="849"/>
      <point x="423" y="835"/>
    </contour>
    <contour>
      <point x="294" y="759" type="curve" smooth="yes"/>
      <point x="294" y="736"/>
      <point x="279" y="721"/>
      <point x="247" y="721" type="curve" smooth="yes"/>
      <point x="229" y="721"/>
      <point x="213" y="729"/>
      <point x="202" y="741" type="curve"/>
      <point x="216" y="754" type="line"/>
      <point x="224" y="745"/>
      <point x="236" y="739"/>
      <point x="248" y="739" type="curve" smooth="yes"/>
      <point x="266" y="739"/>
      <point x="274" y="746"/>
      <point x="274" y="758" type="curve" smooth="yes"/>
      <point x="274" y="768"/>
      <point x="267" y="772"/>
      <point x="246" y="779" type="curve" smooth="yes"/>
      <point x="219" y="787"/>
      <point x="207" y="793"/>
      <point x="207" y="816" type="curve" smooth="yes"/>
      <point x="207" y="838"/>
      <point x="225" y="851"/>
      <point x="248" y="851" type="curve" smooth="yes"/>
      <point x="265" y="851"/>
      <point x="278" y="845"/>
      <point x="289" y="834" type="curve"/>
      <point x="276" y="820" type="line"/>
      <point x="268" y="828"/>
      <point x="259" y="832"/>
      <point x="247" y="832" type="curve" smooth="yes"/>
      <point x="232" y="832"/>
      <point x="226" y="825"/>
      <point x="226" y="817" type="curve" smooth="yes"/>
      <point x="226" y="808"/>
      <point x="231" y="804"/>
      <point x="253" y="797" type="curve" smooth="yes"/>
      <point x="278" y="790"/>
      <point x="294" y="782"/>
    </contour>
    <contour>
      <point x="733" y="637" type="line"/>
      <point x="697" y="637" type="line"/>
      <point x="697" y="530" type="line"/>
      <point x="678" y="530" type="line"/>
      <point x="678" y="637" type="line"/>
      <point x="641" y="637" type="line"/>
      <point x="641" y="656" type="line"/>
      <point x="733" y="656" type="line"/>
    </contour>
    <contour>
      <point x="611" y="530" type="line"/>
      <point x="592" y="530" type="line"/>
      <point x="592" y="656" type="line"/>
      <point x="611" y="656" type="line"/>
    </contour>
    <contour>
      <point x="404" y="530" type="line"/>
      <point x="385" y="530" type="line"/>
      <point x="385" y="656" type="line"/>
      <point x="404" y="656" type="line"/>
    </contour>
    <contour>
      <point x="354" y="530" type="line"/>
      <point x="273" y="530" type="line"/>
      <point x="273" y="656" type="line"/>
      <point x="291" y="656" type="line"/>
      <point x="291" y="548" type="line"/>
      <point x="354" y="548" type="line"/>
    </contour>
    <contour>
      <point x="555" y="530" type="line"/>
      <point x="537" y="530" type="line"/>
      <point x="537" y="619" type="line"/>
      <point x="499" y="528" type="line"/>
      <point x="461" y="619" type="line"/>
      <point x="461" y="530" type="line"/>
      <point x="443" y="530" type="line"/>
      <point x="443" y="656" type="line"/>
      <point x="462" y="656" type="line"/>
      <point x="499" y="570" type="line"/>
      <point x="536" y="656" type="line"/>
      <point x="555" y="656" type="line"/>
    </contour>
    <contour>
      <point x="796" y="304" type="curve" smooth="yes"/>
      <point x="796" y="206"/>
      <point x="748" y="137"/>
      <point x="660" y="137" type="curve" smooth="yes"/>
      <point x="572" y="137"/>
      <point x="525" y="205"/>
      <point x="525" y="303" type="curve" smooth="yes"/>
      <point x="525" y="401"/>
      <point x="573" y="469"/>
      <point x="660" y="469" type="curve" smooth="yes"/>
      <point x="748" y="469"/>
      <point x="796" y="402"/>
    </contour>
    <contour>
      <point x="469" y="254" type="curve" smooth="yes"/>
      <point x="469" y="178"/>
      <point x="414" y="137"/>
      <point x="334" y="137" type="curve" smooth="yes"/>
      <point x="288" y="137"/>
      <point x="249" y="146"/>
      <point x="209" y="172" type="curve"/>
      <point x="240" y="226" type="line"/>
      <point x="270" y="209"/>
      <point x="302" y="199"/>
      <point x="334" y="199" type="curve" smooth="yes"/>
      <point x="379" y="199"/>
      <point x="404" y="214"/>
      <point x="404" y="252" type="curve" smooth="yes"/>
      <point x="404" y="284"/>
      <point x="379" y="299"/>
      <point x="349" y="299" type="curve" smooth="yes"/>
      <point x="318" y="299"/>
      <point x="300" y="291"/>
      <point x="285" y="281" type="curve"/>
      <point x="224" y="303" type="line"/>
      <point x="235" y="464" type="line"/>
      <point x="449" y="464" type="line"/>
      <point x="449" y="402" type="line"/>
      <point x="294" y="402" type="line"/>
      <point x="291" y="347" type="line"/>
      <point x="306" y="357"/>
      <point x="331" y="361"/>
      <point x="356" y="361" type="curve" smooth="yes"/>
      <point x="433" y="361"/>
      <point x="469" y="312"/>
    </contour>
    <contour>
      <point x="403" y="810" type="curve" smooth="yes"/>
      <point x="403" y="823"/>
      <point x="395" y="831"/>
      <point x="382" y="831" type="curve" smooth="yes"/>
      <point x="348" y="831" type="line"/>
      <point x="348" y="788" type="line"/>
      <point x="382" y="788" type="line" smooth="yes"/>
      <point x="396" y="788"/>
      <point x="403" y="796"/>
    </contour>
    <contour>
      <point x="775" y="786" type="curve" smooth="yes"/>
      <point x="775" y="812"/>
      <point x="763" y="830"/>
      <point x="733" y="830" type="curve" smooth="yes"/>
      <point x="717" y="830" type="line"/>
      <point x="717" y="742" type="line"/>
      <point x="733" y="742" type="line" smooth="yes"/>
      <point x="763" y="742"/>
      <point x="775" y="760"/>
    </contour>
    <contour>
      <point x="730" y="303" type="curve" smooth="yes"/>
      <point x="730" y="360"/>
      <point x="709" y="406"/>
      <point x="660" y="406" type="curve" smooth="yes"/>
      <point x="611" y="406"/>
      <point x="591" y="361"/>
      <point x="591" y="304" type="curve" smooth="yes"/>
      <point x="591" y="246"/>
      <point x="611" y="200"/>
      <point x="660" y="200" type="curve" smooth="yes"/>
      <point x="710" y="200"/>
      <point x="730" y="246"/>
    </contour>
  </outline>
</glyph>
<glyph name="seven" format="1">
  <advance width="1000"/>
  <unicode hex="0037"/>
  <outline>
    <contour>
      <point x="893" y="103" type="line" smooth="yes"/>
      <point x="893" y="36"/>
      <point x="870" y="13"/>
      <point x="803" y="13" type="curve" smooth="yes"/>
      <point x="197" y="13" type="line" smooth="yes"/>
      <point x="130" y="13"/>
      <point x="107" y="36"/>
      <point x="107" y="103" type="curve" smooth="yes"/>
      <point x="107" y="897" type="line" smooth="yes"/>
      <point x="107" y="964"/>
      <point x="130" y="987"/>
      <point x="197" y="987" type="curve" smooth="yes"/>
      <point x="803" y="987" type="line" smooth="yes"/>
      <point x="870" y="987"/>
      <point x="893" y="964"/>
      <point x="893" y="897" type="curve" smooth="yes"/>
    </contour>
    <contour>
      <point x="890" y="103" type="curve" smooth="yes"/>
      <point x="890" y="897" type="line" smooth="yes"/>
      <point x="890" y="962"/>
      <point x="868" y="984"/>
      <point x="803" y="984" type="curve" smooth="yes"/>
      <point x="197" y="984" type="line" smooth="yes"/>
      <point x="132" y="984"/>
      <point x="110" y="962"/>
      <point x="110" y="897" type="curve" smooth="yes"/>
      <point x="110" y="103" type="line" smooth="yes"/>
      <point x="110" y="38"/>
      <point x="132" y="16"/>
      <point x="197" y="16" type="curve" smooth="yes"/>
      <point x="803" y="16" type="line" smooth="yes"/>
      <point x="868" y="16"/>
      <point x="890" y="38"/>
    </contour>
    <contour>
      <point x="871" y="103" type="line" smooth="yes"/>
      <point x="871" y="52"/>
      <point x="854" y="35"/>
      <point x="803" y="35" type="curve" smooth="yes"/>
      <point x="197" y="35" type="line" smooth="yes"/>
      <point x="146" y="35"/>
      <point x="129" y="52"/>
      <point x="129" y="103" type="curve" smooth="yes"/>
      <point x="129" y="897" type="line" smooth="yes"/>
      <point x="129" y="948"/>
      <point x="146" y="965"/>
      <point x="197" y="965" type="curve" smooth="yes"/>
      <point x="803" y="965" type="line" smooth="yes"/>
      <point x="854" y="965"/>
      <point x="871" y="948"/>
      <point x="871" y="897" type="curve" smooth="yes"/>
    </contour>
    <contour>
      <point x="851" y="710" type="curve" smooth="yes"/>
      <point x="851" y="897" type="line" smooth="yes"/>
      <point x="851" y="933"/>
      <point x="839" y="945"/>
      <point x="803" y="945" type="curve" smooth="yes"/>
      <point x="197" y="945" type="line" smooth="yes"/>
      <point x="161" y="945"/>
      <point x="149" y="933"/>
      <point x="149" y="897" type="curve" smooth="yes"/>
      <point x="149" y="710" type="line" smooth="yes"/>
      <point x="149" y="674"/>
      <point x="161" y="662"/>
      <point x="197" y="662" type="curve" smooth="yes"/>
      <point x="803" y="662" type="line" smooth="yes"/>
      <point x="839" y="662"/>
      <point x="851" y="674"/>
    </contour>
    <contour>
      <point x="851" y="103" type="curve" smooth="yes"/>
      <point x="851" y="594" type="line" smooth="yes"/>
      <point x="851" y="630"/>
      <point x="839" y="642"/>
      <point x="803" y="642" type="curve" smooth="yes"/>
      <point x="197" y="642" type="line" smooth="yes"/>
      <point x="161" y="642"/>
      <point x="149" y="630"/>
      <point x="149" y="594" type="curve" smooth="yes"/>
      <point x="149" y="103" type="line" smooth="yes"/>
      <point x="149" y="67"/>
      <point x="161" y="55"/>
      <point x="197" y="55" type="curve" smooth="yes"/>
      <point x="803" y="55" type="line" smooth="yes"/>
      <point x="839" y="55"/>
      <point x="851" y="67"/>
    </contour>
    <contour>
      <point x="715" y="854" type="line"/>
      <point x="676" y="854" type="line"/>
      <point x="676" y="740" type="line"/>
      <point x="656" y="740" type="line"/>
      <point x="656" y="854" type="line"/>
      <point x="617" y="854" type="line"/>
      <point x="617" y="873" type="line"/>
      <point x="715" y="873" type="line"/>
    </contour>
    <contour>
      <point x="582" y="740" type="line"/>
      <point x="562" y="740" type="line"/>
      <point x="562" y="872" type="line"/>
      <point x="582" y="872" type="line"/>
    </contour>
    <contour>
      <point x="526" y="740" type="line"/>
      <point x="502" y="740" type="line"/>
      <point x="473" y="791" type="line"/>
      <point x="444" y="740" type="line"/>
      <point x="420" y="740" type="line"/>
      <point x="461" y="808" type="line"/>
      <point x="423" y="873" type="line"/>
      <point x="446" y="873" type="line"/>
      <point x="473" y="825" type="line"/>
      <point x="500" y="873" type="line"/>
      <point x="524" y="873" type="line"/>
      <point x="485" y="808" type="line"/>
    </contour>
    <contour>
      <point x="387" y="740" type="line"/>
      <point x="299" y="740" type="line"/>
      <point x="299" y="873" type="line"/>
      <point x="384" y="873" type="line"/>
      <point x="384" y="854" type="line"/>
      <point x="319" y="854" type="line"/>
      <point x="319" y="821" type="line"/>
      <point x="357" y="821" type="line"/>
      <point x="357" y="801" type="line"/>
      <point x="319" y="801" type="line"/>
      <point x="319" y="759" type="line"/>
      <point x="387" y="759" type="line"/>
    </contour>
    <contour>
      <point x="441" y="307" type="line"/>
      <point x="249" y="307" type="line"/>
      <point x="250" y="391"/>
      <point x="302" y="427"/>
      <point x="361" y="454" type="curve" smooth="yes"/>
      <point x="382" y="463"/>
      <point x="389" y="472"/>
      <point x="389" y="483" type="curve" smooth="yes"/>
      <point x="389" y="496"/>
      <point x="378" y="508"/>
      <point x="349" y="508" type="curve" smooth="yes"/>
      <point x="320" y="508"/>
      <point x="296" y="495"/>
      <point x="279" y="478" type="curve"/>
      <point x="248" y="515" type="line"/>
      <point x="274" y="541"/>
      <point x="308" y="556"/>
      <point x="347" y="556" type="curve" smooth="yes"/>
      <point x="405" y="556"/>
      <point x="438" y="532"/>
      <point x="438" y="485" type="curve" smooth="yes"/>
      <point x="438" y="446"/>
      <point x="417" y="429"/>
      <point x="375" y="410" type="curve" smooth="yes"/>
      <point x="332" y="390"/>
      <point x="315" y="373"/>
      <point x="310" y="354" type="curve"/>
      <point x="441" y="354" type="line"/>
    </contour>
    <contour>
      <point x="762" y="393" type="curve" smooth="yes"/>
      <point x="762" y="335"/>
      <point x="720" y="304"/>
      <point x="660" y="304" type="curve" smooth="yes"/>
      <point x="625" y="304"/>
      <point x="595" y="311"/>
      <point x="564" y="330" type="curve"/>
      <point x="588" y="372" type="line"/>
      <point x="611" y="359"/>
      <point x="635" y="351"/>
      <point x="660" y="351" type="curve" smooth="yes"/>
      <point x="694" y="351"/>
      <point x="713" y="363"/>
      <point x="713" y="391" type="curve" smooth="yes"/>
      <point x="713" y="416"/>
      <point x="693" y="427"/>
      <point x="671" y="427" type="curve" smooth="yes"/>
      <point x="647" y="427"/>
      <point x="634" y="421"/>
      <point x="622" y="413" type="curve"/>
      <point x="576" y="430" type="line"/>
      <point x="584" y="553" type="line"/>
      <point x="747" y="553" type="line"/>
      <point x="747" y="506" type="line"/>
      <point x="629" y="506" type="line"/>
      <point x="627" y="464" type="line"/>
      <point x="639" y="471"/>
      <point x="657" y="474"/>
      <point x="676" y="474" type="curve" smooth="yes"/>
      <point x="735" y="474"/>
      <point x="762" y="437"/>
    </contour>
    <contour>
      <point x="668" y="116" type="line"/>
      <point x="654" y="116" type="line"/>
      <point x="654" y="160" type="line"/>
      <point x="608" y="160" type="line"/>
      <point x="608" y="116" type="line"/>
      <point x="594" y="116" type="line"/>
      <point x="594" y="214" type="line"/>
      <point x="608" y="214" type="line"/>
      <point x="608" y="175" type="line"/>
      <point x="654" y="175" type="line"/>
      <point x="654" y="214" type="line"/>
      <point x="668" y="214" type="line"/>
    </contour>
    <contour>
      <point x="544" y="183" type="curve" smooth="yes"/>
      <point x="544" y="163"/>
      <point x="531" y="153"/>
      <point x="512" y="153" type="curve" smooth="yes"/>
      <point x="486" y="153" type="line"/>
      <point x="486" y="116" type="line"/>
      <point x="472" y="116" type="line"/>
      <point x="472" y="214" type="line"/>
      <point x="513" y="214" type="line" smooth="yes"/>
      <point x="530" y="214"/>
      <point x="544" y="203"/>
    </contour>
    <contour>
      <point x="414" y="116" type="line"/>
      <point x="400" y="116" type="line"/>
      <point x="400" y="185" type="line"/>
      <point x="370" y="115" type="line"/>
      <point x="340" y="185" type="line"/>
      <point x="340" y="116" type="line"/>
      <point x="326" y="116" type="line"/>
      <point x="326" y="214" type="line"/>
      <point x="342" y="214" type="line"/>
      <point x="370" y="147" type="line"/>
      <point x="398" y="214" type="line"/>
      <point x="414" y="214" type="line"/>
    </contour>
    <contour>
      <point x="704" y="123" type="curve" smooth="yes"/>
      <point x="704" y="117"/>
      <point x="699" y="112"/>
      <point x="693" y="112" type="curve" smooth="yes"/>
      <point x="687" y="112"/>
      <point x="682" y="117"/>
      <point x="682" y="123" type="curve" smooth="yes"/>
      <point x="682" y="129"/>
      <point x="687" y="134"/>
      <point x="693" y="134" type="curve" smooth="yes"/>
      <point x="699" y="134"/>
      <point x="704" y="129"/>
    </contour>
    <contour>
      <point x="559" y="123" type="curve" smooth="yes"/>
      <point x="559" y="117"/>
      <point x="554" y="112"/>
      <point x="548" y="112" type="curve" smooth="yes"/>
      <point x="542" y="112"/>
      <point x="537" y="117"/>
      <point x="537" y="123" type="curve" smooth="yes"/>
      <point x="537" y="129"/>
      <point x="542" y="134"/>
      <point x="548" y="134" type="curve" smooth="yes"/>
      <point x="554" y="134"/>
      <point x="559" y="129"/>
    </contour>
    <contour>
      <point x="448" y="123" type="curve" smooth="yes"/>
      <point x="448" y="117"/>
      <point x="443" y="112"/>
      <point x="437" y="112" type="curve" smooth="yes"/>
      <point x="431" y="112"/>
      <point x="426" y="117"/>
      <point x="426" y="123" type="curve" smooth="yes"/>
      <point x="426" y="129"/>
      <point x="431" y="134"/>
      <point x="437" y="134" type="curve" smooth="yes"/>
      <point x="443" y="134"/>
      <point x="448" y="129"/>
    </contour>
    <contour>
      <point x="529" y="183" type="curve" smooth="yes"/>
      <point x="529" y="194"/>
      <point x="523" y="200"/>
      <point x="512" y="200" type="curve" smooth="yes"/>
      <point x="486" y="200" type="line"/>
      <point x="486" y="167" type="line"/>
      <point x="512" y="167" type="line" smooth="yes"/>
      <point x="524" y="167"/>
      <point x="529" y="173"/>
    </contour>
  </outline>
</glyph>
<glyph name="eight" format="1">
  <advance width="1000"/>
  <unicode hex="0038"/>
  <outline>
    <contour>
      <point x="893" y="103" type="line" smooth="yes"/>
      <point x="893" y="36"/>
      <point x="870" y="13"/>
      <point x="803" y="13" type="curve" smooth="yes"/>
      <point x="197" y="13" type="line" smooth="yes"/>
      <point x="130" y="13"/>
      <point x="107" y="36"/>
      <point x="107" y="103" type="curve" smooth="yes"/>
      <point x="107" y="897" type="line" smooth="yes"/>
      <point x="107" y="964"/>
      <point x="130" y="987"/>
      <point x="197" y="987" type="curve" smooth="yes"/>
      <point x="803" y="987" type="line" smooth="yes"/>
      <point x="870" y="987"/>
      <point x="893" y="964"/>
      <point x="893" y="897" type="curve" smooth="yes"/>
    </contour>
    <contour>
      <point x="890" y="103" type="curve" smooth="yes"/>
      <point x="890" y="897" type="line" smooth="yes"/>
      <point x="890" y="962"/>
      <point x="868" y="984"/>
      <point x="803" y="984" type="curve" smooth="yes"/>
      <point x="197" y="984" type="line" smooth="yes"/>
      <point x="132" y="984"/>
      <point x="110" y="962"/>
      <point x="110" y="897" type="curve" smooth="yes"/>
      <point x="110" y="103" type="line" smooth="yes"/>
      <point x="110" y="38"/>
      <point x="132" y="16"/>
      <point x="197" y="16" type="curve" smooth="yes"/>
      <point x="803" y="16" type="line" smooth="yes"/>
      <point x="868" y="16"/>
      <point x="890" y="38"/>
    </contour>
    <contour>
      <point x="871" y="103" type="line" smooth="yes"/>
      <point x="871" y="52"/>
      <point x="854" y="35"/>
      <point x="803" y="35" type="curve" smooth="yes"/>
      <point x="197" y="35" type="line" smooth="yes"/>
      <point x="146" y="35"/>
      <point x="129" y="52"/>
      <point x="129" y="103" type="curve" smooth="yes"/>
      <point x="129" y="897" type="line" smooth="yes"/>
      <point x="129" y="948"/>
      <point x="146" y="965"/>
      <point x="197" y="965" type="curve" smooth="yes"/>
      <point x="803" y="965" type="line" smooth="yes"/>
      <point x="854" y="965"/>
      <point x="871" y="948"/>
      <point x="871" y="897" type="curve" smooth="yes"/>
    </contour>
    <contour>
      <point x="851" y="710" type="curve" smooth="yes"/>
      <point x="851" y="897" type="line" smooth="yes"/>
      <point x="851" y="933"/>
      <point x="839" y="945"/>
      <point x="803" y="945" type="curve" smooth="yes"/>
      <point x="197" y="945" type="line" smooth="yes"/>
      <point x="161" y="945"/>
      <point x="149" y="933"/>
      <point x="149" y="897" type="curve" smooth="yes"/>
      <point x="149" y="710" type="line" smooth="yes"/>
      <point x="149" y="674"/>
      <point x="161" y="662"/>
      <point x="197" y="662" type="curve" smooth="yes"/>
      <point x="803" y="662" type="line" smooth="yes"/>
      <point x="839" y="662"/>
      <point x="851" y="674"/>
    </contour>
    <contour>
      <point x="851" y="103" type="curve" smooth="yes"/>
      <point x="851" y="594" type="line" smooth="yes"/>
      <point x="851" y="630"/>
      <point x="839" y="642"/>
      <point x="803" y="642" type="curve" smooth="yes"/>
      <point x="197" y="642" type="line" smooth="yes"/>
      <point x="161" y="642"/>
      <point x="149" y="630"/>
      <point x="149" y="594" type="curve" smooth="yes"/>
      <point x="149" y="103" type="line" smooth="yes"/>
      <point x="149" y="67"/>
      <point x="161" y="55"/>
      <point x="197" y="55" type="curve" smooth="yes"/>
      <point x="803" y="55" type="line" smooth="yes"/>
      <point x="839" y="55"/>
      <point x="851" y="67"/>
    </contour>
    <contour>
      <point x="774" y="831" type="curve" smooth="yes"/>
      <point x="774" y="804"/>
      <point x="755" y="790"/>
      <point x="730" y="790" type="curve" smooth="yes"/>
      <point x="695" y="790" type="line"/>
      <point x="695" y="740" type="line"/>
      <point x="675" y="740" type="line"/>
      <point x="675" y="873" type="line"/>
      <point x="731" y="873" type="line" smooth="yes"/>
      <point x="754" y="873"/>
      <point x="774" y="859"/>
    </contour>
    <contour>
      <point x="640" y="740" type="line"/>
      <point x="621" y="740" type="line"/>
      <point x="621" y="834" type="line"/>
      <point x="581" y="738" type="line"/>
      <point x="541" y="834" type="line"/>
      <point x="541" y="740" type="line"/>
      <point x="522" y="740" type="line"/>
      <point x="522" y="873" type="line"/>
      <point x="542" y="873" type="line"/>
      <point x="581" y="781" type="line"/>
      <point x="620" y="873" type="line"/>
      <point x="640" y="873" type="line"/>
    </contour>
    <contour>
      <point x="488" y="740" type="line"/>
      <point x="466" y="740" type="line"/>
      <point x="455" y="771" type="line"/>
      <point x="403" y="771" type="line"/>
      <point x="392" y="740" type="line"/>
      <point x="371" y="740" type="line"/>
      <point x="419" y="873" type="line"/>
      <point x="440" y="873" type="line"/>
    </contour>
    <contour>
      <point x="339" y="833" type="curve" smooth="yes"/>
      <point x="339" y="812"/>
      <point x="328" y="799"/>
      <point x="310" y="794" type="curve"/>
      <point x="337" y="740" type="line"/>
      <point x="314" y="740" type="line"/>
      <point x="288" y="792" type="line"/>
      <point x="258" y="792" type="line"/>
      <point x="258" y="740" type="line"/>
      <point x="238" y="740" type="line"/>
      <point x="238" y="873" type="line"/>
      <point x="297" y="873" type="line" smooth="yes"/>
      <point x="320" y="873"/>
      <point x="339" y="860"/>
    </contour>
    <contour>
      <point x="774" y="431" type="curve" smooth="yes"/>
      <point x="774" y="354"/>
      <point x="737" y="300"/>
      <point x="668" y="300" type="curve" smooth="yes"/>
      <point x="599" y="300"/>
      <point x="563" y="353"/>
      <point x="563" y="430" type="curve" smooth="yes"/>
      <point x="563" y="507"/>
      <point x="600" y="560"/>
      <point x="668" y="560" type="curve" smooth="yes"/>
      <point x="737" y="560"/>
      <point x="774" y="507"/>
    </contour>
    <contour>
      <point x="443" y="383" type="curve" smooth="yes"/>
      <point x="443" y="328"/>
      <point x="402" y="300"/>
      <point x="339" y="300" type="curve" smooth="yes"/>
      <point x="301" y="300"/>
      <point x="267" y="315"/>
      <point x="239" y="349" type="curve"/>
      <point x="277" y="380" type="line"/>
      <point x="298" y="358"/>
      <point x="318" y="350"/>
      <point x="344" y="350" type="curve" smooth="yes"/>
      <point x="377" y="350"/>
      <point x="392" y="362"/>
      <point x="392" y="382" type="curve" smooth="yes"/>
      <point x="392" y="401"/>
      <point x="379" y="411"/>
      <point x="355" y="411" type="curve" smooth="yes"/>
      <point x="325" y="411" type="line"/>
      <point x="325" y="460" type="line"/>
      <point x="352" y="460" type="line" smooth="yes"/>
      <point x="373" y="460"/>
      <point x="382" y="469"/>
      <point x="382" y="485" type="curve" smooth="yes"/>
      <point x="382" y="498"/>
      <point x="371" y="511"/>
      <point x="340" y="511" type="curve" smooth="yes"/>
      <point x="320" y="511"/>
      <point x="304" y="504"/>
      <point x="290" y="490" type="curve"/>
      <point x="254" y="523" type="line"/>
      <point x="278" y="548"/>
      <point x="303" y="560"/>
      <point x="340" y="560" type="curve" smooth="yes"/>
      <point x="392" y="560"/>
      <point x="433" y="537"/>
      <point x="433" y="489" type="curve" smooth="yes"/>
      <point x="433" y="462"/>
      <point x="419" y="445"/>
      <point x="404" y="438" type="curve"/>
      <point x="420" y="431"/>
      <point x="443" y="416"/>
    </contour>
    <contour>
      <point x="668" y="116" type="line"/>
      <point x="654" y="116" type="line"/>
      <point x="654" y="160" type="line"/>
      <point x="608" y="160" type="line"/>
      <point x="608" y="116" type="line"/>
      <point x="594" y="116" type="line"/>
      <point x="594" y="214" type="line"/>
      <point x="608" y="214" type="line"/>
      <point x="608" y="175" type="line"/>
      <point x="654" y="175" type="line"/>
      <point x="654" y="214" type="line"/>
      <point x="668" y="214" type="line"/>
    </contour>
    <contour>
      <point x="544" y="183" type="curve" smooth="yes"/>
      <point x="544" y="163"/>
      <point x="531" y="153"/>
      <point x="512" y="153" type="curve" smooth="yes"/>
      <point x="486" y="153" type="line"/>
      <point x="486" y="116" type="line"/>
      <point x="472" y="116" type="line"/>
      <point x="472" y="214" type="line"/>
      <point x="513" y="214" type="line" smooth="yes"/>
      <point x="530" y="214"/>
      <point x="544" y="203"/>
    </contour>
    <contour>
      <point x="414" y="116" type="line"/>
      <point x="400" y="116" type="line"/>
      <point x="400" y="185" type="line"/>
      <point x="370" y="115" type="line"/>
      <point x="340" y="185" type="line"/>
      <point x="340" y="116" type="line"/>
      <point x="326" y="116" type="line"/>
      <point x="326" y="214" type="line"/>
      <point x="342" y="214" type="line"/>
      <point x="370" y="147" type="line"/>
      <point x="398" y="214" type="line"/>
      <point x="414" y="214" type="line"/>
    </contour>
    <contour>
      <point x="704" y="123" type="curve" smooth="yes"/>
      <point x="704" y="117"/>
      <point x="699" y="112"/>
      <point x="693" y="112" type="curve" smooth="yes"/>
      <point x="687" y="112"/>
      <point x="682" y="117"/>
      <point x="682" y="123" type="curve" smooth="yes"/>
      <point x="682" y="129"/>
      <point x="687" y="134"/>
      <point x="693" y="134" type="curve" smooth="yes"/>
      <point x="699" y="134"/>
      <point x="704" y="129"/>
    </contour>
    <contour>
      <point x="559" y="123" type="curve" smooth="yes"/>
      <point x="559" y="117"/>
      <point x="554" y="112"/>
      <point x="548" y="112" type="curve" smooth="yes"/>
      <point x="542" y="112"/>
      <point x="537" y="117"/>
      <point x="537" y="123" type="curve" smooth="yes"/>
      <point x="537" y="129"/>
      <point x="542" y="134"/>
      <point x="548" y="134" type="curve" smooth="yes"/>
      <point x="554" y="134"/>
      <point x="559" y="129"/>
    </contour>
    <contour>
      <point x="448" y="123" type="curve" smooth="yes"/>
      <point x="448" y="117"/>
      <point x="443" y="112"/>
      <point x="437" y="112" type="curve" smooth="yes"/>
      <point x="431" y="112"/>
      <point x="426" y="117"/>
      <point x="426" y="123" type="curve" smooth="yes"/>
      <point x="426" y="129"/>
      <point x="431" y="134"/>
      <point x="437" y="134" type="curve" smooth="yes"/>
      <point x="443" y="134"/>
      <point x="448" y="129"/>
    </contour>
    <contour>
      <point x="319" y="832" type="curve" smooth="yes"/>
      <point x="319" y="846"/>
      <point x="310" y="854"/>
      <point x="297" y="854" type="curve" smooth="yes"/>
      <point x="258" y="854" type="line"/>
      <point x="258" y="811" type="line"/>
      <point x="297" y="811" type="line" smooth="yes"/>
      <point x="310" y="811"/>
      <point x="319" y="818"/>
    </contour>
    <contour>
      <point x="753" y="831" type="curve" smooth="yes"/>
      <point x="753" y="846"/>
      <point x="744" y="854"/>
      <point x="730" y="854" type="curve" smooth="yes"/>
      <point x="695" y="854" type="line"/>
      <point x="695" y="809" type="line"/>
      <point x="730" y="809" type="line" smooth="yes"/>
      <point x="746" y="809"/>
      <point x="753" y="817"/>
    </contour>
    <contour>
      <point x="448" y="790" type="line"/>
      <point x="429" y="847" type="line"/>
      <point x="410" y="790" type="line"/>
    </contour>
    <contour>
      <point x="723" y="430" type="curve" smooth="yes"/>
      <point x="723" y="475"/>
      <point x="707" y="511"/>
      <point x="668" y="511" type="curve" smooth="yes"/>
      <point x="629" y="511"/>
      <point x="614" y="476"/>
      <point x="614" y="431" type="curve" smooth="yes"/>
      <point x="614" y="386"/>
      <point x="630" y="349"/>
      <point x="668" y="349" type="curve" smooth="yes"/>
      <point x="707" y="349"/>
      <point x="723" y="385"/>
    </contour>
    <contour>
      <point x="529" y="183" type="curve" smooth="yes"/>
      <point x="529" y="194"/>
      <point x="523" y="200"/>
      <point x="512" y="200" type="curve" smooth="yes"/>
      <point x="486" y="200" type="line"/>
      <point x="486" y="167" type="line"/>
      <point x="512" y="167" type="line" smooth="yes"/>
      <point x="524" y="167"/>
      <point x="529" y="173"/>
    </contour>
  </outline>
</glyph>
<glyph name="nine" format="1">
  <advance width="1000"/>
  <unicode hex="0039"/>
  <outline>
    <contour>
      <point x="893" y="64" type="line" smooth="yes"/>
      <point x="893" y="33"/>
      <point x="874" y="13"/>
      <point x="841" y="13" type="curve" smooth="yes"/>
      <point x="159" y="13" type="line" smooth="yes"/>
      <point x="126" y="13"/>
      <point x="107" y="33"/>
      <point x="107" y="64" type="curve" smooth="yes"/>
      <point x="107" y="936" type="line" smooth="yes"/>
      <point x="107" y="967"/>
      <point x="126" y="987"/>
      <point x="159" y="987" type="curve" smooth="yes"/>
      <point x="841" y="987" type="line" smooth="yes"/>
      <point x="874" y="987"/>
      <point x="893" y="967"/>
      <point x="893" y="936" type="curve" smooth="yes"/>
    </contour>
    <contour>
      <point x="890" y="64" type="curve" smooth="yes"/>
      <point x="890" y="936" type="line" smooth="yes"/>
      <point x="890" y="966"/>
      <point x="872" y="984"/>
      <point x="841" y="984" type="curve" smooth="yes"/>
      <point x="159" y="984" type="line" smooth="yes"/>
      <point x="128" y="984"/>
      <point x="110" y="966"/>
      <point x="110" y="936" type="curve" smooth="yes"/>
      <point x="110" y="64" type="line" smooth="yes"/>
      <point x="110" y="34"/>
      <point x="128" y="16"/>
      <point x="159" y="16" type="curve" smooth="yes"/>
      <point x="841" y="16" type="line" smooth="yes"/>
      <point x="872" y="16"/>
      <point x="890" y="34"/>
    </contour>
    <contour>
      <point x="871" y="64" type="line" smooth="yes"/>
      <point x="871" y="46"/>
      <point x="859" y="35"/>
      <point x="841" y="35" type="curve" smooth="yes"/>
      <point x="159" y="35" type="line" smooth="yes"/>
      <point x="141" y="35"/>
      <point x="129" y="46"/>
      <point x="129" y="64" type="curve" smooth="yes"/>
      <point x="129" y="936" type="line" smooth="yes"/>
      <point x="129" y="954"/>
      <point x="141" y="965"/>
      <point x="159" y="965" type="curve" smooth="yes"/>
      <point x="841" y="965" type="line" smooth="yes"/>
      <point x="859" y="965"/>
      <point x="871" y="954"/>
      <point x="871" y="936" type="curve" smooth="yes"/>
    </contour>
    <contour>
      <point x="851" y="64" type="curve" smooth="yes"/>
      <point x="851" y="936" type="line" smooth="yes"/>
      <point x="851" y="942"/>
      <point x="847" y="945"/>
      <point x="841" y="945" type="curve" smooth="yes"/>
      <point x="159" y="945" type="line" smooth="yes"/>
      <point x="153" y="945"/>
      <point x="149" y="942"/>
      <point x="149" y="936" type="curve" smooth="yes"/>
      <point x="149" y="64" type="line" smooth="yes"/>
      <point x="149" y="58"/>
      <point x="153" y="55"/>
      <point x="159" y="55" type="curve" smooth="yes"/>
      <point x="841" y="55" type="line" smooth="yes"/>
      <point x="847" y="55"/>
      <point x="851" y="58"/>
    </contour>
    <contour>
      <point x="419" y="752" type="line"/>
      <point x="401" y="752" type="line"/>
      <point x="401" y="884" type="line"/>
      <point x="419" y="884" type="line"/>
    </contour>
    <contour>
      <point x="808" y="751" type="line"/>
      <point x="793" y="751" type="line"/>
      <point x="752" y="844" type="line"/>
      <point x="752" y="751" type="line"/>
      <point x="734" y="751" type="line"/>
      <point x="734" y="884" type="line"/>
      <point x="752" y="884" type="line"/>
      <point x="790" y="799" type="line"/>
      <point x="790" y="884" type="line"/>
      <point x="808" y="884" type="line"/>
    </contour>
    <contour>
      <point x="716" y="751" type="line"/>
      <point x="698" y="751" type="line"/>
      <point x="698" y="883" type="line"/>
      <point x="716" y="883" type="line"/>
    </contour>
    <contour>
      <point x="679" y="751" type="line"/>
      <point x="658" y="751" type="line"/>
      <point x="650" y="787" type="line"/>
      <point x="622" y="787" type="line"/>
      <point x="614" y="751" type="line"/>
      <point x="594" y="751" type="line"/>
      <point x="627" y="884" type="line"/>
      <point x="646" y="884" type="line"/>
    </contour>
    <contour>
      <point x="596" y="866" type="line"/>
      <point x="571" y="866" type="line"/>
      <point x="571" y="751" type="line"/>
      <point x="553" y="751" type="line"/>
      <point x="553" y="866" type="line"/>
      <point x="528" y="866" type="line"/>
      <point x="528" y="884" type="line"/>
      <point x="596" y="884" type="line"/>
    </contour>
    <contour>
      <point x="513" y="751" type="line"/>
      <point x="498" y="751" type="line"/>
      <point x="457" y="844" type="line"/>
      <point x="457" y="751" type="line"/>
      <point x="439" y="751" type="line"/>
      <point x="439" y="884" type="line"/>
      <point x="457" y="884" type="line"/>
      <point x="495" y="799" type="line"/>
      <point x="495" y="884" type="line"/>
      <point x="513" y="884" type="line"/>
    </contour>
    <contour>
      <point x="380" y="751" type="line"/>
      <point x="359" y="751" type="line"/>
      <point x="351" y="787" type="line"/>
      <point x="323" y="787" type="line"/>
      <point x="315" y="751" type="line"/>
      <point x="295" y="751" type="line"/>
      <point x="328" y="884" type="line"/>
      <point x="347" y="884" type="line"/>
    </contour>
    <contour>
      <point x="282" y="751" type="line"/>
      <point x="264" y="751" type="line"/>
      <point x="264" y="837" type="line"/>
      <point x="237" y="747" type="line"/>
      <point x="210" y="838" type="line"/>
      <point x="210" y="751" type="line"/>
      <point x="192" y="751" type="line"/>
      <point x="192" y="884" type="line"/>
      <point x="212" y="884" type="line"/>
      <point x="237" y="800" type="line"/>
      <point x="263" y="884" type="line"/>
      <point x="282" y="884" type="line"/>
    </contour>
    <contour>
      <point x="569" y="593" type="curve" smooth="yes"/>
      <point x="569" y="544"/>
      <point x="543" y="510"/>
      <point x="501" y="510" type="curve" smooth="yes"/>
      <point x="459" y="510"/>
      <point x="433" y="544"/>
      <point x="433" y="593" type="curve" smooth="yes"/>
      <point x="433" y="642"/>
      <point x="459" y="676"/>
      <point x="501" y="676" type="curve" smooth="yes"/>
      <point x="543" y="676"/>
      <point x="569" y="642"/>
    </contour>
    <contour>
      <point x="751" y="623" type="curve" smooth="yes"/>
      <point x="751" y="590"/>
      <point x="729" y="572"/>
      <point x="698" y="572" type="curve" smooth="yes"/>
      <point x="656" y="572" type="line"/>
      <point x="656" y="512" type="line"/>
      <point x="632" y="512" type="line"/>
      <point x="632" y="673" type="line"/>
      <point x="699" y="673" type="line" smooth="yes"/>
      <point x="727" y="673"/>
      <point x="751" y="656"/>
    </contour>
    <contour>
      <point x="380" y="650" type="line"/>
      <point x="333" y="650" type="line"/>
      <point x="333" y="512" type="line"/>
      <point x="309" y="512" type="line"/>
      <point x="309" y="650" type="line"/>
      <point x="262" y="650" type="line"/>
      <point x="262" y="673" type="line"/>
      <point x="380" y="673" type="line"/>
    </contour>
    <contour>
      <point x="750" y="308" type="line"/>
      <point x="666" y="308" type="line"/>
      <point x="666" y="434" type="line"/>
      <point x="747" y="434" type="line"/>
      <point x="747" y="415" type="line"/>
      <point x="685" y="415" type="line"/>
      <point x="685" y="384" type="line"/>
      <point x="721" y="384" type="line"/>
      <point x="721" y="366" type="line"/>
      <point x="685" y="366" type="line"/>
      <point x="685" y="326" type="line"/>
      <point x="750" y="326" type="line"/>
    </contour>
    <contour>
      <point x="619" y="416" type="line"/>
      <point x="557" y="416" type="line"/>
      <point x="557" y="383" type="line"/>
      <point x="593" y="383" type="line"/>
      <point x="593" y="364" type="line"/>
      <point x="557" y="364" type="line"/>
      <point x="557" y="308" type="line"/>
      <point x="538" y="308" type="line"/>
      <point x="538" y="434" type="line"/>
      <point x="619" y="434" type="line"/>
    </contour>
    <contour>
      <point x="496" y="308" type="line"/>
      <point x="475" y="308" type="line"/>
      <point x="465" y="338" type="line"/>
      <point x="415" y="338" type="line"/>
      <point x="405" y="308" type="line"/>
      <point x="385" y="308" type="line"/>
      <point x="430" y="434" type="line"/>
      <point x="450" y="434" type="line"/>
    </contour>
    <contour>
      <point x="349" y="344" type="curve" smooth="yes"/>
      <point x="349" y="321"/>
      <point x="334" y="306"/>
      <point x="302" y="306" type="curve" smooth="yes"/>
      <point x="284" y="306"/>
      <point x="268" y="314"/>
      <point x="257" y="326" type="curve"/>
      <point x="271" y="339" type="line"/>
      <point x="279" y="330"/>
      <point x="291" y="324"/>
      <point x="303" y="324" type="curve" smooth="yes"/>
      <point x="321" y="324"/>
      <point x="329" y="331"/>
      <point x="329" y="343" type="curve" smooth="yes"/>
      <point x="329" y="353"/>
      <point x="322" y="357"/>
      <point x="301" y="364" type="curve" smooth="yes"/>
      <point x="274" y="372"/>
      <point x="262" y="378"/>
      <point x="262" y="401" type="curve" smooth="yes"/>
      <point x="262" y="423"/>
      <point x="280" y="436"/>
      <point x="303" y="436" type="curve" smooth="yes"/>
      <point x="320" y="436"/>
      <point x="333" y="430"/>
      <point x="344" y="419" type="curve"/>
      <point x="331" y="405" type="line"/>
      <point x="323" y="413"/>
      <point x="314" y="417"/>
      <point x="302" y="417" type="curve" smooth="yes"/>
      <point x="287" y="417"/>
      <point x="281" y="410"/>
      <point x="281" y="402" type="curve" smooth="yes"/>
      <point x="281" y="393"/>
      <point x="286" y="389"/>
      <point x="308" y="382" type="curve" smooth="yes"/>
      <point x="333" y="375"/>
      <point x="349" y="367"/>
    </contour>
    <contour>
      <point x="802" y="181" type="curve" smooth="yes"/>
      <point x="802" y="137"/>
      <point x="774" y="118"/>
      <point x="741" y="118" type="curve" smooth="yes"/>
      <point x="706" y="118" type="line"/>
      <point x="706" y="244" type="line"/>
      <point x="741" y="244" type="line" smooth="yes"/>
      <point x="774" y="244"/>
      <point x="802" y="225"/>
    </contour>
    <contour>
      <point x="669" y="118" type="line"/>
      <point x="585" y="118" type="line"/>
      <point x="585" y="244" type="line"/>
      <point x="666" y="244" type="line"/>
      <point x="666" y="225" type="line"/>
      <point x="604" y="225" type="line"/>
      <point x="604" y="194" type="line"/>
      <point x="640" y="194" type="line"/>
      <point x="640" y="176" type="line"/>
      <point x="604" y="176" type="line"/>
      <point x="604" y="136" type="line"/>
      <point x="669" y="136" type="line"/>
    </contour>
    <contour>
      <point x="542" y="118" type="line"/>
      <point x="458" y="118" type="line"/>
      <point x="458" y="244" type="line"/>
      <point x="539" y="244" type="line"/>
      <point x="539" y="225" type="line"/>
      <point x="477" y="225" type="line"/>
      <point x="477" y="194" type="line"/>
      <point x="513" y="194" type="line"/>
      <point x="513" y="176" type="line"/>
      <point x="477" y="176" type="line"/>
      <point x="477" y="136" type="line"/>
      <point x="542" y="136" type="line"/>
    </contour>
    <contour>
      <point x="421" y="205" type="curve" smooth="yes"/>
      <point x="421" y="179"/>
      <point x="403" y="165"/>
      <point x="379" y="165" type="curve" smooth="yes"/>
      <point x="346" y="165" type="line"/>
      <point x="346" y="118" type="line"/>
      <point x="327" y="118" type="line"/>
      <point x="327" y="244" type="line"/>
      <point x="380" y="244" type="line" smooth="yes"/>
      <point x="402" y="244"/>
      <point x="421" y="230"/>
    </contour>
    <contour>
      <point x="292" y="154" type="curve" smooth="yes"/>
      <point x="292" y="131"/>
      <point x="277" y="116"/>
      <point x="245" y="116" type="curve" smooth="yes"/>
      <point x="227" y="116"/>
      <point x="211" y="124"/>
      <point x="200" y="136" type="curve"/>
      <point x="214" y="149" type="line"/>
      <point x="222" y="140"/>
      <point x="234" y="134"/>
      <point x="246" y="134" type="curve" smooth="yes"/>
      <point x="264" y="134"/>
      <point x="272" y="141"/>
      <point x="272" y="153" type="curve" smooth="yes"/>
      <point x="272" y="163"/>
      <point x="265" y="167"/>
      <point x="244" y="174" type="curve" smooth="yes"/>
      <point x="217" y="182"/>
      <point x="205" y="188"/>
      <point x="205" y="211" type="curve" smooth="yes"/>
      <point x="205" y="233"/>
      <point x="223" y="246"/>
      <point x="246" y="246" type="curve" smooth="yes"/>
      <point x="263" y="246"/>
      <point x="276" y="240"/>
      <point x="287" y="229" type="curve"/>
      <point x="274" y="215" type="line"/>
      <point x="266" y="223"/>
      <point x="257" y="227"/>
      <point x="245" y="227" type="curve" smooth="yes"/>
      <point x="230" y="227"/>
      <point x="224" y="220"/>
      <point x="224" y="212" type="curve" smooth="yes"/>
      <point x="224" y="203"/>
      <point x="229" y="199"/>
      <point x="251" y="192" type="curve" smooth="yes"/>
      <point x="276" y="185"/>
      <point x="292" y="177"/>
    </contour>
    <contour>
      <point x="647" y="804" type="line"/>
      <point x="636" y="857" type="line"/>
      <point x="625" y="804" type="line"/>
    </contour>
    <contour>
      <point x="348" y="804" type="line"/>
      <point x="337" y="857" type="line"/>
      <point x="326" y="804" type="line"/>
    </contour>
    <contour>
      <point x="726" y="623" type="curve" smooth="yes"/>
      <point x="726" y="640"/>
      <point x="715" y="650"/>
      <point x="699" y="650" type="curve" smooth="yes"/>
      <point x="656" y="650" type="line"/>
      <point x="656" y="595" type="line"/>
      <point x="699" y="595" type="line" smooth="yes"/>
      <point x="717" y="595"/>
      <point x="726" y="605"/>
    </contour>
    <contour>
      <point x="545" y="593" type="curve" smooth="yes"/>
      <point x="545" y="629"/>
      <point x="529" y="652"/>
      <point x="501" y="652" type="curve" smooth="yes"/>
      <point x="473" y="652"/>
      <point x="458" y="629"/>
      <point x="458" y="593" type="curve" smooth="yes"/>
      <point x="458" y="557"/>
      <point x="473" y="534"/>
      <point x="501" y="534" type="curve" smooth="yes"/>
      <point x="529" y="534"/>
      <point x="545" y="557"/>
    </contour>
    <contour>
      <point x="458" y="356" type="line"/>
      <point x="440" y="410" type="line"/>
      <point x="422" y="356" type="line"/>
    </contour>
    <contour>
      <point x="401" y="205" type="curve" smooth="yes"/>
      <point x="401" y="218"/>
      <point x="393" y="226"/>
      <point x="380" y="226" type="curve" smooth="yes"/>
      <point x="346" y="226" type="line"/>
      <point x="346" y="183" type="line"/>
      <point x="380" y="183" type="line" smooth="yes"/>
      <point x="394" y="183"/>
      <point x="401" y="191"/>
    </contour>
    <contour>
      <point x="783" y="181" type="curve" smooth="yes"/>
      <point x="783" y="207"/>
      <point x="771" y="225"/>
      <point x="741" y="225" type="curve" smooth="yes"/>
      <point x="725" y="225" type="line"/>
      <point x="725" y="137" type="line"/>
      <point x="741" y="137" type="line" smooth="yes"/>
      <point x="771" y="137"/>
      <point x="783" y="155"/>
    </contour>
  </outline>
</glyph>
<glyph name="colon" format="1">
  <advance width="1000"/>
  <unicode hex="003A"/>
  <outline>
    <contour>
      <point x="987" y="192" type="line" smooth="yes"/>
      <point x="987" y="99"/>
      <point x="924" y="36"/>
      <point x="831" y="36" type="curve" smooth="yes"/>
      <point x="169" y="36" type="line" smooth="yes"/>
      <point x="76" y="36"/>
      <point x="13" y="99"/>
      <point x="13" y="192" type="curve" smooth="yes"/>
      <point x="13" y="808" type="line" smooth="yes"/>
      <point x="13" y="901"/>
      <point x="76" y="964"/>
      <point x="169" y="964" type="curve" smooth="yes"/>
      <point x="831" y="964" type="line" smooth="yes"/>
      <point x="924" y="964"/>
      <point x="987" y="901"/>
      <point x="987" y="808" type="curve" smooth="yes"/>
    </contour>
    <contour>
      <point x="975" y="192" type="curve" smooth="yes"/>
      <point x="975" y="808" type="line" smooth="yes"/>
      <point x="975" y="894"/>
      <point x="917" y="952"/>
      <point x="831" y="952" type="curve" smooth="yes"/>
      <point x="169" y="952" type="line" smooth="yes"/>
      <point x="83" y="952"/>
      <point x="25" y="894"/>
      <point x="25" y="808" type="curve" smooth="yes"/>
      <point x="25" y="192" type="line" smooth="yes"/>
      <point x="25" y="106"/>
      <point x="83" y="48"/>
      <point x="169" y="48" type="curve" smooth="yes"/>
      <point x="831" y="48" type="line" smooth="yes"/>
      <point x="917" y="48"/>
      <point x="975" y="106"/>
    </contour>
    <contour>
      <point x="953" y="297" type="line"/>
      <point x="920" y="297" type="line"/>
      <point x="920" y="224" type="line" smooth="yes"/>
      <point x="920" y="177"/>
      <point x="889" y="146"/>
      <point x="842" y="146" type="curve" smooth="yes"/>
      <point x="158" y="146" type="line" smooth="yes"/>
      <point x="111" y="146"/>
      <point x="80" y="177"/>
      <point x="80" y="224" type="curve" smooth="yes"/>
      <point x="80" y="297" type="line"/>
      <point x="47" y="297" type="line"/>
      <point x="47" y="777" type="line" smooth="yes"/>
      <point x="47" y="843"/>
      <point x="91" y="887"/>
      <point x="157" y="887" type="curve" smooth="yes"/>
      <point x="843" y="887" type="line" smooth="yes"/>
      <point x="909" y="887"/>
      <point x="953" y="843"/>
      <point x="953" y="777" type="curve" smooth="yes"/>
    </contour>
    <contour>
      <point x="941" y="309" type="line"/>
      <point x="941" y="777" type="line" smooth="yes"/>
      <point x="941" y="836"/>
      <point x="902" y="875"/>
      <point x="843" y="875" type="curve" smooth="yes"/>
      <point x="157" y="875" type="line" smooth="yes"/>
      <point x="98" y="875"/>
      <point x="59" y="836"/>
      <point x="59" y="777" type="curve" smooth="yes"/>
      <point x="59" y="309" type="line"/>
      <point x="80" y="309" type="line"/>
      <point x="80" y="777" type="line" smooth="yes"/>
      <point x="80" y="824"/>
      <point x="111" y="855"/>
      <point x="158" y="855" type="curve" smooth="yes"/>
      <point x="842" y="855" type="line" smooth="yes"/>
      <point x="889" y="855"/>
      <point x="920" y="824"/>
      <point x="920" y="777" type="curve" smooth="yes"/>
      <point x="920" y="309" type="line"/>
    </contour>
    <contour>
      <point x="908" y="224" type="curve" smooth="yes"/>
      <point x="908" y="777" type="line" smooth="yes"/>
      <point x="908" y="817"/>
      <point x="882" y="843"/>
      <point x="842" y="843" type="curve" smooth="yes"/>
      <point x="158" y="843" type="line" smooth="yes"/>
      <point x="118" y="843"/>
      <point x="92" y="817"/>
      <point x="92" y="777" type="curve" smooth="yes"/>
      <point x="92" y="224" type="line" smooth="yes"/>
      <point x="92" y="184"/>
      <point x="118" y="158"/>
      <point x="158" y="158" type="curve" smooth="yes"/>
      <point x="842" y="158" type="line" smooth="yes"/>
      <point x="882" y="158"/>
      <point x="908" y="184"/>
    </contour>
    <contour>
      <point x="892" y="224" type="line" smooth="yes"/>
      <point x="892" y="194"/>
      <point x="872" y="174"/>
      <point x="842" y="174" type="curve" smooth="yes"/>
      <point x="158" y="174" type="line" smooth="yes"/>
      <point x="128" y="174"/>
      <point x="108" y="194"/>
      <point x="108" y="224" type="curve" smooth="yes"/>
      <point x="108" y="777" type="line" smooth="yes"/>
      <point x="108" y="807"/>
      <point x="128" y="827"/>
      <point x="158" y="827" type="curve" smooth="yes"/>
      <point x="842" y="827" type="line" smooth="yes"/>
      <point x="872" y="827"/>
      <point x="892" y="807"/>
      <point x="892" y="777" type="curve" smooth="yes"/>
    </contour>
    <contour>
      <point x="763" y="739" type="curve" smooth="yes"/>
      <point x="763" y="760"/>
      <point x="746" y="776"/>
      <point x="726" y="776" type="curve" smooth="yes"/>
      <point x="705" y="776"/>
      <point x="689" y="760"/>
      <point x="689" y="739" type="curve" smooth="yes"/>
      <point x="689" y="718"/>
      <point x="705" y="702"/>
      <point x="726" y="702" type="curve" smooth="yes"/>
      <point x="746" y="702"/>
      <point x="763" y="718"/>
    </contour>
    <contour>
      <point x="853" y="533" type="line"/>
      <point x="761" y="592" type="line"/>
      <point x="761" y="605"/>
      <point x="727" y="696"/>
      <point x="695" y="696" type="curve" smooth="yes"/>
      <point x="691" y="696"/>
      <point x="689" y="697"/>
      <point x="682" y="693" type="curve" smooth="yes"/>
      <point x="550" y="623" type="line"/>
      <point x="554" y="493" type="line"/>
      <point x="580" y="496" type="line"/>
      <point x="592" y="605" type="line"/>
      <point x="621" y="613" type="line"/>
      <point x="621" y="613"/>
      <point x="606" y="551"/>
      <point x="606" y="521" type="curve" smooth="yes"/>
      <point x="606" y="505"/>
      <point x="615" y="482"/>
      <point x="615" y="482" type="curve"/>
      <point x="558" y="250" type="line"/>
      <point x="594" y="223" type="line"/>
      <point x="667" y="426" type="line"/>
      <point x="707" y="385" type="line"/>
      <point x="758" y="241" type="line"/>
      <point x="802" y="259" type="line"/>
      <point x="756" y="416" type="line"/>
      <point x="700" y="513" type="line"/>
      <point x="723" y="575" type="line"/>
      <point x="745" y="542" type="line"/>
      <point x="835" y="511" type="line"/>
    </contour>
  </outline>
</glyph>
<glyph name="semicolon" format="1">
  <advance width="1000"/>
  <unicode hex="003B"/>
  <outline>
    <contour>
      <point x="987" y="192" type="line" smooth="yes"/>
      <point x="987" y="99"/>
      <point x="924" y="36"/>
      <point x="831" y="36" type="curve" smooth="yes"/>
      <point x="169" y="36" type="line" smooth="yes"/>
      <point x="76" y="36"/>
      <point x="13" y="99"/>
      <point x="13" y="192" type="curve" smooth="yes"/>
      <point x="13" y="808" type="line" smooth="yes"/>
      <point x="13" y="901"/>
      <point x="76" y="964"/>
      <point x="169" y="964" type="curve" smooth="yes"/>
      <point x="831" y="964" type="line" smooth="yes"/>
      <point x="924" y="964"/>
      <point x="987" y="901"/>
      <point x="987" y="808" type="curve" smooth="yes"/>
    </contour>
    <contour>
      <point x="975" y="192" type="curve" smooth="yes"/>
      <point x="975" y="808" type="line" smooth="yes"/>
      <point x="975" y="894"/>
      <point x="917" y="952"/>
      <point x="831" y="952" type="curve" smooth="yes"/>
      <point x="169" y="952" type="line" smooth="yes"/>
      <point x="83" y="952"/>
      <point x="25" y="894"/>
      <point x="25" y="808" type="curve" smooth="yes"/>
      <point x="25" y="192" type="line" smooth="yes"/>
      <point x="25" y="106"/>
      <point x="83" y="48"/>
      <point x="169" y="48" type="curve" smooth="yes"/>
      <point x="831" y="48" type="line" smooth="yes"/>
      <point x="917" y="48"/>
      <point x="975" y="106"/>
    </contour>
    <contour>
      <point x="953" y="297" type="line"/>
      <point x="920" y="297" type="line"/>
      <point x="920" y="224" type="line" smooth="yes"/>
      <point x="920" y="177"/>
      <point x="889" y="146"/>
      <point x="842" y="146" type="curve" smooth="yes"/>
      <point x="158" y="146" type="line" smooth="yes"/>
      <point x="111" y="146"/>
      <point x="80" y="177"/>
      <point x="80" y="224" type="curve" smooth="yes"/>
      <point x="80" y="297" type="line"/>
      <point x="47" y="297" type="line"/>
      <point x="47" y="777" type="line" smooth="yes"/>
      <point x="47" y="843"/>
      <point x="91" y="887"/>
      <point x="157" y="887" type="curve" smooth="yes"/>
      <point x="843" y="887" type="line" smooth="yes"/>
      <point x="909" y="887"/>
      <point x="953" y="843"/>
      <point x="953" y="777" type="curve" smooth="yes"/>
    </contour>
    <contour>
      <point x="941" y="309" type="line"/>
      <point x="941" y="777" type="line" smooth="yes"/>
      <point x="941" y="836"/>
      <point x="902" y="875"/>
      <point x="843" y="875" type="curve" smooth="yes"/>
      <point x="157" y="875" type="line" smooth="yes"/>
      <point x="98" y="875"/>
      <point x="59" y="836"/>
      <point x="59" y="777" type="curve" smooth="yes"/>
      <point x="59" y="309" type="line"/>
      <point x="80" y="309" type="line"/>
      <point x="80" y="777" type="line" smooth="yes"/>
      <point x="80" y="824"/>
      <point x="111" y="855"/>
      <point x="158" y="855" type="curve" smooth="yes"/>
      <point x="842" y="855" type="line" smooth="yes"/>
      <point x="889" y="855"/>
      <point x="920" y="824"/>
      <point x="920" y="777" type="curve" smooth="yes"/>
      <point x="920" y="309" type="line"/>
    </contour>
    <contour>
      <point x="908" y="224" type="curve" smooth="yes"/>
      <point x="908" y="777" type="line" smooth="yes"/>
      <point x="908" y="817"/>
      <point x="882" y="843"/>
      <point x="842" y="843" type="curve" smooth="yes"/>
      <point x="158" y="843" type="line" smooth="yes"/>
      <point x="118" y="843"/>
      <point x="92" y="817"/>
      <point x="92" y="777" type="curve" smooth="yes"/>
      <point x="92" y="224" type="line" smooth="yes"/>
      <point x="92" y="184"/>
      <point x="118" y="158"/>
      <point x="158" y="158" type="curve" smooth="yes"/>
      <point x="842" y="158" type="line" smooth="yes"/>
      <point x="882" y="158"/>
      <point x="908" y="184"/>
    </contour>
    <contour>
      <point x="892" y="224" type="line" smooth="yes"/>
      <point x="892" y="194"/>
      <point x="872" y="174"/>
      <point x="842" y="174" type="curve" smooth="yes"/>
      <point x="158" y="174" type="line" smooth="yes"/>
      <point x="128" y="174"/>
      <point x="108" y="194"/>
      <point x="108" y="224" type="curve" smooth="yes"/>
      <point x="108" y="777" type="line" smooth="yes"/>
      <point x="108" y="807"/>
      <point x="128" y="827"/>
      <point x="158" y="827" type="curve" smooth="yes"/>
      <point x="842" y="827" type="line" smooth="yes"/>
      <point x="872" y="827"/>
      <point x="892" y="807"/>
      <point x="892" y="777" type="curve" smooth="yes"/>
    </contour>
    <contour>
      <point x="515" y="569" type="line"/>
      <point x="505" y="582"/>
      <point x="461" y="579"/>
      <point x="447" y="557" type="curve" smooth="yes"/>
      <point x="415" y="506" type="line" smooth="yes"/>
      <point x="412" y="501"/>
      <point x="409" y="495"/>
      <point x="403" y="495" type="curve" smooth="yes"/>
      <point x="397" y="495"/>
      <point x="392" y="500"/>
      <point x="392" y="506" type="curve" smooth="yes"/>
      <point x="392" y="512"/>
      <point x="387" y="725"/>
      <point x="387" y="725" type="curve" smooth="yes"/>
      <point x="387" y="737"/>
      <point x="377" y="746"/>
      <point x="365" y="746" type="curve" smooth="yes"/>
      <point x="354" y="746"/>
      <point x="344" y="736"/>
      <point x="344" y="725" type="curve" smooth="yes"/>
      <point x="339" y="550" type="line"/>
      <point x="331" y="550" type="line"/>
      <point x="327" y="753" type="line" smooth="yes"/>
      <point x="327" y="765"/>
      <point x="317" y="774"/>
      <point x="305" y="774" type="curve" smooth="yes"/>
      <point x="294" y="774"/>
      <point x="284" y="764"/>
      <point x="284" y="753" type="curve" smooth="yes"/>
      <point x="278" y="550" type="line"/>
      <point x="270" y="550" type="line"/>
      <point x="266" y="725" type="line" smooth="yes"/>
      <point x="266" y="737"/>
      <point x="256" y="746"/>
      <point x="244" y="746" type="curve" smooth="yes"/>
      <point x="233" y="746"/>
      <point x="223" y="736"/>
      <point x="223" y="725" type="curve" smooth="yes"/>
      <point x="217" y="550" type="line"/>
      <point x="210" y="550" type="line"/>
      <point x="204" y="669" type="line" smooth="yes"/>
      <point x="203" y="681"/>
      <point x="194" y="690"/>
      <point x="182" y="690" type="curve" smooth="yes"/>
      <point x="171" y="690"/>
      <point x="161" y="680"/>
      <point x="161" y="669" type="curve" smooth="yes"/>
      <point x="155" y="424" type="line" smooth="yes"/>
      <point x="154" y="384"/>
      <point x="189" y="353"/>
      <point x="189" y="334" type="curve" smooth="yes"/>
      <point x="189" y="272" type="line" smooth="yes"/>
      <point x="189" y="254"/>
      <point x="178" y="232"/>
      <point x="178" y="232" type="curve"/>
      <point x="367" y="232" type="line"/>
      <point x="367" y="232"/>
      <point x="356" y="254"/>
      <point x="356" y="272" type="curve" smooth="yes"/>
      <point x="356" y="272"/>
      <point x="356" y="316"/>
      <point x="356" y="327" type="curve" smooth="yes"/>
      <point x="356" y="370"/>
      <point x="415" y="399"/>
      <point x="433" y="429" type="curve" smooth="yes"/>
    </contour>
  </outline>
</glyph>
<glyph name="equal" format="1">
  <advance width="1000"/>
  <unicode hex="003D"/>
  <outline>
    <contour>
      <point x="893" y="64" type="line" smooth="yes"/>
      <point x="893" y="33"/>
      <point x="874" y="13"/>
      <point x="841" y="13" type="curve" smooth="yes"/>
      <point x="159" y="13" type="line" smooth="yes"/>
      <point x="126" y="13"/>
      <point x="107" y="33"/>
      <point x="107" y="64" type="curve" smooth="yes"/>
      <point x="107" y="936" type="line" smooth="yes"/>
      <point x="107" y="967"/>
      <point x="126" y="987"/>
      <point x="159" y="987" type="curve" smooth="yes"/>
      <point x="841" y="987" type="line" smooth="yes"/>
      <point x="874" y="987"/>
      <point x="893" y="967"/>
      <point x="893" y="936" type="curve" smooth="yes"/>
    </contour>
    <contour>
      <point x="890" y="64" type="curve" smooth="yes"/>
      <point x="890" y="936" type="line" smooth="yes"/>
      <point x="890" y="966"/>
      <point x="872" y="984"/>
      <point x="841" y="984" type="curve" smooth="yes"/>
      <point x="159" y="984" type="line" smooth="yes"/>
      <point x="128" y="984"/>
      <point x="110" y="966"/>
      <point x="110" y="936" type="curve" smooth="yes"/>
      <point x="110" y="64" type="line" smooth="yes"/>
      <point x="110" y="34"/>
      <point x="128" y="16"/>
      <point x="159" y="16" type="curve" smooth="yes"/>
      <point x="841" y="16" type="line" smooth="yes"/>
      <point x="872" y="16"/>
      <point x="890" y="34"/>
    </contour>
    <contour>
      <point x="871" y="64" type="line" smooth="yes"/>
      <point x="871" y="46"/>
      <point x="859" y="35"/>
      <point x="841" y="35" type="curve" smooth="yes"/>
      <point x="159" y="35" type="line" smooth="yes"/>
      <point x="141" y="35"/>
      <point x="129" y="46"/>
      <point x="129" y="64" type="curve" smooth="yes"/>
      <point x="129" y="936" type="line" smooth="yes"/>
      <point x="129" y="954"/>
      <point x="141" y="965"/>
      <point x="159" y="965" type="curve" smooth="yes"/>
      <point x="841" y="965" type="line" smooth="yes"/>
      <point x="859" y="965"/>
      <point x="871" y="954"/>
      <point x="871" y="936" type="curve" smooth="yes"/>
    </contour>
    <contour>
      <point x="851" y="64" type="curve" smooth="yes"/>
      <point x="851" y="936" type="line" smooth="yes"/>
      <point x="851" y="942"/>
      <point x="847" y="945"/>
      <point x="841" y="945" type="curve" smooth="yes"/>
      <point x="159" y="945" type="line" smooth="yes"/>
      <point x="153" y="945"/>
      <point x="149" y="942"/>
      <point x="149" y="936" type="curve" smooth="yes"/>
      <point x="149" y="64" type="line" smooth="yes"/>
      <point x="149" y="58"/>
      <point x="153" y="55"/>
      <point x="159" y="55" type="curve" smooth="yes"/>
      <point x="841" y="55" type="line" smooth="yes"/>
      <point x="847" y="55"/>
      <point x="851" y="58"/>
    </contour>
    <contour>
      <point x="807" y="864" type="line"/>
      <point x="777" y="864" type="line"/>
      <point x="777" y="755" type="line"/>
      <point x="759" y="755" type="line"/>
      <point x="759" y="864" type="line"/>
      <point x="729" y="864" type="line"/>
      <point x="729" y="881" type="line"/>
      <point x="807" y="881" type="line"/>
    </contour>
    <contour>
      <point x="702" y="755" type="line"/>
      <point x="683" y="755" type="line"/>
      <point x="683" y="812" type="line"/>
      <point x="637" y="812" type="line"/>
      <point x="637" y="755" type="line"/>
      <point x="618" y="755" type="line"/>
      <point x="618" y="881" type="line"/>
      <point x="637" y="881" type="line"/>
      <point x="637" y="830" type="line"/>
      <point x="683" y="830" type="line"/>
      <point x="683" y="881" type="line"/>
      <point x="702" y="881" type="line"/>
    </contour>
    <contour>
      <point x="584" y="798" type="line" smooth="yes"/>
      <point x="584" y="772"/>
      <point x="569" y="753"/>
      <point x="543" y="753" type="curve" smooth="yes"/>
      <point x="513" y="753"/>
      <point x="497" y="781"/>
      <point x="497" y="818" type="curve" smooth="yes"/>
      <point x="497" y="856"/>
      <point x="514" y="883"/>
      <point x="543" y="883" type="curve" smooth="yes"/>
      <point x="564" y="883"/>
      <point x="575" y="873"/>
      <point x="581" y="856" type="curve"/>
      <point x="564" y="849" type="line"/>
      <point x="560" y="860"/>
      <point x="554" y="865"/>
      <point x="543" y="865" type="curve" smooth="yes"/>
      <point x="525" y="865"/>
      <point x="516" y="846"/>
      <point x="516" y="818" type="curve" smooth="yes"/>
      <point x="516" y="794"/>
      <point x="524" y="772"/>
      <point x="543" y="772" type="curve" smooth="yes"/>
      <point x="560" y="772"/>
      <point x="566" y="782"/>
      <point x="566" y="797" type="curve" smooth="yes"/>
      <point x="566" y="802" type="line"/>
      <point x="549" y="802" type="line"/>
      <point x="549" y="820" type="line"/>
      <point x="584" y="820" type="line"/>
    </contour>
    <contour>
      <point x="470" y="755" type="line"/>
      <point x="452" y="755" type="line"/>
      <point x="452" y="881" type="line"/>
      <point x="470" y="881" type="line"/>
    </contour>
    <contour>
      <point x="424" y="755" type="line"/>
      <point x="351" y="755" type="line"/>
      <point x="351" y="881" type="line"/>
      <point x="421" y="881" type="line"/>
      <point x="421" y="863" type="line"/>
      <point x="369" y="863" type="line"/>
      <point x="369" y="831" type="line"/>
      <point x="401" y="831" type="line"/>
      <point x="401" y="813" type="line"/>
      <point x="369" y="813" type="line"/>
      <point x="369" y="773" type="line"/>
      <point x="424" y="773" type="line"/>
    </contour>
    <contour>
      <point x="326" y="881" type="line"/>
      <point x="302" y="755" type="line"/>
      <point x="286" y="755" type="line"/>
      <point x="267" y="843" type="line"/>
      <point x="248" y="755" type="line"/>
      <point x="232" y="755" type="line"/>
      <point x="207" y="881" type="line"/>
      <point x="226" y="881" type="line"/>
      <point x="242" y="792" type="line"/>
      <point x="260" y="881" type="line"/>
      <point x="275" y="881" type="line"/>
      <point x="293" y="792" type="line"/>
      <point x="308" y="881" type="line"/>
    </contour>
    <contour>
      <point x="703" y="681" type="line"/>
      <point x="673" y="681" type="line"/>
      <point x="673" y="572" type="line"/>
      <point x="655" y="572" type="line"/>
      <point x="655" y="681" type="line"/>
      <point x="625" y="681" type="line"/>
      <point x="625" y="698" type="line"/>
      <point x="703" y="698" type="line"/>
    </contour>
    <contour>
      <point x="599" y="572" type="line"/>
      <point x="581" y="572" type="line"/>
      <point x="581" y="698" type="line"/>
      <point x="599" y="698" type="line"/>
    </contour>
    <contour>
      <point x="421" y="572" type="line"/>
      <point x="403" y="572" type="line"/>
      <point x="403" y="698" type="line"/>
      <point x="421" y="698" type="line"/>
    </contour>
    <contour>
      <point x="378" y="572" type="line"/>
      <point x="309" y="572" type="line"/>
      <point x="309" y="698" type="line"/>
      <point x="327" y="698" type="line"/>
      <point x="327" y="590" type="line"/>
      <point x="378" y="590" type="line"/>
    </contour>
    <contour>
      <point x="548" y="572" type="line"/>
      <point x="531" y="572" type="line"/>
      <point x="531" y="657" type="line"/>
      <point x="499" y="569" type="line"/>
      <point x="467" y="657" type="line"/>
      <point x="467" y="572" type="line"/>
      <point x="450" y="572" type="line"/>
      <point x="450" y="698" type="line"/>
      <point x="469" y="698" type="line"/>
      <point x="499" y="615" type="line"/>
      <point x="529" y="698" type="line"/>
      <point x="548" y="698" type="line"/>
    </contour>
    <contour>
      <point x="598" y="422" type="curve" smooth="yes"/>
      <point x="598" y="373"/>
      <point x="576" y="339"/>
      <point x="535" y="339" type="curve" smooth="yes"/>
      <point x="493" y="339"/>
      <point x="472" y="373"/>
      <point x="472" y="422" type="curve" smooth="yes"/>
      <point x="472" y="471"/>
      <point x="494" y="505"/>
      <point x="535" y="505" type="curve" smooth="yes"/>
      <point x="577" y="505"/>
      <point x="598" y="471"/>
    </contour>
    <contour>
      <point x="429" y="341" type="line"/>
      <point x="405" y="341" type="line"/>
      <point x="405" y="464" type="line"/>
      <point x="376" y="464" type="line"/>
      <point x="376" y="481" type="line"/>
      <point x="393" y="482"/>
      <point x="406" y="488"/>
      <point x="409" y="502" type="curve"/>
      <point x="429" y="502" type="line"/>
    </contour>
    <contour>
      <point x="470" y="197" type="curve" smooth="yes"/>
      <point x="470" y="149"/>
      <point x="450" y="114"/>
      <point x="412" y="114" type="curve" smooth="yes"/>
      <point x="374" y="114"/>
      <point x="354" y="149"/>
      <point x="354" y="197" type="curve" smooth="yes"/>
      <point x="354" y="245"/>
      <point x="374" y="280"/>
      <point x="412" y="280" type="curve" smooth="yes"/>
      <point x="450" y="280"/>
      <point x="470" y="245"/>
    </contour>
    <contour>
      <point x="763" y="159" type="curve" smooth="yes"/>
      <point x="763" y="132"/>
      <point x="746" y="113"/>
      <point x="711" y="113" type="curve" smooth="yes"/>
      <point x="689" y="113"/>
      <point x="672" y="123"/>
      <point x="661" y="139" type="curve"/>
      <point x="678" y="154" type="line"/>
      <point x="688" y="141"/>
      <point x="700" y="136"/>
      <point x="712" y="136" type="curve" smooth="yes"/>
      <point x="730" y="136"/>
      <point x="739" y="143"/>
      <point x="739" y="158" type="curve" smooth="yes"/>
      <point x="739" y="170"/>
      <point x="732" y="177"/>
      <point x="707" y="188" type="curve" smooth="yes"/>
      <point x="681" y="199"/>
      <point x="666" y="209"/>
      <point x="666" y="236" type="curve" smooth="yes"/>
      <point x="666" y="262"/>
      <point x="685" y="279"/>
      <point x="713" y="279" type="curve" smooth="yes"/>
      <point x="733" y="279"/>
      <point x="747" y="271"/>
      <point x="759" y="257" type="curve"/>
      <point x="742" y="241" type="line"/>
      <point x="733" y="251"/>
      <point x="724" y="256"/>
      <point x="712" y="256" type="curve" smooth="yes"/>
      <point x="697" y="256"/>
      <point x="690" y="248"/>
      <point x="690" y="237" type="curve" smooth="yes"/>
      <point x="690" y="226"/>
      <point x="696" y="219"/>
      <point x="719" y="209" type="curve" smooth="yes"/>
      <point x="745" y="198"/>
      <point x="763" y="187"/>
    </contour>
    <contour>
      <point x="616" y="116" type="line"/>
      <point x="595" y="116" type="line"/>
      <point x="533" y="231" type="line"/>
      <point x="533" y="116" type="line"/>
      <point x="510" y="116" type="line"/>
      <point x="510" y="277" type="line"/>
      <point x="534" y="277" type="line"/>
      <point x="593" y="166" type="line"/>
      <point x="593" y="277" type="line"/>
      <point x="616" y="277" type="line"/>
    </contour>
    <contour>
      <point x="331" y="254" type="line"/>
      <point x="293" y="254" type="line"/>
      <point x="293" y="116" type="line"/>
      <point x="269" y="116" type="line"/>
      <point x="269" y="254" type="line"/>
      <point x="231" y="254" type="line"/>
      <point x="231" y="277" type="line"/>
      <point x="331" y="277" type="line"/>
    </contour>
    <contour>
      <point x="574" y="422" type="curve" smooth="yes"/>
      <point x="574" y="456"/>
      <point x="563" y="482"/>
      <point x="535" y="482" type="curve" smooth="yes"/>
      <point x="507" y="482"/>
      <point x="496" y="456"/>
      <point x="496" y="422" type="curve" smooth="yes"/>
      <point x="496" y="388"/>
      <point x="507" y="362"/>
      <point x="535" y="362" type="curve" smooth="yes"/>
      <point x="564" y="362"/>
      <point x="574" y="388"/>
    </contour>
    <contour>
      <point x="447" y="197" type="curve" smooth="yes"/>
      <point x="447" y="230"/>
      <point x="436" y="257"/>
      <point x="412" y="257" type="curve" smooth="yes"/>
      <point x="388" y="257"/>
      <point x="378" y="230"/>
      <point x="378" y="197" type="curve" smooth="yes"/>
      <point x="378" y="164"/>
      <point x="388" y="137"/>
      <point x="412" y="137" type="curve" smooth="yes"/>
      <point x="436" y="137"/>
      <point x="447" y="164"/>
    </contour>
  </outline>
</glyph>
<glyph name="at" format="1">
  <advance width="1000"/>
  <unicode hex="0040"/>
  <outline>
    <contour>
      <point x="893" y="64" type="line" smooth="yes"/>
      <point x="893" y="33"/>
      <point x="874" y="13"/>
      <point x="841" y="13" type="curve" smooth="yes"/>
      <point x="159" y="13" type="line" smooth="yes"/>
      <point x="126" y="13"/>
      <point x="107" y="33"/>
      <point x="107" y="64" type="curve" smooth="yes"/>
      <point x="107" y="936" type="line" smooth="yes"/>
      <point x="107" y="967"/>
      <point x="126" y="987"/>
      <point x="159" y="987" type="curve" smooth="yes"/>
      <point x="841" y="987" type="line" smooth="yes"/>
      <point x="874" y="987"/>
      <point x="893" y="967"/>
      <point x="893" y="936" type="curve" smooth="yes"/>
    </contour>
    <contour>
      <point x="890" y="64" type="curve" smooth="yes"/>
      <point x="890" y="936" type="line" smooth="yes"/>
      <point x="890" y="966"/>
      <point x="872" y="984"/>
      <point x="841" y="984" type="curve" smooth="yes"/>
      <point x="159" y="984" type="line" smooth="yes"/>
      <point x="128" y="984"/>
      <point x="110" y="966"/>
      <point x="110" y="936" type="curve" smooth="yes"/>
      <point x="110" y="64" type="line" smooth="yes"/>
      <point x="110" y="34"/>
      <point x="128" y="16"/>
      <point x="159" y="16" type="curve" smooth="yes"/>
      <point x="841" y="16" type="line" smooth="yes"/>
      <point x="872" y="16"/>
      <point x="890" y="34"/>
    </contour>
    <contour>
      <point x="871" y="64" type="line" smooth="yes"/>
      <point x="871" y="46"/>
      <point x="859" y="35"/>
      <point x="841" y="35" type="curve" smooth="yes"/>
      <point x="159" y="35" type="line" smooth="yes"/>
      <point x="141" y="35"/>
      <point x="129" y="46"/>
      <point x="129" y="64" type="curve" smooth="yes"/>
      <point x="129" y="936" type="line" smooth="yes"/>
      <point x="129" y="954"/>
      <point x="141" y="965"/>
      <point x="159" y="965" type="curve" smooth="yes"/>
      <point x="841" y="965" type="line" smooth="yes"/>
      <point x="859" y="965"/>
      <point x="871" y="954"/>
      <point x="871" y="936" type="curve" smooth="yes"/>
    </contour>
    <contour>
      <point x="851" y="64" type="curve" smooth="yes"/>
      <point x="851" y="936" type="line" smooth="yes"/>
      <point x="851" y="942"/>
      <point x="847" y="945"/>
      <point x="841" y="945" type="curve" smooth="yes"/>
      <point x="159" y="945" type="line" smooth="yes"/>
      <point x="153" y="945"/>
      <point x="149" y="942"/>
      <point x="149" y="936" type="curve" smooth="yes"/>
      <point x="149" y="64" type="line" smooth="yes"/>
      <point x="149" y="58"/>
      <point x="153" y="55"/>
      <point x="159" y="55" type="curve" smooth="yes"/>
      <point x="841" y="55" type="line" smooth="yes"/>
      <point x="847" y="55"/>
      <point x="851" y="58"/>
    </contour>
    <contour>
      <point x="794" y="786" type="curve" smooth="yes"/>
      <point x="794" y="742"/>
      <point x="766" y="723"/>
      <point x="733" y="723" type="curve" smooth="yes"/>
      <point x="698" y="723" type="line"/>
      <point x="698" y="849" type="line"/>
      <point x="733" y="849" type="line" smooth="yes"/>
      <point x="766" y="849"/>
      <point x="794" y="830"/>
    </contour>
    <contour>
      <point x="661" y="723" type="line"/>
      <point x="577" y="723" type="line"/>
      <point x="577" y="849" type="line"/>
      <point x="658" y="849" type="line"/>
      <point x="658" y="830" type="line"/>
      <point x="596" y="830" type="line"/>
      <point x="596" y="799" type="line"/>
      <point x="632" y="799" type="line"/>
      <point x="632" y="781" type="line"/>
      <point x="596" y="781" type="line"/>
      <point x="596" y="741" type="line"/>
      <point x="661" y="741" type="line"/>
    </contour>
    <contour>
      <point x="538" y="723" type="line"/>
      <point x="454" y="723" type="line"/>
      <point x="454" y="849" type="line"/>
      <point x="535" y="849" type="line"/>
      <point x="535" y="830" type="line"/>
      <point x="473" y="830" type="line"/>
      <point x="473" y="799" type="line"/>
      <point x="509" y="799" type="line"/>
      <point x="509" y="781" type="line"/>
      <point x="473" y="781" type="line"/>
      <point x="473" y="741" type="line"/>
      <point x="538" y="741" type="line"/>
    </contour>
    <contour>
      <point x="423" y="810" type="curve" smooth="yes"/>
      <point x="423" y="784"/>
      <point x="405" y="770"/>
      <point x="381" y="770" type="curve" smooth="yes"/>
      <point x="348" y="770" type="line"/>
      <point x="348" y="723" type="line"/>
      <point x="329" y="723" type="line"/>
      <point x="329" y="849" type="line"/>
      <point x="382" y="849" type="line" smooth="yes"/>
      <point x="404" y="849"/>
      <point x="423" y="835"/>
    </contour>
    <contour>
      <point x="294" y="759" type="curve" smooth="yes"/>
      <point x="294" y="736"/>
      <point x="279" y="721"/>
      <point x="247" y="721" type="curve" smooth="yes"/>
      <point x="229" y="721"/>
      <point x="213" y="729"/>
      <point x="202" y="741" type="curve"/>
      <point x="216" y="754" type="line"/>
      <point x="224" y="745"/>
      <point x="236" y="739"/>
      <point x="248" y="739" type="curve" smooth="yes"/>
      <point x="266" y="739"/>
      <point x="274" y="746"/>
      <point x="274" y="758" type="curve" smooth="yes"/>
      <point x="274" y="768"/>
      <point x="267" y="772"/>
      <point x="246" y="779" type="curve" smooth="yes"/>
      <point x="219" y="787"/>
      <point x="207" y="793"/>
      <point x="207" y="816" type="curve" smooth="yes"/>
      <point x="207" y="838"/>
      <point x="225" y="851"/>
      <point x="248" y="851" type="curve" smooth="yes"/>
      <point x="265" y="851"/>
      <point x="278" y="845"/>
      <point x="289" y="834" type="curve"/>
      <point x="276" y="820" type="line"/>
      <point x="268" y="828"/>
      <point x="259" y="832"/>
      <point x="247" y="832" type="curve" smooth="yes"/>
      <point x="232" y="832"/>
      <point x="226" y="825"/>
      <point x="226" y="817" type="curve" smooth="yes"/>
      <point x="226" y="808"/>
      <point x="231" y="804"/>
      <point x="253" y="797" type="curve" smooth="yes"/>
      <point x="278" y="790"/>
      <point x="294" y="782"/>
    </contour>
    <contour>
      <point x="733" y="637" type="line"/>
      <point x="697" y="637" type="line"/>
      <point x="697" y="530" type="line"/>
      <point x="678" y="530" type="line"/>
      <point x="678" y="637" type="line"/>
      <point x="641" y="637" type="line"/>
      <point x="641" y="656" type="line"/>
      <point x="733" y="656" type="line"/>
    </contour>
    <contour>
      <point x="611" y="530" type="line"/>
      <point x="592" y="530" type="line"/>
      <point x="592" y="656" type="line"/>
      <point x="611" y="656" type="line"/>
    </contour>
    <contour>
      <point x="404" y="530" type="line"/>
      <point x="385" y="530" type="line"/>
      <point x="385" y="656" type="line"/>
      <point x="404" y="656" type="line"/>
    </contour>
    <contour>
      <point x="354" y="530" type="line"/>
      <point x="273" y="530" type="line"/>
      <point x="273" y="656" type="line"/>
      <point x="291" y="656" type="line"/>
      <point x="291" y="548" type="line"/>
      <point x="354" y="548" type="line"/>
    </contour>
    <contour>
      <point x="555" y="530" type="line"/>
      <point x="537" y="530" type="line"/>
      <point x="537" y="619" type="line"/>
      <point x="499" y="528" type="line"/>
      <point x="461" y="619" type="line"/>
      <point x="461" y="530" type="line"/>
      <point x="443" y="530" type="line"/>
      <point x="443" y="656" type="line"/>
      <point x="462" y="656" type="line"/>
      <point x="499" y="570" type="line"/>
      <point x="536" y="656" type="line"/>
      <point x="555" y="656" type="line"/>
    </contour>
    <contour>
      <point x="472" y="142" type="line"/>
      <point x="220" y="142" type="line"/>
      <point x="222" y="252"/>
      <point x="290" y="300"/>
      <point x="368" y="335" type="curve" smooth="yes"/>
      <point x="396" y="347"/>
      <point x="405" y="360"/>
      <point x="405" y="373" type="curve" smooth="yes"/>
      <point x="405" y="390"/>
      <point x="390" y="406"/>
      <point x="352" y="406" type="curve" smooth="yes"/>
      <point x="314" y="406"/>
      <point x="283" y="389"/>
      <point x="260" y="367" type="curve"/>
      <point x="219" y="416" type="line"/>
      <point x="253" y="450"/>
      <point x="299" y="469"/>
      <point x="350" y="469" type="curve" smooth="yes"/>
      <point x="426" y="469"/>
      <point x="469" y="438"/>
      <point x="469" y="377" type="curve" smooth="yes"/>
      <point x="469" y="325"/>
      <point x="441" y="302"/>
      <point x="386" y="277" type="curve" smooth="yes"/>
      <point x="329" y="251"/>
      <point x="307" y="229"/>
      <point x="301" y="204" type="curve"/>
      <point x="472" y="204" type="line"/>
    </contour>
    <contour>
      <point x="789" y="252" type="curve" smooth="yes"/>
      <point x="789" y="176"/>
      <point x="734" y="135"/>
      <point x="654" y="135" type="curve" smooth="yes"/>
      <point x="608" y="135"/>
      <point x="569" y="144"/>
      <point x="529" y="170" type="curve"/>
      <point x="560" y="224" type="line"/>
      <point x="590" y="207"/>
      <point x="622" y="197"/>
      <point x="654" y="197" type="curve" smooth="yes"/>
      <point x="699" y="197"/>
      <point x="724" y="212"/>
      <point x="724" y="250" type="curve" smooth="yes"/>
      <point x="724" y="282"/>
      <point x="699" y="297"/>
      <point x="669" y="297" type="curve" smooth="yes"/>
      <point x="638" y="297"/>
      <point x="620" y="289"/>
      <point x="605" y="279" type="curve"/>
      <point x="544" y="301" type="line"/>
      <point x="555" y="462" type="line"/>
      <point x="769" y="462" type="line"/>
      <point x="769" y="400" type="line"/>
      <point x="614" y="400" type="line"/>
      <point x="611" y="345" type="line"/>
      <point x="626" y="355"/>
      <point x="651" y="359"/>
      <point x="676" y="359" type="curve" smooth="yes"/>
      <point x="753" y="359"/>
      <point x="789" y="310"/>
    </contour>
    <contour>
      <point x="403" y="810" type="curve" smooth="yes"/>
      <point x="403" y="823"/>
      <point x="395" y="831"/>
      <point x="382" y="831" type="curve" smooth="yes"/>
      <point x="348" y="831" type="line"/>
      <point x="348" y="788" type="line"/>
      <point x="382" y="788" type="line" smooth="yes"/>
      <point x="396" y="788"/>
      <point x="403" y="796"/>
    </contour>
    <contour>
      <point x="775" y="786" type="curve" smooth="yes"/>
      <point x="775" y="812"/>
      <point x="763" y="830"/>
      <point x="733" y="830" type="curve" smooth="yes"/>
      <point x="717" y="830" type="line"/>
      <point x="717" y="742" type="line"/>
      <point x="733" y="742" type="line" smooth="yes"/>
      <point x="763" y="742"/>
      <point x="775" y="760"/>
    </contour>
  </outline>
</glyph>
<glyph name="F" format="1">
  <advance width="1000"/>
  <unicode hex="0046"/>
  <outline>
    <contour>
      <point x="828" y="103" type="line" smooth="yes"/>
      <point x="828" y="36"/>
      <point x="805" y="13"/>
      <point x="738" y="13" type="curve" smooth="yes"/>
      <point x="263" y="13" type="line" smooth="yes"/>
      <point x="196" y="13"/>
      <point x="173" y="36"/>
      <point x="173" y="103" type="curve" smooth="yes"/>
      <point x="173" y="897" type="line" smooth="yes"/>
      <point x="173" y="964"/>
      <point x="196" y="987"/>
      <point x="263" y="987" type="curve" smooth="yes"/>
      <point x="738" y="987" type="line" smooth="yes"/>
      <point x="805" y="987"/>
      <point x="828" y="964"/>
      <point x="828" y="897" type="curve" smooth="yes"/>
    </contour>
    <contour>
      <point x="825" y="103" type="curve" smooth="yes"/>
      <point x="825" y="897" type="line" smooth="yes"/>
      <point x="825" y="962"/>
      <point x="803" y="984"/>
      <point x="738" y="984" type="curve" smooth="yes"/>
      <point x="263" y="984" type="line" smooth="yes"/>
      <point x="198" y="984"/>
      <point x="176" y="962"/>
      <point x="176" y="897" type="curve" smooth="yes"/>
      <point x="176" y="103" type="line" smooth="yes"/>
      <point x="176" y="38"/>
      <point x="198" y="16"/>
      <point x="263" y="16" type="curve" smooth="yes"/>
      <point x="738" y="16" type="line" smooth="yes"/>
      <point x="803" y="16"/>
      <point x="825" y="38"/>
    </contour>
    <contour>
      <point x="806" y="103" type="line" smooth="yes"/>
      <point x="806" y="52"/>
      <point x="789" y="35"/>
      <point x="738" y="35" type="curve" smooth="yes"/>
      <point x="263" y="35" type="line" smooth="yes"/>
      <point x="212" y="35"/>
      <point x="195" y="52"/>
      <point x="195" y="103" type="curve" smooth="yes"/>
      <point x="195" y="897" type="line" smooth="yes"/>
      <point x="195" y="948"/>
      <point x="212" y="965"/>
      <point x="263" y="965" type="curve" smooth="yes"/>
      <point x="738" y="965" type="line" smooth="yes"/>
      <point x="789" y="965"/>
      <point x="806" y="948"/>
      <point x="806" y="897" type="curve" smooth="yes"/>
    </contour>
    <contour>
      <point x="786" y="103" type="curve" smooth="yes"/>
      <point x="786" y="897" type="line" smooth="yes"/>
      <point x="786" y="933"/>
      <point x="774" y="945"/>
      <point x="738" y="945" type="curve" smooth="yes"/>
      <point x="263" y="945" type="line" smooth="yes"/>
      <point x="227" y="945"/>
      <point x="215" y="933"/>
      <point x="215" y="897" type="curve" smooth="yes"/>
      <point x="215" y="103" type="line" smooth="yes"/>
      <point x="215" y="67"/>
      <point x="227" y="55"/>
      <point x="263" y="55" type="curve" smooth="yes"/>
      <point x="738" y="55" type="line" smooth="yes"/>
      <point x="774" y="55"/>
      <point x="786" y="67"/>
    </contour>
    <contour>
      <point x="618" y="804" type="curve" smooth="yes"/>
      <point x="618" y="756"/>
      <point x="602" y="717"/>
      <point x="567" y="717" type="curve" smooth="yes"/>
      <point x="531" y="717"/>
      <point x="516" y="755"/>
      <point x="516" y="804" type="curve" smooth="yes"/>
      <point x="516" y="852"/>
      <point x="531" y="891"/>
      <point x="567" y="891" type="curve" smooth="yes"/>
      <point x="603" y="891"/>
      <point x="618" y="853"/>
    </contour>
    <contour>
      <point x="487" y="720" type="line"/>
      <point x="468" y="720" type="line"/>
      <point x="416" y="837" type="line"/>
      <point x="416" y="720" type="line"/>
      <point x="393" y="720" type="line"/>
      <point x="393" y="888" type="line"/>
      <point x="416" y="888" type="line"/>
      <point x="464" y="780" type="line"/>
      <point x="464" y="888" type="line"/>
      <point x="487" y="888" type="line"/>
    </contour>
    <contour>
      <point x="767" y="559" type="line" smooth="yes"/>
      <point x="767" y="533"/>
      <point x="760" y="511"/>
      <point x="734" y="511" type="curve" smooth="yes"/>
      <point x="703" y="511"/>
      <point x="698" y="543"/>
      <point x="698" y="593" type="curve" smooth="yes"/>
      <point x="698" y="648"/>
      <point x="705" y="674"/>
      <point x="734" y="674" type="curve" smooth="yes"/>
      <point x="755" y="674"/>
      <point x="764" y="656"/>
      <point x="766" y="629" type="curve"/>
      <point x="745" y="626" type="line"/>
      <point x="744" y="644"/>
      <point x="741" y="655"/>
      <point x="734" y="655" type="curve" smooth="yes"/>
      <point x="722" y="655"/>
      <point x="719" y="644"/>
      <point x="719" y="593" type="curve" smooth="yes"/>
      <point x="719" y="548"/>
      <point x="722" y="530"/>
      <point x="734" y="530" type="curve" smooth="yes"/>
      <point x="742" y="530"/>
      <point x="746" y="537"/>
      <point x="746" y="558" type="curve" smooth="yes"/>
      <point x="746" y="575" type="line"/>
      <point x="734" y="575" type="line"/>
      <point x="734" y="595" type="line"/>
      <point x="767" y="595" type="line"/>
    </contour>
    <contour>
      <point x="681" y="512" type="line"/>
      <point x="667" y="512" type="line"/>
      <point x="634" y="624" type="line"/>
      <point x="634" y="512" type="line"/>
      <point x="615" y="512" type="line"/>
      <point x="615" y="673" type="line"/>
      <point x="634" y="673" type="line"/>
      <point x="663" y="580" type="line"/>
      <point x="663" y="673" type="line"/>
      <point x="681" y="673" type="line"/>
    </contour>
    <contour>
      <point x="592" y="512" type="line"/>
      <point x="572" y="512" type="line"/>
      <point x="572" y="673" type="line"/>
      <point x="592" y="673" type="line"/>
    </contour>
    <contour>
      <point x="554" y="673" type="line"/>
      <point x="526" y="613" type="line"/>
      <point x="551" y="512" type="line"/>
      <point x="530" y="512" type="line"/>
      <point x="511" y="590" type="line"/>
      <point x="508" y="581" type="line"/>
      <point x="508" y="512" type="line"/>
      <point x="489" y="512" type="line"/>
      <point x="489" y="673" type="line"/>
      <point x="508" y="673" type="line"/>
      <point x="508" y="611" type="line"/>
      <point x="533" y="673" type="line"/>
    </contour>
    <contour>
      <point x="468" y="512" type="line"/>
      <point x="446" y="512" type="line"/>
      <point x="431" y="586" type="line"/>
      <point x="422" y="586" type="line"/>
      <point x="422" y="512" type="line"/>
      <point x="402" y="512" type="line"/>
      <point x="402" y="673" type="line"/>
      <point x="431" y="673" type="line" smooth="yes"/>
      <point x="450" y="673"/>
      <point x="465" y="665"/>
      <point x="465" y="630" type="curve" smooth="yes"/>
      <point x="465" y="612"/>
      <point x="461" y="598"/>
      <point x="451" y="591" type="curve"/>
    </contour>
    <contour>
      <point x="382" y="512" type="line"/>
      <point x="361" y="512" type="line"/>
      <point x="357" y="550" type="line"/>
      <point x="334" y="550" type="line"/>
      <point x="330" y="512" type="line"/>
      <point x="308" y="512" type="line"/>
      <point x="334" y="673" type="line"/>
      <point x="357" y="673" type="line"/>
    </contour>
    <contour>
      <point x="304" y="629" type="curve" smooth="yes"/>
      <point x="304" y="595"/>
      <point x="289" y="583"/>
      <point x="268" y="583" type="curve" smooth="yes"/>
      <point x="261" y="583" type="line"/>
      <point x="261" y="512" type="line"/>
      <point x="241" y="512" type="line"/>
      <point x="241" y="673" type="line"/>
      <point x="269" y="673" type="line" smooth="yes"/>
      <point x="289" y="673"/>
      <point x="304" y="662"/>
    </contour>
    <contour>
      <point x="622" y="476" type="line"/>
      <point x="595" y="416" type="line"/>
      <point x="595" y="367" type="line"/>
      <point x="580" y="367" type="line"/>
      <point x="580" y="415" type="line"/>
      <point x="552" y="476" type="line"/>
      <point x="568" y="476" type="line"/>
      <point x="587" y="430" type="line"/>
      <point x="606" y="476" type="line"/>
    </contour>
    <contour>
      <point x="532" y="367" type="line"/>
      <point x="520" y="367" type="line"/>
      <point x="486" y="443" type="line"/>
      <point x="486" y="367" type="line"/>
      <point x="471" y="367" type="line"/>
      <point x="471" y="476" type="line"/>
      <point x="487" y="476" type="line"/>
      <point x="517" y="406" type="line"/>
      <point x="517" y="476" type="line"/>
      <point x="532" y="476" type="line"/>
    </contour>
    <contour>
      <point x="451" y="367" type="line"/>
      <point x="434" y="367" type="line"/>
      <point x="428" y="396" type="line"/>
      <point x="404" y="396" type="line"/>
      <point x="398" y="367" type="line"/>
      <point x="382" y="367" type="line"/>
      <point x="409" y="476" type="line"/>
      <point x="424" y="476" type="line"/>
    </contour>
    <contour>
      <point x="456" y="227" type="line"/>
      <point x="440" y="227" type="line"/>
      <point x="440" y="335" type="line"/>
      <point x="456" y="335" type="line"/>
    </contour>
    <contour>
      <point x="643" y="226" type="line"/>
      <point x="590" y="226" type="line"/>
      <point x="590" y="335" type="line"/>
      <point x="641" y="335" type="line"/>
      <point x="641" y="320" type="line"/>
      <point x="605" y="320" type="line"/>
      <point x="605" y="292" type="line"/>
      <point x="629" y="292" type="line"/>
      <point x="629" y="277" type="line"/>
      <point x="605" y="277" type="line"/>
      <point x="605" y="241" type="line"/>
      <point x="643" y="241" type="line"/>
    </contour>
    <contour>
      <point x="558" y="226" type="line"/>
      <point x="543" y="226" type="line"/>
      <point x="543" y="297" type="line"/>
      <point x="521" y="224" type="line"/>
      <point x="499" y="296" type="line"/>
      <point x="499" y="226" type="line"/>
      <point x="485" y="226" type="line"/>
      <point x="485" y="335" type="line"/>
      <point x="501" y="335" type="line"/>
      <point x="521" y="266" type="line"/>
      <point x="542" y="335" type="line"/>
      <point x="558" y="335" type="line"/>
    </contour>
    <contour>
      <point x="414" y="320" type="line"/>
      <point x="394" y="320" type="line"/>
      <point x="394" y="226" type="line"/>
      <point x="378" y="226" type="line"/>
      <point x="378" y="320" type="line"/>
      <point x="358" y="320" type="line"/>
      <point x="358" y="335" type="line"/>
      <point x="414" y="335" type="line"/>
    </contour>
    <contour>
      <point x="712" y="122" type="line"/>
      <point x="379" y="122" type="line"/>
      <point x="386" y="99" type="line" smooth="yes"/>
      <point x="388" y="94"/>
      <point x="386" y="90"/>
      <point x="383" y="88" type="curve" smooth="yes"/>
      <point x="380" y="86"/>
      <point x="375" y="86"/>
      <point x="371" y="89" type="curve" smooth="yes"/>
      <point x="304" y="137" type="line" smooth="yes"/>
      <point x="296" y="143"/>
      <point x="296" y="146"/>
      <point x="304" y="152" type="curve" smooth="yes"/>
      <point x="371" y="199" type="line" smooth="yes"/>
      <point x="375" y="202"/>
      <point x="380" y="202"/>
      <point x="383" y="200" type="curve" smooth="yes"/>
      <point x="386" y="198"/>
      <point x="388" y="194"/>
      <point x="386" y="189" type="curve" smooth="yes"/>
      <point x="379" y="166" type="line"/>
      <point x="712" y="166" type="line"/>
    </contour>
    <contour>
      <point x="594" y="804" type="curve" smooth="yes"/>
      <point x="594" y="835"/>
      <point x="587" y="867"/>
      <point x="567" y="867" type="curve" smooth="yes"/>
      <point x="546" y="867"/>
      <point x="540" y="835"/>
      <point x="540" y="804" type="curve" smooth="yes"/>
      <point x="540" y="773"/>
      <point x="547" y="741"/>
      <point x="567" y="741" type="curve" smooth="yes"/>
      <point x="588" y="741"/>
      <point x="594" y="773"/>
    </contour>
    <contour>
      <point x="445" y="629" type="curve" smooth="yes"/>
      <point x="445" y="648"/>
      <point x="441" y="655"/>
      <point x="431" y="655" type="curve" smooth="yes"/>
      <point x="422" y="655" type="line"/>
      <point x="422" y="604" type="line"/>
      <point x="429" y="604" type="line" smooth="yes"/>
      <point x="439" y="604"/>
      <point x="445" y="612"/>
    </contour>
    <contour>
      <point x="284" y="627" type="curve" smooth="yes"/>
      <point x="284" y="645"/>
      <point x="279" y="655"/>
      <point x="269" y="655" type="curve" smooth="yes"/>
      <point x="261" y="655" type="line"/>
      <point x="261" y="601" type="line"/>
      <point x="268" y="601" type="line" smooth="yes"/>
      <point x="278" y="601"/>
      <point x="284" y="609"/>
    </contour>
    <contour>
      <point x="354" y="569" type="line"/>
      <point x="345" y="638" type="line"/>
      <point x="337" y="569" type="line"/>
    </contour>
    <contour>
      <point x="425" y="410" type="line"/>
      <point x="416" y="453" type="line"/>
      <point x="407" y="410" type="line"/>
    </contour>
  </outline>
</glyph>
<glyph name="H" format="1">
  <advance width="1000"/>
  <unicode hex="0048"/>
  <outline>
    <contour>
      <point x="828" y="103" type="line" smooth="yes"/>
      <point x="828" y="36"/>
      <point x="805" y="13"/>
      <point x="738" y="13" type="curve" smooth="yes"/>
      <point x="263" y="13" type="line" smooth="yes"/>
      <point x="196" y="13"/>
      <point x="173" y="36"/>
      <point x="173" y="103" type="curve" smooth="yes"/>
      <point x="173" y="897" type="line" smooth="yes"/>
      <point x="173" y="964"/>
      <point x="196" y="987"/>
      <point x="263" y="987" type="curve" smooth="yes"/>
      <point x="738" y="987" type="line" smooth="yes"/>
      <point x="805" y="987"/>
      <point x="828" y="964"/>
      <point x="828" y="897" type="curve" smooth="yes"/>
    </contour>
    <contour>
      <point x="825" y="103" type="curve" smooth="yes"/>
      <point x="825" y="897" type="line" smooth="yes"/>
      <point x="825" y="962"/>
      <point x="803" y="984"/>
      <point x="738" y="984" type="curve" smooth="yes"/>
      <point x="263" y="984" type="line" smooth="yes"/>
      <point x="198" y="984"/>
      <point x="176" y="962"/>
      <point x="176" y="897" type="curve" smooth="yes"/>
      <point x="176" y="103" type="line" smooth="yes"/>
      <point x="176" y="38"/>
      <point x="198" y="16"/>
      <point x="263" y="16" type="curve" smooth="yes"/>
      <point x="738" y="16" type="line" smooth="yes"/>
      <point x="803" y="16"/>
      <point x="825" y="38"/>
    </contour>
    <contour>
      <point x="806" y="103" type="line" smooth="yes"/>
      <point x="806" y="52"/>
      <point x="789" y="35"/>
      <point x="738" y="35" type="curve" smooth="yes"/>
      <point x="263" y="35" type="line" smooth="yes"/>
      <point x="212" y="35"/>
      <point x="195" y="52"/>
      <point x="195" y="103" type="curve" smooth="yes"/>
      <point x="195" y="897" type="line" smooth="yes"/>
      <point x="195" y="948"/>
      <point x="212" y="965"/>
      <point x="263" y="965" type="curve" smooth="yes"/>
      <point x="738" y="965" type="line" smooth="yes"/>
      <point x="789" y="965"/>
      <point x="806" y="948"/>
      <point x="806" y="897" type="curve" smooth="yes"/>
    </contour>
    <contour>
      <point x="786" y="709" type="line"/>
      <point x="786" y="897" type="line" smooth="yes"/>
      <point x="786" y="934"/>
      <point x="775" y="945"/>
      <point x="738" y="945" type="curve" smooth="yes"/>
      <point x="387" y="945" type="line"/>
      <point x="387" y="709" type="line"/>
    </contour>
    <contour>
      <point x="367" y="826" type="curve" smooth="yes"/>
      <point x="367" y="878"/>
      <point x="361" y="909"/>
      <point x="332" y="909" type="curve" smooth="yes"/>
      <point x="303" y="909"/>
      <point x="297" y="878"/>
      <point x="297" y="826" type="curve" smooth="yes"/>
      <point x="297" y="773"/>
      <point x="304" y="743"/>
      <point x="332" y="743" type="curve" smooth="yes"/>
      <point x="361" y="743"/>
      <point x="367" y="774"/>
    </contour>
    <contour>
      <point x="283" y="746" type="line"/>
      <point x="283" y="907" type="line"/>
      <point x="264" y="907" type="line"/>
      <point x="264" y="814" type="line"/>
      <point x="235" y="907" type="line"/>
      <point x="216" y="907" type="line"/>
      <point x="216" y="746" type="line"/>
      <point x="235" y="746" type="line"/>
      <point x="235" y="856" type="line"/>
      <point x="269" y="746" type="line"/>
    </contour>
    <contour>
      <point x="786" y="103" type="curve" smooth="yes"/>
      <point x="786" y="689" type="line"/>
      <point x="215" y="689" type="line"/>
      <point x="215" y="103" type="line" smooth="yes"/>
      <point x="215" y="66"/>
      <point x="226" y="55"/>
      <point x="263" y="55" type="curve" smooth="yes"/>
      <point x="738" y="55" type="line" smooth="yes"/>
      <point x="775" y="55"/>
      <point x="786" y="66"/>
    </contour>
    <contour>
      <point x="772" y="804" type="line" smooth="yes"/>
      <point x="772" y="786"/>
      <point x="767" y="770"/>
      <point x="749" y="770" type="curve" smooth="yes"/>
      <point x="728" y="770"/>
      <point x="724" y="792"/>
      <point x="724" y="827" type="curve" smooth="yes"/>
      <point x="724" y="865"/>
      <point x="729" y="884"/>
      <point x="749" y="884" type="curve" smooth="yes"/>
      <point x="764" y="884"/>
      <point x="770" y="871"/>
      <point x="771" y="852" type="curve"/>
      <point x="757" y="850" type="line"/>
      <point x="756" y="863"/>
      <point x="754" y="870"/>
      <point x="749" y="870" type="curve" smooth="yes"/>
      <point x="741" y="870"/>
      <point x="739" y="863"/>
      <point x="739" y="827" type="curve" smooth="yes"/>
      <point x="739" y="796"/>
      <point x="741" y="784"/>
      <point x="749" y="784" type="curve" smooth="yes"/>
      <point x="755" y="784"/>
      <point x="758" y="789"/>
      <point x="758" y="803" type="curve" smooth="yes"/>
      <point x="758" y="815" type="line"/>
      <point x="749" y="815" type="line"/>
      <point x="749" y="829" type="line"/>
      <point x="772" y="829" type="line"/>
    </contour>
    <contour>
      <point x="713" y="771" type="line"/>
      <point x="703" y="771" type="line"/>
      <point x="680" y="848" type="line"/>
      <point x="680" y="771" type="line"/>
      <point x="666" y="771" type="line"/>
      <point x="666" y="883" type="line"/>
      <point x="680" y="883" type="line"/>
      <point x="700" y="819" type="line"/>
      <point x="700" y="883" type="line"/>
      <point x="713" y="883" type="line"/>
    </contour>
    <contour>
      <point x="651" y="771" type="line"/>
      <point x="637" y="771" type="line"/>
      <point x="637" y="883" type="line"/>
      <point x="651" y="883" type="line"/>
    </contour>
    <contour>
      <point x="624" y="883" type="line"/>
      <point x="605" y="841" type="line"/>
      <point x="623" y="771" type="line"/>
      <point x="608" y="771" type="line"/>
      <point x="595" y="825" type="line"/>
      <point x="593" y="819" type="line"/>
      <point x="593" y="771" type="line"/>
      <point x="579" y="771" type="line"/>
      <point x="579" y="883" type="line"/>
      <point x="593" y="883" type="line"/>
      <point x="593" y="840" type="line"/>
      <point x="610" y="883" type="line"/>
    </contour>
    <contour>
      <point x="565" y="771" type="line"/>
      <point x="550" y="771" type="line"/>
      <point x="539" y="822" type="line"/>
      <point x="533" y="822" type="line"/>
      <point x="533" y="771" type="line"/>
      <point x="518" y="771" type="line"/>
      <point x="518" y="883" type="line"/>
      <point x="539" y="883" type="line" smooth="yes"/>
      <point x="552" y="883"/>
      <point x="563" y="877"/>
      <point x="563" y="853" type="curve" smooth="yes"/>
      <point x="563" y="840"/>
      <point x="560" y="831"/>
      <point x="553" y="826" type="curve"/>
    </contour>
    <contour>
      <point x="503" y="771" type="line"/>
      <point x="488" y="771" type="line"/>
      <point x="485" y="797" type="line"/>
      <point x="469" y="797" type="line"/>
      <point x="466" y="771" type="line"/>
      <point x="451" y="771" type="line"/>
      <point x="469" y="883" type="line"/>
      <point x="485" y="883" type="line"/>
    </contour>
    <contour>
      <point x="447" y="852" type="curve" smooth="yes"/>
      <point x="447" y="829"/>
      <point x="436" y="820"/>
      <point x="422" y="820" type="curve" smooth="yes"/>
      <point x="417" y="820" type="line"/>
      <point x="417" y="771" type="line"/>
      <point x="402" y="771" type="line"/>
      <point x="402" y="883" type="line"/>
      <point x="423" y="883" type="line" smooth="yes"/>
      <point x="436" y="883"/>
      <point x="447" y="875"/>
    </contour>
    <contour>
      <point x="346" y="825" type="curve" smooth="yes"/>
      <point x="346" y="777"/>
      <point x="342" y="764"/>
      <point x="332" y="764" type="curve" smooth="yes"/>
      <point x="322" y="764"/>
      <point x="318" y="777"/>
      <point x="318" y="827" type="curve" smooth="yes"/>
      <point x="318" y="875"/>
      <point x="322" y="888"/>
      <point x="332" y="888" type="curve" smooth="yes"/>
      <point x="342" y="888"/>
      <point x="346" y="875"/>
    </contour>
    <contour>
      <point x="433" y="510" type="curve" smooth="yes"/>
      <point x="433" y="476"/>
      <point x="414" y="459"/>
      <point x="386" y="459" type="curve" smooth="yes"/>
      <point x="339" y="459" type="line"/>
      <point x="339" y="627" type="line"/>
      <point x="384" y="627" type="line" smooth="yes"/>
      <point x="411" y="627"/>
      <point x="431" y="614"/>
      <point x="431" y="583" type="curve" smooth="yes"/>
      <point x="431" y="569"/>
      <point x="424" y="554"/>
      <point x="411" y="548" type="curve"/>
      <point x="425" y="543"/>
      <point x="433" y="528"/>
    </contour>
    <contour>
      <point x="672" y="502" type="curve" smooth="yes"/>
      <point x="672" y="475"/>
      <point x="656" y="456"/>
      <point x="626" y="456" type="curve" smooth="yes"/>
      <point x="605" y="456"/>
      <point x="591" y="467"/>
      <point x="582" y="483" type="curve"/>
      <point x="600" y="498" type="line"/>
      <point x="609" y="484"/>
      <point x="617" y="479"/>
      <point x="627" y="479" type="curve" smooth="yes"/>
      <point x="640" y="479"/>
      <point x="648" y="487"/>
      <point x="648" y="501" type="curve" smooth="yes"/>
      <point x="648" y="514"/>
      <point x="642" y="521"/>
      <point x="620" y="536" type="curve" smooth="yes"/>
      <point x="601" y="548"/>
      <point x="586" y="561"/>
      <point x="586" y="587" type="curve" smooth="yes"/>
      <point x="586" y="611"/>
      <point x="602" y="629"/>
      <point x="628" y="629" type="curve" smooth="yes"/>
      <point x="648" y="629"/>
      <point x="659" y="621"/>
      <point x="669" y="606" type="curve"/>
      <point x="652" y="591" type="line"/>
      <point x="644" y="602"/>
      <point x="638" y="605"/>
      <point x="627" y="605" type="curve" smooth="yes"/>
      <point x="616" y="605"/>
      <point x="610" y="598"/>
      <point x="610" y="588" type="curve" smooth="yes"/>
      <point x="610" y="575"/>
      <point x="616" y="568"/>
      <point x="634" y="556" type="curve" smooth="yes"/>
      <point x="655" y="543"/>
      <point x="672" y="530"/>
    </contour>
    <contour>
      <point x="549" y="509" type="line" smooth="yes"/>
      <point x="549" y="477"/>
      <point x="531" y="457"/>
      <point x="502" y="457" type="curve" smooth="yes"/>
      <point x="474" y="457"/>
      <point x="455" y="477"/>
      <point x="455" y="508" type="curve" smooth="yes"/>
      <point x="455" y="627" type="line"/>
      <point x="478" y="627" type="line"/>
      <point x="478" y="509" type="line" smooth="yes"/>
      <point x="478" y="495"/>
      <point x="484" y="481"/>
      <point x="502" y="481" type="curve" smooth="yes"/>
      <point x="520" y="481"/>
      <point x="526" y="496"/>
      <point x="526" y="509" type="curve" smooth="yes"/>
      <point x="526" y="627" type="line"/>
      <point x="549" y="627" type="line"/>
    </contour>
    <contour>
      <point x="724" y="357" type="curve" smooth="yes"/>
      <point x="724" y="323"/>
      <point x="701" y="306"/>
      <point x="676" y="306" type="curve" smooth="yes"/>
      <point x="654" y="306" type="line"/>
      <point x="654" y="238" type="line"/>
      <point x="630" y="238" type="line"/>
      <point x="630" y="406" type="line"/>
      <point x="677" y="406" type="line" smooth="yes"/>
      <point x="700" y="406"/>
      <point x="724" y="391"/>
    </contour>
    <contour>
      <point x="602" y="322" type="curve" smooth="yes"/>
      <point x="602" y="274"/>
      <point x="586" y="235"/>
      <point x="551" y="235" type="curve" smooth="yes"/>
      <point x="515" y="235"/>
      <point x="500" y="273"/>
      <point x="500" y="322" type="curve" smooth="yes"/>
      <point x="500" y="370"/>
      <point x="515" y="409"/>
      <point x="551" y="409" type="curve" smooth="yes"/>
      <point x="587" y="409"/>
      <point x="602" y="371"/>
    </contour>
    <contour>
      <point x="474" y="382" type="line"/>
      <point x="443" y="382" type="line"/>
      <point x="443" y="238" type="line"/>
      <point x="419" y="238" type="line"/>
      <point x="419" y="382" type="line"/>
      <point x="388" y="382" type="line"/>
      <point x="388" y="406" type="line"/>
      <point x="474" y="406" type="line"/>
    </contour>
    <contour>
      <point x="376" y="281" type="curve" smooth="yes"/>
      <point x="376" y="254"/>
      <point x="360" y="235"/>
      <point x="330" y="235" type="curve" smooth="yes"/>
      <point x="309" y="235"/>
      <point x="295" y="246"/>
      <point x="286" y="262" type="curve"/>
      <point x="304" y="277" type="line"/>
      <point x="313" y="263"/>
      <point x="321" y="258"/>
      <point x="331" y="258" type="curve" smooth="yes"/>
      <point x="344" y="258"/>
      <point x="352" y="266"/>
      <point x="352" y="280" type="curve" smooth="yes"/>
      <point x="352" y="293"/>
      <point x="346" y="300"/>
      <point x="324" y="315" type="curve" smooth="yes"/>
      <point x="305" y="327"/>
      <point x="290" y="340"/>
      <point x="290" y="366" type="curve" smooth="yes"/>
      <point x="290" y="390"/>
      <point x="306" y="408"/>
      <point x="332" y="408" type="curve" smooth="yes"/>
      <point x="352" y="408"/>
      <point x="363" y="400"/>
      <point x="373" y="385" type="curve"/>
      <point x="356" y="370" type="line"/>
      <point x="348" y="381"/>
      <point x="342" y="384"/>
      <point x="331" y="384" type="curve" smooth="yes"/>
      <point x="320" y="384"/>
      <point x="314" y="377"/>
      <point x="314" y="367" type="curve" smooth="yes"/>
      <point x="314" y="354"/>
      <point x="320" y="347"/>
      <point x="338" y="335" type="curve" smooth="yes"/>
      <point x="359" y="322"/>
      <point x="376" y="309"/>
    </contour>
    <contour>
      <point x="712" y="122" type="line"/>
      <point x="379" y="122" type="line"/>
      <point x="386" y="99" type="line" smooth="yes"/>
      <point x="388" y="94"/>
      <point x="386" y="90"/>
      <point x="383" y="88" type="curve" smooth="yes"/>
      <point x="380" y="86"/>
      <point x="375" y="86"/>
      <point x="371" y="89" type="curve" smooth="yes"/>
      <point x="304" y="137" type="line" smooth="yes"/>
      <point x="296" y="143"/>
      <point x="296" y="146"/>
      <point x="304" y="152" type="curve" smooth="yes"/>
      <point x="371" y="199" type="line" smooth="yes"/>
      <point x="375" y="202"/>
      <point x="380" y="202"/>
      <point x="383" y="200" type="curve" smooth="yes"/>
      <point x="386" y="198"/>
      <point x="388" y="194"/>
      <point x="386" y="189" type="curve" smooth="yes"/>
      <point x="379" y="166" type="line"/>
      <point x="712" y="166" type="line"/>
    </contour>
    <contour>
      <point x="549" y="852" type="curve" smooth="yes"/>
      <point x="549" y="865"/>
      <point x="546" y="870"/>
      <point x="539" y="870" type="curve" smooth="yes"/>
      <point x="533" y="870" type="line"/>
      <point x="533" y="835" type="line"/>
      <point x="538" y="835" type="line" smooth="yes"/>
      <point x="545" y="835"/>
      <point x="549" y="840"/>
    </contour>
    <contour>
      <point x="433" y="851" type="curve" smooth="yes"/>
      <point x="433" y="864"/>
      <point x="430" y="870"/>
      <point x="423" y="870" type="curve" smooth="yes"/>
      <point x="417" y="870" type="line"/>
      <point x="417" y="833" type="line"/>
      <point x="422" y="833" type="line" smooth="yes"/>
      <point x="429" y="833"/>
      <point x="433" y="839"/>
    </contour>
    <contour>
      <point x="483" y="811" type="line"/>
      <point x="477" y="859" type="line"/>
      <point x="471" y="811" type="line"/>
    </contour>
    <contour>
      <point x="407" y="582" type="curve" smooth="yes"/>
      <point x="407" y="599"/>
      <point x="397" y="604"/>
      <point x="385" y="604" type="curve" smooth="yes"/>
      <point x="363" y="604" type="line"/>
      <point x="363" y="559" type="line"/>
      <point x="384" y="559" type="line" smooth="yes"/>
      <point x="397" y="559"/>
      <point x="407" y="566"/>
    </contour>
    <contour>
      <point x="409" y="510" type="curve" smooth="yes"/>
      <point x="409" y="528"/>
      <point x="398" y="536"/>
      <point x="384" y="536" type="curve" smooth="yes"/>
      <point x="363" y="536" type="line"/>
      <point x="363" y="482" type="line"/>
      <point x="387" y="482" type="line" smooth="yes"/>
      <point x="399" y="482"/>
      <point x="409" y="490"/>
    </contour>
    <contour>
      <point x="700" y="356" type="curve" smooth="yes"/>
      <point x="700" y="375"/>
      <point x="689" y="383"/>
      <point x="676" y="383" type="curve" smooth="yes"/>
      <point x="654" y="383" type="line"/>
      <point x="654" y="329" type="line"/>
      <point x="676" y="329" type="line" smooth="yes"/>
      <point x="690" y="329"/>
      <point x="700" y="338"/>
    </contour>
    <contour>
      <point x="578" y="322" type="curve" smooth="yes"/>
      <point x="578" y="353"/>
      <point x="571" y="385"/>
      <point x="551" y="385" type="curve" smooth="yes"/>
      <point x="530" y="385"/>
      <point x="524" y="353"/>
      <point x="524" y="322" type="curve" smooth="yes"/>
      <point x="524" y="291"/>
      <point x="531" y="259"/>
      <point x="551" y="259" type="curve" smooth="yes"/>
      <point x="572" y="259"/>
      <point x="578" y="291"/>
    </contour>
  </outline>
</glyph>
<glyph name="J" format="1">
  <advance width="1000"/>
  <unicode hex="004A"/>
  <outline>
    <contour>
      <point x="987" y="435" type="line" smooth="yes"/>
      <point x="987" y="368"/>
      <point x="964" y="345"/>
      <point x="897" y="345" type="curve" smooth="yes"/>
      <point x="103" y="345" type="line" smooth="yes"/>
      <point x="36" y="345"/>
      <point x="13" y="368"/>
      <point x="13" y="435" type="curve" smooth="yes"/>
      <point x="13" y="565" type="line" smooth="yes"/>
      <point x="13" y="632"/>
      <point x="36" y="655"/>
      <point x="103" y="655" type="curve" smooth="yes"/>
      <point x="897" y="655" type="line" smooth="yes"/>
      <point x="964" y="655"/>
      <point x="987" y="632"/>
      <point x="987" y="565" type="curve" smooth="yes"/>
    </contour>
    <contour>
      <point x="984" y="435" type="curve" smooth="yes"/>
      <point x="984" y="565" type="line" smooth="yes"/>
      <point x="984" y="630"/>
      <point x="962" y="652"/>
      <point x="897" y="652" type="curve" smooth="yes"/>
      <point x="103" y="652" type="line" smooth="yes"/>
      <point x="38" y="652"/>
      <point x="16" y="630"/>
      <point x="16" y="565" type="curve" smooth="yes"/>
      <point x="16" y="435" type="line" smooth="yes"/>
      <point x="16" y="370"/>
      <point x="38" y="348"/>
      <point x="103" y="348" type="curve" smooth="yes"/>
      <point x="897" y="348" type="line" smooth="yes"/>
      <point x="962" y="348"/>
      <point x="984" y="370"/>
    </contour>
    <contour>
      <point x="965" y="435" type="line" smooth="yes"/>
      <point x="965" y="384"/>
      <point x="948" y="367"/>
      <point x="897" y="367" type="curve" smooth="yes"/>
      <point x="103" y="367" type="line" smooth="yes"/>
      <point x="52" y="367"/>
      <point x="35" y="384"/>
      <point x="35" y="435" type="curve" smooth="yes"/>
      <point x="35" y="565" type="line" smooth="yes"/>
      <point x="35" y="616"/>
      <point x="52" y="633"/>
      <point x="103" y="633" type="curve" smooth="yes"/>
      <point x="897" y="633" type="line" smooth="yes"/>
      <point x="948" y="633"/>
      <point x="965" y="616"/>
      <point x="965" y="565" type="curve" smooth="yes"/>
    </contour>
    <contour>
      <point x="894" y="582" type="line"/>
      <point x="871" y="582" type="line"/>
      <point x="843" y="514" type="line"/>
      <point x="814" y="582" type="line"/>
      <point x="791" y="582" type="line"/>
      <point x="832" y="492" type="line"/>
      <point x="832" y="421" type="line"/>
      <point x="854" y="421" type="line"/>
      <point x="854" y="493" type="line"/>
    </contour>
    <contour>
      <point x="786" y="421" type="line"/>
      <point x="746" y="582" type="line"/>
      <point x="723" y="582" type="line"/>
      <point x="683" y="421" type="line"/>
      <point x="707" y="421" type="line"/>
      <point x="717" y="464" type="line"/>
      <point x="751" y="464" type="line"/>
      <point x="761" y="421" type="line"/>
    </contour>
    <contour>
      <point x="677" y="582" type="line"/>
      <point x="655" y="582" type="line"/>
      <point x="638" y="475" type="line"/>
      <point x="621" y="582" type="line"/>
      <point x="604" y="582" type="line"/>
      <point x="587" y="476" type="line"/>
      <point x="570" y="582" type="line"/>
      <point x="547" y="582" type="line"/>
      <point x="576" y="421" type="line"/>
      <point x="593" y="421" type="line"/>
      <point x="612" y="522" type="line"/>
      <point x="630" y="421" type="line"/>
      <point x="648" y="421" type="line"/>
    </contour>
    <contour>
      <point x="417" y="421" type="line"/>
      <point x="417" y="443" type="line"/>
      <point x="366" y="443" type="line"/>
      <point x="366" y="582" type="line"/>
      <point x="343" y="582" type="line"/>
      <point x="343" y="421" type="line"/>
    </contour>
    <contour>
      <point x="307" y="421" type="line"/>
      <point x="307" y="443" type="line"/>
      <point x="256" y="443" type="line"/>
      <point x="256" y="582" type="line"/>
      <point x="233" y="582" type="line"/>
      <point x="233" y="421" type="line"/>
    </contour>
    <contour>
      <point x="205" y="421" type="line"/>
      <point x="165" y="582" type="line"/>
      <point x="142" y="582" type="line"/>
      <point x="102" y="421" type="line"/>
      <point x="126" y="421" type="line"/>
      <point x="136" y="464" type="line"/>
      <point x="170" y="464" type="line"/>
      <point x="180" y="421" type="line"/>
    </contour>
    <contour>
      <point x="747" y="485" type="line"/>
      <point x="721" y="485" type="line"/>
      <point x="734" y="548" type="line"/>
    </contour>
    <contour>
      <point x="166" y="485" type="line"/>
      <point x="140" y="485" type="line"/>
      <point x="153" y="548" type="line"/>
    </contour>
  </outline>
</glyph>
<glyph name="bracketleft" format="1">
  <advance width="1000"/>
  <unicode hex="005B"/>
  <outline>
    <contour>
      <point x="987" y="342" type="line" smooth="yes"/>
      <point x="987" y="311"/>
      <point x="968" y="291"/>
      <point x="935" y="291" type="curve" smooth="yes"/>
      <point x="65" y="291" type="line" smooth="yes"/>
      <point x="32" y="291"/>
      <point x="13" y="311"/>
      <point x="13" y="342" type="curve" smooth="yes"/>
      <point x="13" y="658" type="line" smooth="yes"/>
      <point x="13" y="689"/>
      <point x="32" y="709"/>
      <point x="65" y="709" type="curve" smooth="yes"/>
      <point x="935" y="709" type="line" smooth="yes"/>
      <point x="968" y="709"/>
      <point x="987" y="689"/>
      <point x="987" y="658" type="curve" smooth="yes"/>
    </contour>
    <contour>
      <point x="984" y="342" type="curve" smooth="yes"/>
      <point x="984" y="658" type="line" smooth="yes"/>
      <point x="984" y="688"/>
      <point x="966" y="706"/>
      <point x="935" y="706" type="curve" smooth="yes"/>
      <point x="65" y="706" type="line" smooth="yes"/>
      <point x="34" y="706"/>
      <point x="16" y="688"/>
      <point x="16" y="658" type="curve" smooth="yes"/>
      <point x="16" y="342" type="line" smooth="yes"/>
      <point x="16" y="312"/>
      <point x="34" y="294"/>
      <point x="65" y="294" type="curve" smooth="yes"/>
      <point x="935" y="294" type="line" smooth="yes"/>
      <point x="966" y="294"/>
      <point x="984" y="312"/>
    </contour>
    <contour>
      <point x="965" y="342" type="line" smooth="yes"/>
      <point x="965" y="324"/>
      <point x="953" y="313"/>
      <point x="935" y="313" type="curve" smooth="yes"/>
      <point x="65" y="313" type="line" smooth="yes"/>
      <point x="47" y="313"/>
      <point x="35" y="324"/>
      <point x="35" y="342" type="curve" smooth="yes"/>
      <point x="35" y="658" type="line" smooth="yes"/>
      <point x="35" y="676"/>
      <point x="47" y="687"/>
      <point x="65" y="687" type="curve" smooth="yes"/>
      <point x="935" y="687" type="line" smooth="yes"/>
      <point x="953" y="687"/>
      <point x="965" y="676"/>
      <point x="965" y="658" type="curve" smooth="yes"/>
    </contour>
    <contour>
      <point x="945" y="342" type="curve" smooth="yes"/>
      <point x="945" y="658" type="line" smooth="yes"/>
      <point x="945" y="664"/>
      <point x="941" y="667"/>
      <point x="935" y="667" type="curve" smooth="yes"/>
      <point x="65" y="667" type="line" smooth="yes"/>
      <point x="59" y="667"/>
      <point x="55" y="664"/>
      <point x="55" y="658" type="curve" smooth="yes"/>
      <point x="55" y="342" type="line" smooth="yes"/>
      <point x="55" y="336"/>
      <point x="59" y="333"/>
      <point x="65" y="333" type="curve" smooth="yes"/>
      <point x="935" y="333" type="line" smooth="yes"/>
      <point x="941" y="333"/>
      <point x="945" y="336"/>
    </contour>
    <contour>
      <point x="674" y="522" type="line"/>
      <point x="659" y="522" type="line"/>
      <point x="619" y="597" type="line"/>
      <point x="619" y="522" type="line"/>
      <point x="603" y="522" type="line"/>
      <point x="603" y="627" type="line"/>
      <point x="619" y="627" type="line"/>
      <point x="658" y="555" type="line"/>
      <point x="658" y="627" type="line"/>
      <point x="674" y="627" type="line"/>
    </contour>
    <contour>
      <point x="584" y="522" type="line"/>
      <point x="523" y="522" type="line"/>
      <point x="523" y="627" type="line"/>
      <point x="582" y="627" type="line"/>
      <point x="582" y="613" type="line"/>
      <point x="539" y="613" type="line"/>
      <point x="539" y="586" type="line"/>
      <point x="565" y="586" type="line"/>
      <point x="565" y="571" type="line"/>
      <point x="539" y="571" type="line"/>
      <point x="539" y="537" type="line"/>
      <point x="584" y="537" type="line"/>
    </contour>
    <contour>
      <point x="500" y="522" type="line"/>
      <point x="484" y="522" type="line"/>
      <point x="484" y="569" type="line"/>
      <point x="446" y="569" type="line"/>
      <point x="446" y="522" type="line"/>
      <point x="430" y="522" type="line"/>
      <point x="430" y="627" type="line"/>
      <point x="446" y="627" type="line"/>
      <point x="446" y="584" type="line"/>
      <point x="484" y="584" type="line"/>
      <point x="484" y="627" type="line"/>
      <point x="500" y="627" type="line"/>
    </contour>
    <contour>
      <point x="412" y="627" type="line"/>
      <point x="392" y="522" type="line"/>
      <point x="378" y="522" type="line"/>
      <point x="363" y="596" type="line"/>
      <point x="347" y="522" type="line"/>
      <point x="333" y="522" type="line"/>
      <point x="313" y="627" type="line"/>
      <point x="329" y="627" type="line"/>
      <point x="342" y="553" type="line"/>
      <point x="357" y="627" type="line"/>
      <point x="369" y="627" type="line"/>
      <point x="385" y="553" type="line"/>
      <point x="397" y="627" type="line"/>
    </contour>
    <contour>
      <point x="645" y="376" type="line"/>
      <point x="629" y="376" type="line"/>
      <point x="629" y="480" type="line"/>
      <point x="645" y="480" type="line"/>
    </contour>
    <contour>
      <point x="832" y="411" type="line" smooth="yes"/>
      <point x="832" y="388"/>
      <point x="820" y="373"/>
      <point x="797" y="373" type="curve" smooth="yes"/>
      <point x="773" y="373"/>
      <point x="759" y="396"/>
      <point x="759" y="427" type="curve" smooth="yes"/>
      <point x="759" y="459"/>
      <point x="773" y="481"/>
      <point x="798" y="481" type="curve" smooth="yes"/>
      <point x="815" y="481"/>
      <point x="824" y="473"/>
      <point x="829" y="459" type="curve"/>
      <point x="815" y="452" type="line"/>
      <point x="811" y="462"/>
      <point x="806" y="466"/>
      <point x="797" y="466" type="curve" smooth="yes"/>
      <point x="782" y="466"/>
      <point x="775" y="450"/>
      <point x="775" y="427" type="curve" smooth="yes"/>
      <point x="775" y="407"/>
      <point x="782" y="388"/>
      <point x="798" y="388" type="curve" smooth="yes"/>
      <point x="811" y="388"/>
      <point x="817" y="397"/>
      <point x="817" y="410" type="curve" smooth="yes"/>
      <point x="817" y="414" type="line"/>
      <point x="802" y="414" type="line"/>
      <point x="802" y="428" type="line"/>
      <point x="832" y="428" type="line"/>
    </contour>
    <contour>
      <point x="738" y="375" type="line"/>
      <point x="723" y="375" type="line"/>
      <point x="683" y="450" type="line"/>
      <point x="683" y="375" type="line"/>
      <point x="667" y="375" type="line"/>
      <point x="667" y="480" type="line"/>
      <point x="683" y="480" type="line"/>
      <point x="722" y="408" type="line"/>
      <point x="722" y="480" type="line"/>
      <point x="738" y="480" type="line"/>
    </contour>
    <contour>
      <point x="603" y="375" type="line"/>
      <point x="587" y="375" type="line"/>
      <point x="587" y="422" type="line"/>
      <point x="549" y="422" type="line"/>
      <point x="549" y="375" type="line"/>
      <point x="533" y="375" type="line"/>
      <point x="533" y="480" type="line"/>
      <point x="549" y="480" type="line"/>
      <point x="549" y="437" type="line"/>
      <point x="587" y="437" type="line"/>
      <point x="587" y="480" type="line"/>
      <point x="603" y="480" type="line"/>
    </contour>
    <contour>
      <point x="509" y="404" type="curve" smooth="yes"/>
      <point x="509" y="386"/>
      <point x="498" y="374"/>
      <point x="475" y="374" type="curve" smooth="yes"/>
      <point x="461" y="374"/>
      <point x="450" y="381"/>
      <point x="443" y="391" type="curve"/>
      <point x="454" y="401" type="line"/>
      <point x="461" y="393"/>
      <point x="468" y="389"/>
      <point x="476" y="389" type="curve" smooth="yes"/>
      <point x="488" y="389"/>
      <point x="494" y="394"/>
      <point x="494" y="403" type="curve" smooth="yes"/>
      <point x="494" y="411"/>
      <point x="489" y="415"/>
      <point x="473" y="422" type="curve" smooth="yes"/>
      <point x="456" y="429"/>
      <point x="446" y="436"/>
      <point x="446" y="453" type="curve" smooth="yes"/>
      <point x="446" y="470"/>
      <point x="459" y="481"/>
      <point x="476" y="481" type="curve" smooth="yes"/>
      <point x="490" y="481"/>
      <point x="499" y="476"/>
      <point x="506" y="467" type="curve"/>
      <point x="495" y="457" type="line"/>
      <point x="490" y="463"/>
      <point x="484" y="466"/>
      <point x="476" y="466" type="curve" smooth="yes"/>
      <point x="466" y="466"/>
      <point x="461" y="461"/>
      <point x="461" y="454" type="curve" smooth="yes"/>
      <point x="461" y="447"/>
      <point x="466" y="442"/>
      <point x="480" y="436" type="curve" smooth="yes"/>
      <point x="497" y="428"/>
      <point x="509" y="422"/>
    </contour>
    <contour>
      <point x="422" y="375" type="line"/>
      <point x="405" y="375" type="line"/>
      <point x="398" y="401" type="line"/>
      <point x="366" y="401" type="line"/>
      <point x="359" y="375" type="line"/>
      <point x="342" y="375" type="line"/>
      <point x="374" y="480" type="line"/>
      <point x="390" y="480" type="line"/>
    </contour>
    <contour>
      <point x="324" y="375" type="line"/>
      <point x="266" y="375" type="line"/>
      <point x="266" y="480" type="line"/>
      <point x="281" y="480" type="line"/>
      <point x="281" y="390" type="line"/>
      <point x="324" y="390" type="line"/>
    </contour>
    <contour>
      <point x="243" y="465" type="line"/>
      <point x="199" y="465" type="line"/>
      <point x="199" y="437" type="line"/>
      <point x="225" y="437" type="line"/>
      <point x="225" y="422" type="line"/>
      <point x="199" y="422" type="line"/>
      <point x="199" y="375" type="line"/>
      <point x="184" y="375" type="line"/>
      <point x="184" y="480" type="line"/>
      <point x="243" y="480" type="line"/>
    </contour>
    <contour>
      <point x="394" y="416" type="line"/>
      <point x="382" y="459" type="line"/>
      <point x="370" y="416" type="line"/>
    </contour>
  </outline>
</glyph>
